<?xml version="1.0" encoding="UTF-8" standalone="no"?>
<svg
   version="1.0"
   width="1024px"
   height="1024px"
   viewBox="0 0 1024 1024"
   preserveAspectRatio="xMidYMid meet"
   id="svg172"
   sodipodi:docname="buzzybee-sprite.svg"
   inkscape:version="1.4.3 (0d15f75042, 2025-12-25)"
   inkscape:export-filename="buzzybee-sprite.png"
   inkscape:export-xdpi="24"
   inkscape:export-ydpi="24"
   xmlns:inkscape="http://www.inkscape.org/namespaces/inkscape"
   xmlns:sodipodi="http://sodipodi.sourceforge.net/DTD/sodipodi-0.dtd"
   xmlns="http://www.w3.org/2000/svg"
   xmlns:svg="http://www.w3.org/2000/svg">
  <defs
     id="defs172" />
  <sodipodi:namedview
     id="namedview172"
     pagecolor="#ffffff"
     bordercolor="#000000"
     borderopacity="0.25"
     inkscape:showpageshadow="2"
     inkscape:pageopacity="0.0"
     inkscape:pagecheckerboard="true"
     inkscape:deskcolor="#d1d1d1"
     inkscape:zoom="0.9319984"
     inkscape:cx="339.59286"
     inkscape:cy="853.00576"
     inkscape:window-width="1536"
     inkscape:window-height="795"
     inkscape:window-x="0"
     inkscape:window-y="0"
     inkscape:window-maximized="1"
     inkscape:current-layer="g173" />
  <g
     id="g173"
     transform="matrix(1.1049724,0,0,1.1049724,-51.535924,221.9691)">
    <g
       fill="#ace3fd"
       id="g33">
      <path
         d="m 594,580.1 c -12.2,-4.1 -12,-4 -12,-7.2 0,-1.9 -0.5,-2.9 -1.5,-2.9 -0.8,0 -1.5,0.5 -1.5,1 0,1.1 -5.9,1.4 -8.4,0.4 -1,-0.4 -1.6,-1.8 -1.6,-4 0,-3 0.3,-3.4 2.8,-3.5 1.5,0 3.6,-0.4 4.7,-0.9 1.8,-0.8 1.7,-0.9 -0.8,-0.9 -2.6,-0.1 -2.8,-0.3 -2.5,-3.8 l 0.3,-3.8 5.3,-0.3 5.2,-0.3 v 3.5 c 0,3.2 0.3,3.6 2.5,3.6 2.2,0 2.5,0.4 2.5,3.4 0,2.4 -0.5,3.6 -1.7,3.9 -1.2,0.3 -1,0.5 0.7,0.6 3.7,0.1 19.9,-3.4 24.5,-5.3 l 4,-1.7 -3.3,-2 c -2.5,-1.7 -3.2,-2.8 -3.2,-5.4 v -3.3 l 7.3,-1.3 c 3.9,-0.7 13.3,-1.3 20.7,-1.3 11.7,0 14.1,0.3 18.3,2.1 4.6,2.1 4.7,2.3 4.7,6.5 0,5.8 -3.3,10.5 -11.1,15.7 -14.6,9.8 -38.8,12.9 -55.9,7.2 z"
         id="path25" />
      <path
         d="m 498,569.9 c 0,-3.8 2.3,-5.8 6.8,-5.9 3.1,0 3.2,0.2 3.2,3.9 0,4.3 -1,5.1 -6.6,5.1 -3.1,0 -3.4,-0.2 -3.4,-3.1 z"
         id="path26" />
      <path
         d="m 392.7,568.3 c -1.1,-1 -0.8,-8.3 0.2,-8.3 0.6,0 0.6,-1.2 0,-3.2 -0.5,-1.8 -0.9,-7.2 -0.9,-12 V 536 h 3.5 3.5 v 6.8 c 0,3.8 0.7,9.1 1.5,11.8 1.7,5.7 1.9,10.4 0.5,10.4 -0.5,0 -1,0.9 -1,2 0,1.6 -0.7,2 -3.3,2 -1.9,0 -3.7,-0.3 -4,-0.7 z"
         id="path27" />
      <path
         d="m 508,557.5 c 0,-1.4 0.5,-4.5 1.2,-6.9 1.1,-4.2 1.5,-4.5 4.7,-4.8 3.5,-0.3 3.6,-0.5 3.9,-4.5 0.3,-4.2 0.4,-4.3 3.8,-4.3 3.2,0 3.4,0.2 3.4,3.4 0,1.8 -0.3,5.4 -0.6,8 -0.6,4.4 -0.8,4.6 -4,4.6 -2.8,0 -3.4,0.4 -4.4,3.5 -1,3.1 -1.6,3.5 -4.6,3.5 -3,0 -3.4,-0.3 -3.4,-2.5 z"
         id="path28" />
      <path
         d="m 369,549.9 c -16.5,-12.3 -28.9,-30 -34,-48.1 -2.2,-8 -3.7,-23 -2.6,-27.2 0.6,-2.4 1.1,-2.6 5.8,-2.6 3.1,0 6.8,0.8 9.3,2 6.1,3 20.1,14.8 27.8,23.7 l 6.9,7.8 -0.9,7.5 c -0.4,4.1 -0.7,15 -0.6,24.3 l 0.2,16.7 h -3.2 c -2.2,0 -4.9,-1.3 -8.7,-4.1 z"
         id="path29" />
      <path
         d="M 611.8,542.3 606,541.9 V 538 c 0,-3 0.9,-5.1 3.6,-8.6 3.3,-4.4 7.4,-11.5 7.4,-13 0,-0.3 -2.1,0.6 -4.7,2.2 -7.5,4.3 -22.3,14.6 -22.3,15.6 0,0.4 -1.5,0.8 -3.2,0.8 -2.7,0 -3.7,-0.7 -5.5,-3.5 -2.3,-3.5 -3,-9.3 -1.4,-11 0.5,-0.6 3,-5 5.6,-10 15.8,-30.3 43.6,-63.1 66.2,-78.2 10.8,-7.2 18.5,-10.3 25.7,-10.3 8.4,0 9.1,1.4 9,16.9 -0.4,30.9 -13.1,60.9 -35.4,83.1 -10.7,10.8 -25.8,21.1 -30.3,20.8 -1.8,-0.1 -5.8,-0.3 -8.9,-0.5 z"
         id="path30" />
      <path
         d="m 391,527.6 c 0,-4.8 3.3,-8.6 7.6,-8.6 3.1,0 3.4,0.2 3.4,3 0,4.7 -3.7,9 -7.7,9 -3.1,0 -3.3,-0.2 -3.3,-3.4 z"
         id="path31" />
      <path
         d="m 515,527.5 c 0,-2.8 -0.4,-3.5 -2,-3.5 -1.6,0 -2,-0.7 -2,-3.5 0,-3.3 0.2,-3.5 3.5,-3.5 3.3,0 3.5,0.2 3.5,3.5 0,2.8 0.4,3.5 2,3.5 1.6,0 2,0.7 2,3.5 0,3.3 -0.2,3.5 -3.5,3.5 -3.3,0 -3.5,-0.2 -3.5,-3.5 z"
         id="path32" />
      <path
         d="m 499.2,516.8 c -0.7,-0.7 -1.2,-2.7 -1.2,-4.5 0,-3.1 0.2,-3.3 3.3,-3.3 6.2,0 7.7,0.9 7.7,4.5 0,2.1 -0.6,3.5 -1.6,3.9 -2.6,1 -6.9,0.7 -8.2,-0.6 z"
         id="path33" />
    </g>
    <g
       fill="#89dcfa"
       id="g39">
      <path
         d="m 398.2,574 c -1.8,-1.1 -3.7,-3.2 -4.2,-4.6 -0.6,-1.4 -1.6,-3.2 -2.4,-4 -2.2,-2.1 -3.6,-10.5 -3.6,-21.2 0,-11.5 1.1,-16.1 5.3,-21.9 2.9,-3.9 3.5,-4.3 7.2,-4 3.7,0.2 4,0.4 4.3,3.4 0.2,2 -0.7,5.1 -2.5,8.5 -2.5,4.8 -2.8,6.3 -2.8,15.3 0,9.5 0.2,10.3 3.3,15.7 1.9,3.2 3.8,6.1 4.3,6.4 0.5,0.3 0.9,2.3 0.9,4.5 0,3.7 -0.1,3.9 -3.2,3.9 -1.8,0 -4.8,-0.9 -6.6,-2 z M 397,524.8 c 1.5,-2.1 1.7,-2.8 0.6,-1.9 -1.6,1.3 -4.1,5.1 -3.3,5.1 0.2,0 1.4,-1.5 2.7,-3.2 z"
         id="path34" />
      <path
         d="m 591,570 c 0,-1.6 0.7,-2 3.5,-2 4,0 4.9,2.4 1.3,3.4 -3.8,1 -4.8,0.7 -4.8,-1.4 z"
         id="path35" />
      <path
         d="m 502.2,567.6 c -0.2,-2.5 0.9,-5.2 4,-10.2 4.1,-6.6 4.3,-7.2 4.2,-14.4 -0.2,-8.4 -1.9,-14 -6.4,-20.6 -3.2,-4.8 -4.3,-10.7 -1.5,-8.4 1.1,0.9 1.5,0.9 1.5,0.1 0,-0.6 -0.7,-1.4 -1.5,-1.7 -2.6,-1 -1.7,-2.4 1.5,-2.4 7.3,0 13.2,5.1 18.1,15.5 2,4.3 2.3,6.6 2.4,16 0,10.1 -0.2,11.5 -2.8,16.7 -3.8,7.8 -9.7,12.8 -15.2,12.8 -3.9,0 -4.1,-0.1 -4.3,-3.4 z"
         id="path36" />
      <path
         d="m 612,565.5 c 0,-1.6 0.6,-2.5 1.6,-2.5 0.8,0 2.2,-0.7 3,-1.5 1.4,-1.3 1.2,-1.5 -1.5,-1.5 -2.9,0 -3.1,-0.3 -3.1,-3.5 0,-3.2 0.3,-3.5 2.8,-3.4 2.7,0.1 2.7,0.1 0.2,0.8 -2.4,0.7 -2.4,0.7 1.3,3 6.9,4.3 6.8,6.5 -0.6,9.6 -3.7,1.5 -3.7,1.5 -3.7,-1 z"
         id="path37" />
      <path
         d="m 613,526.5 c 0,-3.1 0.3,-3.5 2.5,-3.5 3,0 3,0.3 0.8,4.1 -2.3,3.8 -3.3,3.7 -3.3,-0.6 z"
         id="path38" />
      <path
         d="m 614,514 c 0,-1.2 3.3,-3 5.4,-3 0.9,0 1.6,0.9 1.6,2 0,1.6 -0.7,2 -3.5,2 -1.9,0 -3.5,-0.4 -3.5,-1 z"
         id="path39" />
    </g>
    <g
       fill="#88bed5"
       id="g126">
      <path
         d="m 574.8,725.3 c -1,-0.2 -1.8,-1.1 -1.8,-1.9 0,-1 1.3,-1.4 4.5,-1.4 3.8,0 4.5,-0.3 4.5,-2 0,-1.3 0.7,-2 2,-2 2.9,0 2.5,3.4 -0.6,5.9 -2.6,2 -4.9,2.4 -8.6,1.4 z"
         id="path40" />
      <path
         d="m 556.4,710 c -2,-2.7 -4.2,-5 -5,-5 -0.8,0 -1.4,-0.7 -1.4,-1.5 0,-1 1.1,-1.5 3.5,-1.5 3.2,0 3.5,0.2 3.5,3 0,2.3 0.4,3 2,3 1.6,0 2,0.7 2,3.5 0,1.9 -0.2,3.5 -0.5,3.5 -0.3,0 -2.1,-2.2 -4.1,-5 z"
         id="path41" />
      <path
         d="m 513,710 c 0,-1.6 0.7,-2 3.5,-2 3.9,0 4.6,1.4 1.6,3 -3.1,1.6 -5.1,1.2 -5.1,-1 z"
         id="path42" />
      <path
         d="m 504.6,708.4 -2.9,-2.9 2.8,-0.3 c 3.4,-0.4 3.7,-0.1 3.3,3.3 l -0.3,2.8 z"
         id="path43" />
      <path
         d="m 583,706.6 c 0,-3 0.4,-3.4 3.1,-4 5.2,-1 7.9,-0.7 7.9,0.9 0,0.8 -1.4,1.7 -3.5,2.1 -2.5,0.4 -3.5,1.1 -3.5,2.5 0,1.2 -0.7,1.9 -2,1.9 -1.6,0 -2,-0.7 -2,-3.4 z"
         id="path44" />
      <path
         d="m 523.2,704.9 c 0.2,-2.9 0.7,-3.5 3.1,-3.7 2.1,-0.3 2.7,-0.9 2.7,-2.8 0,-2.1 0.5,-2.4 3.5,-2.4 3,0 3.5,0.3 3.5,2.4 0,1.9 -0.4,2.2 -2.4,1.9 -1.7,-0.4 -2.9,0.3 -4.5,2.3 -1.2,1.5 -3.1,3.4 -4.2,4.2 -1.9,1.3 -2,1.3 -1.7,-1.9 z"
         id="path45" />
      <path
         d="m 476.8,705.3 c -3.6,-0.9 -2,-3.3 2.2,-3.3 2.9,0 4,0.4 4,1.5 0,0.8 -0.4,1.5 -0.9,1.5 -0.5,0 -1.5,0.2 -2.3,0.4 -0.7,0.2 -2.1,0.2 -3,-0.1 z"
         id="path46" />
      <path
         d="m 541.8,703.3 c -3.3,-0.8 -2,-3.3 1.7,-3.3 2.8,0 3.5,0.4 3.5,2 0,2 -1.4,2.3 -5.2,1.3 z"
         id="path47" />
      <path
         d="m 595,702 c 0,-1.6 0.7,-2 3.5,-2 3.9,0 4.6,1.4 1.6,3 -3.1,1.6 -5.1,1.2 -5.1,-1 z"
         id="path48" />
      <path
         d="m 486,698.5 c 0,-2.4 0.5,-3.5 1.5,-3.5 0.8,0 1.5,-0.9 1.5,-2 0,-1.1 0.5,-2 1,-2 0.6,0 1,-0.7 1,-1.5 0,-0.8 0.9,-1.5 2,-1.5 1.1,0 2,-0.7 2,-1.5 0,-1 1.1,-1.5 3.5,-1.5 3.3,0 3.5,0.2 3.5,3.5 0,1.9 -0.4,3.5 -1,3.5 -0.5,0 -1,-0.6 -1,-1.4 0,-1.7 -3.3,-3.1 -3.8,-1.7 -0.5,1.5 -9.1,13.1 -9.7,13.1 -0.3,0 -0.5,-1.6 -0.5,-3.5 z"
         id="path49" />
      <path
         d="m 471.4,696.6 c -0.8,-4.4 0.4,-9.6 2.2,-9.6 1.1,0 1.4,1.6 1.4,6.5 0,5 -0.3,6.5 -1.5,6.5 -0.8,0 -1.7,-1.4 -2.1,-3.4 z"
         id="path50" />
      <path
         d="m 609,695.5 c 0,-1.8 0.5,-2.5 2,-2.5 1.1,0 2,-0.7 2,-1.5 0,-1 1.1,-1.5 3.5,-1.5 3.3,0 3.5,-0.2 3.5,-3.5 0,-3.3 0.2,-3.5 3.1,-3.5 h 3.2 l -2.5,3.3 C 621,689.9 611.5,698 610,698 c -0.6,0 -1,-1.1 -1,-2.5 z"
         id="path51" />
      <path
         d="m 422,693 c 0,-1.6 0.7,-2 3.5,-2 4,0 4.9,2.4 1.3,3.4 -3.8,1 -4.8,0.7 -4.8,-1.4 z"
         id="path52" />
      <path
         d="m 411.6,690.8 c -3.7,-5.7 -2.8,-14.4 2.5,-25.5 3.3,-6.9 4.9,-8 4.9,-3.3 0,3 -1.8,8 -3,8 -0.3,0 -1.2,2.8 -1.9,6.1 -1.1,4.8 -1.1,6.9 -0.3,9.4 2.4,6.4 0.8,10 -2.2,5.3 z"
         id="path53" />
      <path
         d="m 440,685.1 c 0,-2.6 0.4,-3.1 2.4,-3.1 1.8,0 2.5,-0.6 2.8,-2.2 0.2,-1.8 1,-2.4 4,-2.6 3.5,-0.3 3.7,-0.5 4,-4 0.2,-3 0.8,-3.8 2.6,-4 1.4,-0.2 2.2,-1 2.2,-2.3 0,-2.8 2.4,-4.9 5.5,-4.9 3.5,0 5.7,2.4 5.3,5.6 l -0.3,2.5 -2.2,-2 c -1.2,-1.2 -2.6,-2.1 -3,-2.1 -0.4,0 -2.1,1.9 -3.8,4.1 -3.1,4.3 -11.5,12.3 -16.5,15.9 l -3,2.1 z"
         id="path54" />
      <path
         d="m 474.1,677.8 c 0.2,-1.3 0,-2.9 -0.4,-3.5 -0.6,-0.9 -0.1,-1.3 1.7,-1.3 2.3,0 2.6,0.4 2.6,3.5 0,2.9 -0.4,3.5 -2.1,3.5 -1.5,0 -2,-0.5 -1.8,-2.2 z"
         id="path55" />
      <path
         d="m 627,676.5 c 0,-3.3 0.2,-3.5 3.5,-3.5 1.9,0 3.5,0.3 3.5,0.6 0,0.6 -5.9,6.4 -6.6,6.4 -0.2,0 -0.4,-1.6 -0.4,-3.5 z"
         id="path56" />
      <path
         d="m 635,671.5 c 0,-2.1 0.5,-2.5 3,-2.5 2.5,0 3,-0.4 3,-2.3 0,-2.7 2.8,-5.7 5.2,-5.7 1.7,0 3.2,-6.2 1.7,-6.8 -0.5,-0.2 -0.9,-1.2 -0.9,-2.3 0,-1.4 -0.7,-1.9 -2.8,-1.9 -3.8,0 -8.2,-4.9 -8.2,-9 0,-1.6 0.5,-3 1,-3 0.6,0 1,0.4 1,0.9 0,1.3 8.1,8.9 11.9,11.2 5.9,3.6 2.9,10.6 -8.3,19.9 -5.6,4.7 -6.6,4.9 -6.6,1.5 z"
         id="path57" />
      <path
         d="m 424,650 c 3.1,-4.4 4,-4.5 4,-0.6 0,3.3 -0.2,3.6 -3.1,3.6 h -3 z"
         id="path58" />
      <path
         d="m 433.5,640 c 0.3,-0.5 1.9,-1.9 3.5,-3 l 3,-2.1 v 3 c 0,2.9 -0.3,3.1 -3.6,3.1 -2,0 -3.3,-0.4 -2.9,-1 z"
         id="path59" />
      <path
         d="m 633.2,630.2 c -1.6,-7.6 -1.5,-10.2 0.2,-10.2 1,0 2,2.4 3,6.9 2,8.8 2,9.1 -0.2,9.1 -1.4,0 -2.1,-1.3 -3,-5.8 z"
         id="path60" />
      <path
         d="m 428.6,623.2 c -6.1,-2.1 -7.2,-4.2 -2.2,-4.2 2,0 3.6,0.5 3.6,1 0,0.6 1.6,1 3.5,1 2.8,0 3.5,0.4 3.5,2 0,2.4 -1.7,2.5 -8.4,0.2 z"
         id="path61" />
      <path
         d="m 629,614.4 c 0,-4.4 1.8,-4.2 3.7,0.4 1.3,3.1 1.2,3.2 -1.2,3.2 -2.2,0 -2.5,-0.4 -2.5,-3.6 z"
         id="path62" />
      <path
         d="m 399,608 -3.5,-2.9 3.8,-0.1 c 3.5,0 3.7,0.2 3.7,3 0,1.7 -0.1,3 -0.3,3 -0.1,0 -1.8,-1.3 -3.7,-3 z"
         id="path63" />
      <path
         d="m 621,599.3 0.1,-3.8 2.4,2.8 c 3.2,3.6 3.1,4.7 0,4.7 -2.2,0 -2.5,-0.4 -2.5,-3.7 z"
         id="path64" />
      <path
         d="m 615,591.4 c 0,-3.9 0.9,-3.8 4,0.6 l 2.1,3 h -3 c -2.9,0 -3.1,-0.3 -3.1,-3.6 z"
         id="path65" />
      <path
         d="m 381.5,585.8 c -0.7,-1.8 -1.6,-5 -2,-7 -0.6,-3.3 -0.5,-3.8 1.2,-3.8 1.4,0 2.2,1.2 3.1,4.5 2.3,8.6 0.6,13.2 -2.3,6.3 z"
         id="path66" />
      <path
         d="m 620,584.5 c 0,-0.9 -0.9,-1.5 -2.5,-1.5 -4.1,0 -3.1,-2.8 1.3,-3.5 7.3,-1.2 16.8,-3.7 21,-5.6 8.9,-3.9 18.2,-12.5 18.2,-16.8 0,-1.6 -7.8,-5 -11.5,-5.1 -4.6,0 -7.5,-1.1 -7.5,-2.6 0,-0.8 1,-1.4 2.5,-1.4 1.6,0 2.5,-0.6 2.5,-1.5 0,-1.8 0.4,-1.8 7,-0.4 3.2,0.7 5,1.6 5,2.5 0,0.8 0.7,1.7 1.5,2 0.8,0.4 1.5,1.7 1.5,2.9 0,1.3 0.4,2.5 0.9,2.7 0.4,0.2 1.1,2.3 1.4,4.8 0.6,4.4 0.5,4.6 -4.6,9.5 -6.1,5.8 -15.9,10.9 -26.5,13.6 -9.1,2.3 -10.2,2.3 -10.2,0.4 z m 37,-17 c 0,-0.8 -0.7,-1.5 -1.5,-1.5 -0.8,0 -1.5,0.7 -1.5,1.5 0,0.8 0.7,1.5 1.5,1.5 0.8,0 1.5,-0.7 1.5,-1.5 z"
         id="path67" />
      <path
         d="m 588,578.4 c -6.9,-2.5 -14,-5.1 -15.7,-5.7 -2.7,-0.8 -3.3,-1.6 -3.3,-3.8 0,-3.8 0.9,-5.9 2.6,-5.9 1,0 1.4,-1.3 1.4,-4.3 0,-3.3 0.6,-4.8 2.4,-6.4 2.2,-1.9 2.3,-2.6 1.5,-6 -0.5,-2.1 -0.9,-5.2 -0.9,-6.9 0,-2.7 0.4,-3.2 3,-3.7 3.3,-0.7 4.2,-4 1.5,-5.1 -1.5,-0.6 -2.2,-7.6 -0.7,-7.6 0.4,0 1.2,-2 1.8,-4.5 1,-4.5 1,-4.5 -1.7,-4.5 -2.9,0 -3.9,-1.5 -3.9,-6.1 0,-3.9 1.3,-3.7 3.6,0.6 l 1.8,3.4 2.5,-4.5 c 1.4,-2.4 2.9,-4.3 3.5,-4.1 0.6,0.2 1.6,-0.1 2.1,-0.7 1.8,-1.8 2.5,-4.4 1.2,-4.9 -1.3,-0.4 4.3,-9.7 5.8,-9.6 2.4,0.3 3.5,-0.2 3.5,-1.6 0,-0.8 0.5,-1.5 1,-1.5 1.6,0 1.2,-1.8 -0.5,-2.2 -1.2,-0.2 -0.9,-1.1 1.4,-3.8 1.7,-1.9 3,-2.9 3.1,-2.2 0,1.8 2,1.5 2,-0.3 0,-0.9 0.7,-1.8 1.5,-2.1 0.8,-0.4 1.5,-1.2 1.5,-2 0,-0.7 0.8,-1.9 1.8,-2.6 2.4,-1.8 4.4,-5.6 3.1,-6 -0.5,-0.2 0.4,-1.9 2,-3.8 l 3,-3.5 0.2,3.5 c 0.1,2.8 0.3,3 0.6,1 0.6,-3.2 15.1,-18 17.8,-18.1 1.3,-0.1 1,-0.4 -0.9,-0.8 l -2.9,-0.6 4.4,-3.6 c 6.3,-5.1 16.1,-11.9 17.1,-11.9 0.4,0 0.8,0.7 0.8,1.6 0,1.4 0.2,1.4 1.5,0 0.9,-0.9 3.8,-2.3 6.5,-3.3 3.3,-1.2 5,-2.3 5,-3.4 0,-0.9 1,-1.9 2.3,-2.3 3.5,-0.9 4.7,-0.7 4.7,0.9 0,0.8 0.5,1.5 1,1.5 0.6,0 1,-0.7 1,-1.5 0,-2 3.1,-1.9 5.6,0.1 1.3,1.1 1.5,1.7 0.6,2 -1.7,0.8 -0.5,2.4 1.3,1.8 1.7,-0.7 3.1,1.9 3.9,7.7 0.7,4.6 0.7,4.6 -2.5,5.3 -1.8,0.3 -3.4,0.4 -3.6,0.2 -0.2,-0.2 -0.7,-2.1 -1,-4.2 -0.7,-4.7 -2.8,-7.4 -5.9,-7.4 -4.3,0 -13.6,4.2 -22.7,10.3 -22.6,15.1 -50.3,47.8 -66.2,78.2 -2.6,5 -5.1,9.5 -5.7,10.2 -0.6,0.8 -0.1,2.4 1.6,5 1.4,2.1 2.6,3.3 2.6,2.6 0,-1.4 20.8,-15.4 27,-18.2 6.1,-2.8 8,-2.7 8,0.3 0,3 -6,14.7 -10,19.8 -4.1,5.1 -3.9,6.2 1.2,5.5 2.3,-0.3 5,-0.2 5.9,0.4 1.3,0.6 3.5,-0.3 9.1,-4 4,-2.6 8.9,-6.1 10.8,-7.7 7.6,-6.4 7.3,-6.3 6.8,-2.1 -0.2,2.2 0,3.7 0.7,3.7 0.5,0.1 -0.6,1.4 -2.4,3 -1.9,1.7 -3.7,2.6 -4,2.1 -0.4,-0.4 -1.5,-0.5 -2.6,0 -1.8,0.7 -1.8,0.8 -0.2,0.8 2.7,0.1 1.2,1.8 -5.6,6.2 l -6,3.9 3.9,0.1 c 2.1,0.1 3.1,0.3 2.2,0.6 -3.1,0.8 -1.9,2.3 1.7,2.3 2.4,0 3.5,0.5 3.5,1.5 0,1.5 -2.1,2 -12.5,3 -3.3,0.3 -7.4,0.9 -9,1.3 l -3,0.9 4.3,2.6 c 2.5,1.6 4.2,3.5 4.2,4.6 0,3.7 -13.9,8.3 -28.9,9.7 -6.7,0.6 -7.1,0.8 -5,2 1.3,0.7 6.6,2.5 11.7,4 5.4,1.7 9.2,3.4 9.2,4.1 0,2.5 -7.4,1.2 -20,-3.3 z M 576,568 c 0,-0.5 -1,-1 -2.2,-1 -1.9,0 -2,0.2 -0.8,1 1.9,1.3 3,1.3 3,0 z m 3.5,-10 c 1.9,-0.8 1.9,-0.9 -0.2,-0.9 -1.2,-0.1 -2.5,0.4 -2.8,0.9 -0.7,1.2 0.2,1.2 3,0 z m 41.1,-9 c 0.8,0 1.4,-1 1.4,-2.4 v -2.5 l -4.5,2.6 c -5.3,2.9 -5.7,3.8 -1.4,2.9 1.7,-0.3 3.8,-0.6 4.5,-0.6 z"
         id="path68" />
      <path
         d="m 400.3,576 c -1.3,-0.5 -2.3,-1.4 -2.3,-2 0,-0.5 -0.7,-1 -1.5,-1 -0.8,0 -1.5,-0.6 -1.5,-1.4 0,-0.8 -0.6,-1.6 -1.4,-1.9 -0.8,-0.3 -2.4,-3.2 -3.7,-6.4 -1.8,-4.8 -2.2,-7.8 -2.3,-17.8 -0.1,-12.8 1,-18.1 4.7,-23.6 2.1,-3.2 2.6,-3.4 7.7,-3.4 5.5,0 5.5,0 5.8,3.3 0.2,1.8 -0.2,4 -0.9,4.8 -0.6,0.8 -0.9,1.7 -0.5,2.1 0.3,0.3 0.6,0.1 0.6,-0.6 0,-0.8 1.3,-1.1 3.7,-0.9 2.9,0.2 3.9,0.8 4.2,2.3 0.2,1.1 0.8,2.3 1.4,2.7 0.6,0.4 1.3,3.9 1.5,7.7 0.4,6 0.2,7.1 -1.2,7.1 -0.9,0 -1.6,0.5 -1.6,1 0,0.6 -1.8,1 -4,1 -3.3,0 -4,-0.3 -4,-2 0,-1.5 -0.7,-2 -2.5,-2 -1.6,0 -2.5,-0.6 -2.5,-1.5 0,-0.9 -0.9,-1.5 -2.1,-1.5 -2,0 -2.1,-0.4 -1.6,-4.9 0.3,-2.7 1.7,-7.2 3.1,-10 3.2,-6.1 1.7,-8 -2.5,-3.3 -6.8,7.6 -8,27.8 -2.3,39 1.7,3.3 4.4,6.6 6.3,7.9 3.8,2.6 5.3,2.3 2.8,-0.5 -2.6,-2.9 -6.6,-12.5 -7.3,-17.5 -0.6,-4.3 -0.5,-4.7 1.3,-4.7 1.6,0 2.2,0.9 2.7,3.8 0.7,4.4 6.3,16.3 8.3,17.5 0.7,0.4 1.3,2.4 1.3,4.2 0,3.4 -0.1,3.5 -3.7,3.4 -2.1,0 -4.8,-0.4 -6,-0.9 z m 12.2,-33 c 1.3,-4 -3,-13 -6.2,-13 -2.3,0 -4.5,6.4 -3.2,9.7 1.5,4.1 2.9,5.3 6,5.3 1.9,0 3,-0.6 3.4,-2 z"
         id="path69" />
      <path
         d="m 379,572.8 c 0,-3 1.3,-5.8 2.6,-5.8 0.9,0 1.4,1.2 1.4,3.5 0,2.8 -0.4,3.5 -2,3.5 -1.1,0 -2,-0.6 -2,-1.2 z"
         id="path70" />
      <path
         d="m 497,570.3 c 0.1,-3.2 0.7,-4.3 3.8,-6.8 8.8,-6.9 11.5,-23 5.9,-35.1 -1.6,-3.4 -4.4,-7.7 -6.3,-9.5 -2.5,-2.4 -3.4,-4.1 -3.4,-6.6 V 509 h 5.3 c 6.7,0 11.2,2.4 15.8,8.5 4.3,5.5 6.9,12.9 6.9,19.1 0,5.7 -2.6,6.2 -3.5,0.7 -2,-12.5 -9.2,-22.1 -18.5,-24.8 -2.4,-0.7 -2.4,-0.6 0.7,2.6 7.1,7.6 10.9,19.3 10,30.7 -0.6,7.5 -5.2,17.8 -9.8,21.6 -3.7,3.2 -3.2,3.2 2.6,0.5 7.8,-3.7 13.3,-11.8 15,-22.1 0.9,-5.6 3.5,-5.1 3.5,0.7 0,5 -3.5,15.4 -5.5,16.1 -0.7,0.3 -1.5,1.4 -1.8,2.5 -0.3,1 -1.3,2.2 -2.4,2.6 -1,0.4 -2.2,1.2 -2.8,1.8 -1.5,1.8 -9.1,4.5 -12.5,4.5 -2.8,0 -3,-0.2 -3,-3.7 z"
         id="path71" />
      <path
         d="m 380,562.5 c 0,-0.8 -0.9,-2.4 -2,-3.5 l -2,-2 h 3.5 c 3.3,0 3.5,0.2 3.5,3.5 0,2.4 -0.5,3.5 -1.5,3.5 -0.8,0 -1.5,-0.7 -1.5,-1.5 z"
         id="path72" />
      <path
         d="m 372.3,552.9 c -1.8,-1.2 -3.3,-2.4 -3.3,-2.9 0,-0.4 -0.9,-1 -2.1,-1.3 -1.1,-0.3 -2.3,-1.5 -2.6,-2.6 -0.3,-1.2 -1.3,-2.1 -2.3,-2.1 -2.4,0 -5,-3.2 -5,-6.3 0,-3.3 -2.7,-3.7 -3.2,-0.5 -0.3,1.9 -1,1.4 -5,-3.7 -4.1,-5.1 -4.5,-6.1 -3,-6.7 0.9,-0.4 1.1,-0.7 0.5,-0.7 -0.7,-0.1 -1.3,-0.8 -1.3,-1.6 0,-0.8 -0.4,-1.5 -0.8,-1.5 -0.5,0 -1.7,-1.8 -2.7,-4 -1,-2.2 -2.4,-4 -3.2,-4 -2.4,0 -7.5,-13.7 -5.5,-14.9 1.4,-0.8 0.3,-6.1 -1.3,-6.1 -0.7,0 -1.5,-1 -1.9,-2.2 -0.9,-3.6 -0.7,-4.8 0.9,-4.8 0.8,0 1.5,-0.9 1.5,-2 0,-3.6 2.9,-2.2 3.5,1.8 4.1,25.4 17.7,47.1 38.3,61.4 l 4.3,3 -0.7,-7.1 c -0.6,-6.6 -0.5,-7.1 1.3,-7.1 1.7,0 2.1,0.9 2.6,6.8 1.1,11.3 1.1,11.2 -2.5,11.2 -1.8,0 -4.8,-1 -6.5,-2.1 z"
         id="path73" />
      <path
         d="m 479,542.5 c 0,-0.8 -0.6,-1.5 -1.4,-1.5 -2,0 -2.6,-2.3 -2.6,-9.1 0,-4.6 0.3,-5.9 1.5,-5.9 1,0 1.5,-1 1.5,-2.8 0,-1.5 0.5,-3.3 1.2,-4 1.2,-1.2 7.8,-1.7 7.8,-0.7 0,0.3 -1.6,1.9 -3.5,3.6 -4.8,4.2 -6.4,9.8 -4.2,14.4 1,2.1 2.6,3.7 4.2,4.1 3.9,1 3.2,3.4 -1,3.4 -2.4,0 -3.5,-0.5 -3.5,-1.5 z"
         id="path74" />
      <path
         d="m 492.4,534.5 c 2.4,-5.1 4.6,-5.9 4.6,-1.6 0,4.6 -1,6.1 -4,6.1 h -2.7 z"
         id="path75" />
      <path
         d="m 494,526.4 c 0,-0.8 -1.3,-2.9 -3,-4.6 -1.6,-1.6 -3,-3.1 -3,-3.4 0,-0.2 1.6,-0.4 3.5,-0.4 3.9,0 5.5,2 5.5,6.9 0,2.1 -0.5,3.1 -1.5,3.1 -0.8,0 -1.5,-0.7 -1.5,-1.6 z"
         id="path76" />
      <path
         d="m 648,525.2 c 0,-3.6 1.6,-5.2 5.2,-5.2 2.8,0 2.8,0.1 1.3,2.4 -0.9,1.4 -2.7,3.2 -4.1,4.1 -2.3,1.5 -2.4,1.5 -2.4,-1.3 z"
         id="path77" />
      <path
         d="m 377.3,520.8 c 0.4,-2.9 0.9,-6.9 1.2,-8.8 0.5,-3.2 0.1,-4.1 -5,-10 l -5.6,-6.5 2.8,-0.3 c 1.5,-0.2 3.1,-0.8 3.4,-1.4 0.3,-0.5 2.1,0.9 3.9,3.2 l 3.3,4.2 1.4,-2.6 c 1.9,-3.6 3.3,-3.2 3.3,0.9 0,3 -0.3,3.5 -2.4,3.5 -2.3,0 -2.4,0.2 -1.3,3 0.8,2.2 0.8,4.4 -0.1,8.8 -0.7,3.2 -1.2,7 -1.2,8.5 0,2.1 -0.5,2.7 -2.1,2.7 -2,0 -2.1,-0.4 -1.6,-5.2 z"
         id="path78" />
      <path
         d="m 657,518.3 c 0,-0.6 -1.3,-1.3 -3,-1.5 l -3,-0.3 5.5,-6.8 c 13.4,-16.7 24,-41 26,-59.7 1.3,-12.2 1.2,-12 5,-12 2.7,0 3.5,0.4 3.5,1.8 0,3.3 -1.2,6.2 -2.6,6.2 -0.8,0 -1.4,0.5 -1.4,1 0,0.6 0.7,1 1.6,1 1.3,0 1.5,0.7 0.9,3.8 -2,10.8 -2.7,13 -4.4,13.5 -1.9,0.5 -3.6,6 -2,6.5 1.4,0.5 1.1,2.6 -1.1,7.6 -1.1,2.6 -2.6,4.6 -3.5,4.6 -0.8,0 -1.5,0.5 -1.5,1 0,0.6 0.4,1 1,1 1.3,0 0.4,2.3 -3.9,9.7 -2.7,4.9 -3.9,6.2 -5.3,5.7 -1.2,-0.3 -1.8,0 -1.8,1 0,0.9 -0.4,1.6 -1,1.6 -0.5,0 -1,0.7 -1,1.5 0,0.8 0.5,1.5 1.1,1.5 1.1,0 -1.1,3.4 -6,9 -1.7,1.9 -3,3 -3.1,2.3 z"
         id="path79" />
      <path
         d="m 576.3,493.5 c -0.7,-0.8 -1.3,-2.6 -1.3,-4 v -2.6 l 3,2.1 c 3.3,2.4 4.1,6 1.3,6 -1,-0.1 -2.4,-0.7 -3,-1.5 z"
         id="path80" />
      <path
         d="m 357.1,486 c -12.9,-10.7 -20.4,-13.6 -21.7,-8.5 -0.9,3.6 -3.4,3.2 -3.4,-0.5 0,-1.6 -0.4,-3 -1,-3 -1.6,0 -1.2,-1.8 1,-4 2.3,-2.3 6,-2.7 6,-0.6 0,0.8 1.6,1.6 3.9,2 2.2,0.3 4.6,1.3 5.5,2.1 1.7,1.7 3.3,1.9 3.8,0.5 0.2,-0.5 2.7,0.9 5.7,3.2 4.7,3.6 5.2,4.3 3.5,4.9 -1.4,0.6 -1.5,0.8 -0.3,0.8 2.6,0.1 6.1,4.6 5.7,7.5 -0.3,2.5 -0.5,2.4 -8.7,-4.4 z"
         id="path81" />
      <path
         d="m 386.2,490.3 c 3.5,-7.4 4.8,-8.1 4.8,-2.8 0,3.1 -0.3,3.5 -2.6,3.5 -1.4,0 -2.4,-0.3 -2.2,-0.7 z"
         id="path82" />
      <path
         d="m 391,481.1 c 0,-0.6 1.1,-2.3 2.5,-3.8 l 2.4,-2.8 0.1,3.8 c 0,3.3 -0.3,3.7 -2.5,3.7 -1.4,0 -2.5,-0.4 -2.5,-0.9 z"
         id="path83" />
      <path
         d="m 567,474.7 c 0,-2.5 0.5,-3.7 1.4,-3.7 2.4,0 2.8,3.2 0.6,5.4 l -2,2 z"
         id="path84" />
      <path
         d="m 557,467.5 c 0,-2.4 0.1,-2.5 3.2,-1.2 4.6,1.9 4.8,3.7 0.4,3.7 -3.2,0 -3.6,-0.3 -3.6,-2.5 z"
         id="path85" />
      <path
         d="m 552,456 c 0,-2.2 2,-2.6 5.1,-1 3,1.6 2.3,3 -1.6,3 -2.8,0 -3.5,-0.4 -3.5,-2 z"
         id="path86" />
      <path
         d="m 536,450.5 c 0,-3.4 0.1,-3.5 3.8,-3.5 3.3,0.1 3.5,0.2 2,1.4 -2.2,1.6 -2.3,2.6 -0.3,2.6 0.8,0 1.5,0.7 1.5,1.5 0,1 -1.1,1.5 -3.5,1.5 -3.3,0 -3.5,-0.2 -3.5,-3.5 z"
         id="path87" />
      <path
         d="m 396.6,450.8 c -1,-3.8 -0.7,-4.8 1.4,-4.8 1.6,0 2,0.7 2,3.5 0,4 -2.4,4.9 -3.4,1.3 z"
         id="path88" />
      <path
         d="m 416,448.5 c 0,-3.9 0.3,-4.5 2.1,-4.5 1.7,0 2,0.5 1.7,2.5 -0.3,1.4 -0.1,2.5 0.3,2.5 0.5,0 0.9,-0.3 0.9,-0.7 0,-0.5 1.6,-2.6 3.5,-4.8 l 3.4,-4 0.1,3.8 c 0,2.6 -0.4,3.7 -1.5,3.7 -0.8,0 -1.5,0.7 -1.5,1.6 0,2.5 -2.6,4.4 -5.9,4.4 -3,0 -3.1,-0.1 -3.1,-4.5 z"
         id="path89" />
      <path
         d="m 536,444 c 0,-2.1 1,-2.4 4.8,-1.4 3.6,1 2.7,3.4 -1.3,3.4 -2.8,0 -3.5,-0.4 -3.5,-2 z"
         id="path90" />
      <path
         d="m 431,441 c 0,-3.2 0.9,-3.7 2.7,-1.9 0.9,0.9 1.8,0.4 3.7,-1.7 l 2.5,-2.9 0.1,3.3 c 0,4.2 -1.9,6.2 -5.9,6.2 -2.8,0 -3.1,-0.3 -3.1,-3 z"
         id="path91" />
      <path
         d="m 532,435.7 c 0,-4 1.2,-5.1 5,-4.5 2,0.3 2,0.5 -1.4,4.3 l -3.5,4 z"
         id="path92" />
      <path
         d="m 453,430.5 c 0,-2.4 -0.5,-3.5 -1.5,-3.5 -2.1,0 -1.9,-1.7 0.4,-2.9 2.9,-1.6 5.5,0.9 4.9,4.7 -0.2,1.8 -0.3,3.2 -0.1,3.2 0.2,0 2.1,-1.1 4.1,-2.5 2,-1.4 4,-2.5 4.4,-2.5 0.5,0 0.8,1.1 0.8,2.5 0,2.1 -0.5,2.5 -3,2.5 -1.6,0 -3,0.5 -3,1 0,0.6 -1.6,1 -3.5,1 -3.3,0 -3.5,-0.2 -3.5,-3.5 z"
         id="path93" />
      <path
         d="m 443.1,431.1 c 0.7,-1 2,-2.3 3,-3 1.7,-1 1.9,-0.8 1.9,1.9 0,2.7 -0.3,3 -3,3 -2.7,0 -2.9,-0.2 -1.9,-1.9 z"
         id="path94" />
      <path
         d="m 495,430.6 c 0,-1.3 2.8,-2.6 5.8,-2.6 0.6,0 1.2,0.9 1.2,2 0,1.6 -0.7,2 -3.5,2 -2.3,0 -3.5,-0.5 -3.5,-1.4 z"
         id="path95" />
      <path
         d="m 420,427.5 c 0,-2.8 0.4,-3.5 2,-3.5 2.1,0 2.4,1 1.4,4.8 -1,3.6 -3.4,2.7 -3.4,-1.3 z"
         id="path96" />
      <path
         d="m 467,427 c 0,-0.9 4.4,-3.2 11.8,-6.1 1.9,-0.7 2.2,-0.5 2.2,1.6 0,2.2 -0.4,2.5 -3.5,2.5 -2.4,0 -3.5,0.5 -3.5,1.5 0,1 -1.1,1.5 -3.5,1.5 -1.9,0 -3.5,-0.5 -3.5,-1 z"
         id="path97" />
      <path
         d="m 489,423.5 c 0,-2.8 0.4,-3.5 2,-3.5 2.3,0 2.6,2.6 0.6,5.3 -2,2.5 -2.6,2.1 -2.6,-1.8 z"
         id="path98" />
      <path
         d="m 397,423.8 c 0,-3 1.3,-5.8 2.6,-5.8 0.9,0 1.4,1.2 1.4,3.5 0,2.8 -0.4,3.5 -2,3.5 -1.1,0 -2,-0.6 -2,-1.2 z"
         id="path99" />
      <path
         d="m 549,417.9 c 0,-4.6 3.5,-8.2 7.6,-7.7 l 2.8,0.3 -5.2,5.5 -5.1,5.5 z"
         id="path100" />
      <path
         d="m 400,411.8 c 0,-3 1.3,-5.8 2.6,-5.8 0.9,0 1.4,1.2 1.4,3.5 0,2.8 -0.4,3.5 -2,3.5 -1.1,0 -2,-0.6 -2,-1.2 z"
         id="path101" />
      <path
         d="m 426,409.6 c 0,-3.2 0.3,-3.6 2.5,-3.6 2.4,0 2.5,0.1 1.2,3.2 -1.9,4.6 -3.7,4.8 -3.7,0.4 z"
         id="path102" />
      <path
         d="m 391,403.2 -2.4,-1.9 2.1,-6.4 c 4.9,-14.7 8.3,-19.8 8.3,-12.4 0,1.9 -0.4,3.5 -1,3.5 -0.5,0 -1,1.1 -1,2.5 0,1.4 -0.4,2.5 -0.9,2.5 -0.4,0 -1.1,1.5 -1.4,3.3 -0.3,1.7 -0.8,3.9 -1.2,4.8 -0.5,1.3 0,1.5 2.5,1.1 1.7,-0.2 3,-1 3,-1.8 0,-0.9 1.2,-1.4 3.5,-1.4 3.3,0 3.5,0.2 3.5,3.5 0,2.8 -0.4,3.5 -2,3.5 -1.3,0 -1.8,-0.5 -1.4,-1.5 0.8,-1.9 -0.5,-1.9 -3.1,-0.1 -3.7,2.5 -6.1,2.7 -8.5,0.8 z"
         id="path103" />
      <path
         d="m 429,401.6 c 0,-2 0.5,-3.6 1,-3.6 0.6,0 1,-1 1,-2.2 0,-3.3 1.4,-5 3.8,-4.6 2,0.3 2,0.4 -0.7,6.7 -3.2,7.6 -5.1,8.9 -5.1,3.7 z"
         id="path104" />
      <path
         d="m 564,402.2 c 0,-3.9 3.7,-7.2 8,-7.2 h 3.4 l -3,3.1 c -1.6,1.7 -4.1,4 -5.6,5.1 l -2.8,1.9 z"
         id="path105" />
      <path
         d="m 513,400.8 c 0,-3 1.3,-5.8 2.6,-5.8 0.9,0 1.4,1.2 1.4,3.5 0,2.8 -0.4,3.5 -2,3.5 -1.1,0 -2,-0.6 -2,-1.2 z"
         id="path106" />
      <path
         d="m 517,386.5 c 0,-2.3 3.9,-10.1 6.1,-12.1 1.8,-1.7 1.9,-1.6 1.9,1.9 0,2.1 -0.4,3.7 -1,3.7 -0.5,0 -1,0.7 -1,1.5 0,0.8 -0.4,1.5 -1,1.5 -0.5,0 -1,1.1 -1,2.5 0,1.8 -0.5,2.5 -2,2.5 -1.1,0 -2,-0.7 -2,-1.5 z"
         id="path107" />
      <path
         d="m 584.3,379.5 c -1.9,-2.1 -1.6,-4.5 0.5,-4.5 2.3,0 4.2,1.9 4.2,4.2 0,2.2 -3,2.3 -4.7,0.3 z"
         id="path108" />
      <path
         d="m 565,374.5 c 0,-3.2 0.2,-3.5 2.9,-3.5 2.6,0 3,-0.4 3.3,-3.2 0.3,-3.1 0.6,-3.3 4.3,-3.6 l 4,-0.2 -5.3,4.7 c -5.5,5 -6.2,6.3 -3.7,6.3 0.8,0 1.5,0.7 1.5,1.5 0,1 -1.1,1.5 -3.5,1.5 -3.3,0 -3.5,-0.2 -3.5,-3.5 z"
         id="path109" />
      <path
         d="m 399.1,374.3 c 2,-5.2 9.1,-18.3 10,-18.3 2,0 0.7,6.4 -2.8,13.5 -3,6 -4.2,7.5 -6,7.5 -2,0 -2.2,-0.3 -1.2,-2.7 z"
         id="path110" />
      <path
         d="m 441.3,370.8 c 0.2,-2.4 0.8,-5.2 1.3,-6.2 0.6,-1.6 0.4,-1.8 -1.2,-1.1 -1,0.4 -3.1,1 -4.6,1.3 -1.6,0.2 -2.8,1.1 -2.8,1.8 0,0.9 -1.2,1.4 -3.5,1.4 H 427 v -5 c 0,-4.4 0.2,-5 2.1,-5 1.9,0 2.1,0.4 1.6,3 -0.4,1.7 -0.5,3 -0.3,3 0.2,0 3,-1.4 6.2,-3.1 5.7,-3 5.9,-3 6.2,-1 0.2,1.3 1.1,2.1 2.4,2.1 1.7,0 2,0.4 1.5,2.9 -1.8,9 -6.4,13.9 -5.4,5.9 z"
         id="path111" />
      <path
         d="m 541,356.9 c 2.5,-2.2 5.7,-4.9 7.3,-6 l 2.7,-2 v 3 c 0,2.8 -0.3,3.1 -2.9,3.1 -2.5,0 -3,0.4 -3.3,2.8 -0.3,2.4 -0.8,2.7 -4.3,3 l -4,0.2 z"
         id="path112" />
      <path
         d="m 583.2,356.9 c 0.3,-3.2 0.6,-3.4 4.2,-3.7 3.6,-0.3 3.8,-0.2 2.6,1.3 -0.7,0.9 -2.6,2.5 -4.2,3.7 l -2.9,2 z"
         id="path113" />
      <path
         d="m 429,353.6 c 0,-1.4 0.5,-4.7 1.2,-7.5 0.9,-3.8 1.6,-5.1 3,-5.1 2.2,0 2.2,0.4 0.2,8.5 -1,4.1 -2.2,6.5 -3,6.5 -0.8,0 -1.4,-1 -1.4,-2.4 z"
         id="path114" />
      <path
         d="m 411,351.4 c 0,-1.2 3.4,-6.4 4.2,-6.4 0.4,0 0.8,1.6 0.8,3.5 0,3.1 -0.3,3.5 -2.5,3.5 -1.4,0 -2.5,-0.3 -2.5,-0.6 z"
         id="path115" />
      <path
         d="m 595,346.2 c 0,-2.9 2.6,-6.2 4.8,-6.2 0.7,0 1.2,-0.7 1.2,-1.5 0,-0.8 0.5,-1.5 1,-1.5 0.6,0 1,-0.7 1,-1.5 0,-1 -1,-1.5 -3,-1.5 -2.4,0 -3,-0.4 -3,-2.1 0,-1.9 0.4,-2.1 3.2,-1.5 4.4,0.9 7.2,3.8 6.3,6.5 -0.8,2.7 -4.9,7.5 -8.6,10.2 l -2.9,2 z"
         id="path116" />
      <path
         d="m 553.9,345.6 2.3,-2.4 -5.1,-0.7 c -2.9,-0.4 -5.8,-1.4 -6.6,-2.2 -2.1,-2 -1.9,-5.7 0.5,-7.8 2,-1.8 2,-1.7 2,0.8 0,4.5 1,5.7 4.6,5.7 1.9,0 3.4,0.5 3.4,1 0,0.6 0.9,1 2,1 1.6,0 2,0.7 2,3.5 0,3.4 -0.1,3.5 -3.7,3.5 h -3.6 z"
         id="path117" />
      <path
         d="m 420.4,335.4 c 0.8,-2 9.5,-14.2 10.7,-15 0.5,-0.3 0.9,1.1 0.9,3 0,3.2 -0.3,3.6 -2.5,3.6 -2.2,0 -2.5,0.4 -2.5,3.5 0,1.9 -0.4,3.5 -1,3.5 -0.5,0 -1,0.7 -1,1.5 0,0.9 -1,1.5 -2.6,1.5 -2,0 -2.5,-0.4 -2,-1.6 z"
         id="path118" />
      <path
         d="m 434.6,325.4 c -0.7,-6.3 -0.6,-6.7 1.7,-5.8 2.2,0.8 3,3.8 2.2,8 -1,5.4 -3.1,4.2 -3.9,-2.2 z"
         id="path119" />
      <path
         d="m 552,328.2 c 0,-0.8 5.2,-4.2 6.4,-4.2 0.3,0 0.6,1.1 0.6,2.5 0,2.2 -0.4,2.5 -3.5,2.5 -1.9,0 -3.5,-0.4 -3.5,-0.8 z"
         id="path120" />
      <path
         d="m 600.2,320.9 c 0.3,-3.2 0.6,-3.4 4.2,-3.7 3.6,-0.3 3.8,-0.2 2.6,1.3 -0.7,0.9 -2.6,2.5 -4.2,3.7 l -2.9,2 z"
         id="path121" />
      <path
         d="m 565,320.2 c 0,-0.7 27.1,-17.2 28.4,-17.2 0.3,0 0.6,1.1 0.6,2.5 0,2.2 -0.4,2.5 -3.5,2.5 -2.8,0 -3.5,0.4 -3.5,2 0,1.5 -0.7,2 -2.5,2 -1.6,0 -2.5,0.6 -2.5,1.5 0,0.9 -0.9,1.5 -2.5,1.5 -1.6,0 -2.5,0.6 -2.5,1.5 0,0.9 -0.9,1.5 -2.5,1.5 -1.6,0 -2.5,0.6 -2.5,1.5 0,1 -1.1,1.5 -3.5,1.5 -1.9,0 -3.5,-0.4 -3.5,-0.8 z"
         id="path122" />
      <path
         d="m 610.2,311.9 c 0.3,-3.2 0.6,-3.4 4.2,-3.7 3.6,-0.3 3.8,-0.2 2.6,1.3 -0.7,0.9 -2.6,2.5 -4.2,3.7 l -2.9,2 z"
         id="path123" />
      <path
         d="m 598,301.2 c 0,-0.8 5.2,-4.2 6.4,-4.2 0.3,0 0.6,1.1 0.6,2.5 0,2.2 -0.4,2.5 -3.5,2.5 -1.9,0 -3.5,-0.4 -3.5,-0.8 z"
         id="path124" />
      <path
         d="m 626.2,296.8 c 0.2,-2.3 1,-3.6 2.6,-4.3 1.5,-0.7 2.2,-1.8 2.2,-3.7 0,-3.3 1.5,-3.6 3,-0.8 1.3,2.5 -1.5,7.8 -5.6,10.5 l -2.5,1.6 z"
         id="path125" />
      <path
         d="m 618.2,290.8 c 0.3,-0.7 1.9,-1.8 3.6,-2.5 3.1,-1.3 3.2,-1.2 3.2,1.2 0,2.2 -0.4,2.5 -3.6,2.5 -2.3,0 -3.4,-0.4 -3.2,-1.2 z"
         id="path126" />
    </g>
    <g
       fill="#f0737d"
       id="g127">
      <path
         d="m 442.7,609.9 c -5.7,-4.4 -5.9,-14.3 -0.5,-20.4 l 3,-3.5 h 8.9 8.9 v 7.9 c 0,8.7 -1,12.4 -4.2,15.9 -3,3.1 -12.3,3.2 -16.1,0.1 z"
         id="path127" />
    </g>
    <g
       fill="#fecb03"
       id="g137">
      <path
         d="m 572,698.8 c 0,-3.2 0.3,-3.6 4.3,-4.8 2.3,-0.7 5.9,-2.1 7.9,-3.1 2.1,-1.1 5.1,-1.9 6.7,-1.9 2.8,0 3,0.2 3.6,5.5 0.4,3.1 0.5,5.9 0.1,6.2 -0.3,0.4 -5.6,0.9 -11.6,1.1 l -11,0.5 z"
         id="path128" />
      <path
         d="m 599,693.6 c 0,-3.7 1.2,-4.6 6.1,-4.6 2.6,0 2.9,0.3 2.9,3.4 0,3.7 -1.2,4.6 -6.1,4.6 -2.6,0 -2.9,-0.3 -2.9,-3.4 z"
         id="path129" />
      <path
         d="m 492.8,679.9 c -2.1,-1.1 -3.8,-2.2 -3.8,-2.4 0,-0.3 1.7,0.3 3.8,1.3 2,1.1 4.4,2.2 5.2,2.5 1.3,0.5 1.3,0.5 0,0.6 -0.8,0 -3.2,-0.9 -5.2,-2 z"
         id="path130" />
      <path
         d="m 501,680.6 c 0,-0.8 1.7,3.7 0.5,3.4 -4.4,-1.4 -25.9,-14.5 -32.5,-21.1 -7.3,-7.3 -22.5,-25.1 -27,-33.9 -1.5,-2.8 7.3,-2.1 6.7,-2.4 -0.7,-0.2 0.4,-0.5 2.3,-0.5 3.3,-0.1 3.7,0.2 7,6.7 1.9,3.7 2.85425,8.36161 3.15425,8.66161 C 462.25425,642.36161 472,652 472,652.4 c 0,0.6 6,6.6 6.6,6.6 0.5,0 11.5,8.9 12.4,9.9 0.3,0.3 3.3,2 6.7,3.6 5.7,2.8 6.2,3.3 6.2,6.3 0.1,2.2 -0.4,3.2 -1.4,3.2 -0.8,0 -1.5,-0.6 -1.5,-1.4 z"
         id="path131"
         sodipodi:nodetypes="scscccccsscccss" />
      <path
         d="m 575.2,674.1 c -2.4,-0.9 -6.5,-3.4 -9.2,-5.6 -3.9,-3.2 -4.9,-4.6 -4.9,-7 0,-2.6 1,-3.7 7,-8 12.4,-8.8 22.4,-22.3 27.6,-37.2 2.5,-7.1 2.8,-8.9 2.6,-21 L 598.1,582 h 3.2 c 5.1,0 11.8,5.8 16.5,14.2 1.9,3.5 2.2,5.6 2.2,14.8 0,13.2 -2.4,23.3 -8.1,34.7 -7.2,14.5 -22.9,30.4 -29.5,30.2 -1.6,-0.1 -4.8,-0.8 -7.2,-1.8 z"
         id="path132" />
      <path
         d="m 623.2,666 c 0.2,-2.2 0,-4 -0.4,-4 -1.6,0 -0.7,-6 1.7,-11.2 1.4,-2.9 2.5,-6.1 2.5,-7 0,-1.4 0.8,-1.8 3.5,-1.8 3.4,0 3.5,0.1 3.6,4.3 0.1,2.3 0.3,3.4 0.6,2.5 0.7,-2.8 5.8,-2.3 9.9,1 2.7,2.2 3.4,3.4 3.4,6.2 0,4.9 -8,13 -12.8,13 -2.6,0 -3.2,-0.4 -3.3,-2.2 -0.1,-2.1 -0.2,-2 -1.1,0.5 -0.8,2.2 -1.6,2.7 -4.5,2.7 -3.5,0 -3.5,0 -3.1,-4 z"
         id="path133" />
      <path
         d="m 549.5,646.8 c -0.2,-0.7 -0.6,-3 -1,-5 -0.7,-4.5 -4.3,-9.1 -8.5,-10.8 -2.6,-1.1 -3.7,-1 -8.1,0.9 -2.9,1.1 -6.6,2.1 -8.4,2.1 -2.8,0 -3.3,-0.4 -3.9,-3.1 -1.5,-7.8 -1.1,-8.6 5.9,-11.8 21.3,-9.7 41,-31 39.7,-43 l -0.4,-4.4 5.3,0.6 c 6.4,0.8 8.3,2.5 10.9,9.9 1.5,4.3 2,8.3 2,16.1 0,17.5 -4.5,28.1 -17.6,41.5 -7.2,7.3 -8.5,8.2 -11.8,8.2 -2.1,0 -3.8,-0.5 -4.1,-1.2 z"
         id="path134" />
      <path
         d="m 445.5,623.1 c -0.6,-0.5 -5.5,-2.1 -11,-3.6 -12.6,-3.3 -24.5,-9 -32.7,-15.5 -11.1,-9 -16.4,-12.4 -18,-24.5 -0.5,-3.7 -0.2,-12.7 -0.7,-16 -1.4,-8.9 -1.3,-11.5 0.3,-11.5 0.8,0 1.7,0.8 1.9,1.8 0.4,1.6 -2.4,-3.38185 -2.3,-4.98185 0.2,-2.9 6,2.78185 6,5.68185 0,1.4 0.3,2.5 0.8,2.5 0.4,0 1.5,1.9 2.5,4.3 2.3,5.8 6.9,11.1 11.2,13.1 3.4,1.6 3.7,1.6 6.7,-0.1 4.6,-2.7 7.8,-9.4 7.8,-16.3 0,-15.4 -11.4,-40 -18.5,-40 -3.3,0 -10.5,13.3 -10.5,19.5 0,1.8 -3.69544,9.61061 -5.09544,9.61061 -6.5,0 -0.80456,-39.11061 9.89544,-62.41061 4.7,-10.1 2.9,-8 -2.8,2.8 -6.5,12.5 -13,34.4 -12.1,46.5 0.2,3.5 5.80456,13.11061 5.00456,13.11061 -2.9,0 -5.60456,-32.96061 -1.30456,-46.56061 1.7,-5.3 8.7,-10.45 11.2,-15.85 l 4.5,-9.7 h 3.9 c 3.3,0 3.8,-0.3 3.4,-1.7 -4,-13.9 -6.1,-29.9 -5.1,-41.2 0.9,-11.6 2.1,-17.4 5.9,-29.5 l 3.3,-10.4 -3.1,1.9 c -1.7,1 -4.8,1.9 -6.8,1.9 -3.5,0 -3.8,-0.2 -3.8,-3 0,-5.1 14.8,-36.4 25.1,-52.8 4,-6.4 4.7,-7.1 7.7,-7.2 2.9,0 3.2,0.3 3.2,2.9 0,1.6 -1.3,8.7 -2.9,15.7 -1.6,7.1 -3.2,14.6 -3.5,16.7 l -0.7,3.9 4.4,-2.6 c 2.4,-1.4 5.8,-2.6 7.5,-2.6 2.9,0 3.2,0.3 3.2,3 0,1.6 -2.1,8.2 -4.6,14.5 -4.3,10.8 -4.8,11.5 -7.4,11.5 -1.6,0 -3,0.7 -3.4,1.6 -0.9,2.2 -0.8,2.4 0.9,2.4 2.5,0 1.8,4.1 -3.5,19.9 -2.8,8.2 -5,15.7 -5,16.5 0,1 -0.9,1.6 -2.5,1.6 -2.2,0 -2.5,0.4 -2.5,3.5 0,2.4 0.5,3.5 1.5,3.5 1.3,0 1.4,1.6 1.1,10.3 -0.3,5.6 -0.2,8.9 0.1,7.2 0.2,-1.6 1.7,-4.4 3.1,-6.1 1.5,-1.7 4,-4.8 5.5,-6.8 2.3,-2.9 3.4,-3.6 6.2,-3.6 2.1,0 3.5,0.5 3.5,1.2 0,0.7 0.7,0.1 1.7,-1.2 0.9,-1.4 3.4,-4.9 5.6,-7.7 3.6,-4.8 4.3,-5.3 7.8,-5.3 3.5,0 3.9,0.2 3.9,2.6 v 2.6 l 3.3,-2.2 c 7.7,-5.1 23.1,-12 26.9,-12 3.6,0 3.8,0.2 3.8,3 0,1.7 -0.7,4.1 -1.5,5.3 l -1.5,2.3 7.3,-1.2 c 3.9,-0.7 9.3,-1.3 11.8,-1.4 h 4.7 l 0.7,6.8 c 0.4,4 0.2,7.8 -0.4,9.5 -1.5,3.8 -1.5,3.7 1.8,3.7 2.8,0 3,0.2 3.3,4.8 l 0.3,4.7 2.4,-4.2 c 1.4,-2.4 2.8,-4.3 3.3,-4.3 0.4,0 0.8,-0.7 0.8,-1.5 0,-0.8 0.4,-1.5 0.9,-1.5 0.5,0 1.1,-0.9 1.4,-2 0.4,-1.7 1.4,-2 5.6,-2 h 5.1 v 3.4 3.4 l 9.5,1.7 9.5,1.7 v 3.2 c 0,1.8 -0.5,3.7 -1.1,4.3 -0.7,0.7 0.8,1.8 5.3,3.6 5.8,2.3 6.3,2.8 6.6,5.7 0.2,1.8 -0.1,3.6 -0.7,3.9 -0.6,0.4 2,3.2 5.9,6.4 6.2,5.1 7,6.1 7,9.2 0,2.7 -0.4,3.5 -1.8,3.5 -2.5,0 -3.4,1.1 -2.2,2.5 3.2,3.8 9,16.2 9,19.1 0,3.3 -0.1,3.4 -3.9,3.4 -3.4,0 -3.9,-0.3 -4.4,-2.7 -0.3,-1.6 -1.3,-3.7 -2.1,-4.8 -1.4,-1.8 -1.5,-1.3 -1.6,7.2 -0.1,29 -16,57.7 -41.8,75.2 -16.6,11.3 -42.7,20.5 -63.4,22.6 -6.3,0.6 -6.8,0.8 -6.8,3.1 0,2.2 -0.4,2.4 -4.3,2.4 -2.4,0 -4.7,-0.4 -5.2,-0.9 z m 0,0 c -0.6,-0.5 -5.5,-2.1 -11,-3.6 -12.6,-3.3 -28.8,-11 -37,-17.5 -11.1,-9 -12.95431,-19.10081 -11.5,-30.3 -0.8,-9.2 -2.44098,-8.28852 -2.54098,0.21148 0,11.4 5.14098,16.88852 14.94098,26.58852 4.6,9.5 10.9,12.2 18.6,16 10.4,5.1 22.6,5.8 30.5,6.4 1.1,0 -1.5,2.7 -2,2.2 z M 455.8,607 c 4.1,-4 5.8,-9.6 5.4,-17.2 -0.2,-2.8 -0.2,-2.8 -7.5,-2.8 -3.9,0 -8.6,-0.4 -10.3,-0.9 -2.5,-0.7 -3.8,-0.5 -6.3,1.1 -1.7,1.1 -3.1,2.2 -3.1,2.4 0,1.2 4.6,9.3 7.4,13 3.3,4.5 7.1,7.3 9.8,7.4 0.9,0 3,-1.3 4.6,-3 z m 45.8,-35.5 c 11.4,-3.4 19.7,-12.1 23,-24.3 1.5,-5.5 1.6,-7.1 0.5,-12.5 -3,-14.8 -14.5,-27 -25.2,-26.9 -11.3,0.2 -24.2,13.6 -27.9,29.1 -3.6,15.3 5.5,31.8 19.5,35.2 4.4,1 4.7,1 10.1,-0.6 z M 415.7,471.3 c -0.2,-1.6 -0.4,-0.5 -0.4,2.2 0,2.8 0.2,4 0.4,2.8 0.2,-1.3 0.2,-3.5 0,-5 z m 88.8,0.7 c 0.3,-0.5 -0.3,-1 -1.4,-1 -1.5,0 -2.1,-0.7 -2.2,-2.2 -0.1,-1.8 -0.2,-1.9 -0.6,-0.5 -0.9,3.6 2.4,6.6 4.2,3.7 z"
         id="path135"
         sodipodi:nodetypes="cccccsccsscccsssscccscccscccccssccsccccsscscscssssccccssccssccsscccccccscccssscscccccssccccsscsscccccssccccccccccccsccscccccccccccscccsccc" />
      <path
         d="m 574,531.5 c 0,-3.3 0.2,-3.5 3.5,-3.5 3.3,0 3.5,0.2 3.5,3.5 0,3.3 -0.2,3.5 -3.5,3.5 -3.3,0 -3.5,-0.2 -3.5,-3.5 z"
         id="path136" />
      <path
         d="m 511,439.5 c 0,-2.3 2.6,-8.9 7.5,-19.3 4.2,-8.6 7,-15.1 6.3,-14.4 -0.6,0.6 -2.7,1.2 -4.6,1.2 h -3.5 l 0.6,-5.2 c 0.3,-2.9 1.8,-9.1 3.3,-13.8 2.6,-7.8 3.4,-9.1 10.7,-16.7 4.4,-4.5 13.5,-13.1 20.3,-19 6.8,-5.9 12.4,-11 12.4,-11.4 0,-0.3 -2.4,-1 -5.2,-1.5 l -5.3,-0.9 v -3.8 -3.9 l 14,-8.5 c 24.7,-15.1 43.7,-25.3 47.3,-25.3 3,0 3.2,0.2 3.2,3.3 0,3 -1.5,4.7 -15.5,17.6 -8.5,7.9 -15.2,14.7 -14.9,15.2 0.3,0.5 1.7,0.9 3.2,0.9 5.7,0 7.2,1 7.2,4.6 0,4 -4.2,8.4 -8,8.4 -2.8,0.1 -25.8,19.2 -30.5,25.4 -4.4,5.8 -3.3,6.6 9.5,6.6 h 11 v 3.4 c 0,2.7 -1,4.2 -5.4,8.5 -4.6,4.2 -6.1,5.1 -9.2,5.1 -3.5,0 -4.9,1.2 -24.5,20.6 -11.4,11.4 -21.3,22 -22,23.5 -0.9,2.4 -1.7,2.9 -4.5,2.9 -3.2,0 -3.4,-0.2 -3.4,-3.5 z"
         id="path137" />
    </g>
    <g
       fill="#e1a204"
       id="g159">
      <path
         d="m 570.2,699.5 c 0.3,-3.5 0.6,-3.7 8.7,-7 12.7,-5.2 18.6,-9.1 28.2,-18.5 9.5,-9.4 15.5,-18.7 19,-29.2 2.1,-6.6 2.3,-6.8 5.5,-6.8 3.4,0 3.4,0.1 3.4,4.5 0,4.3 0.1,4.5 3,4.5 1.7,0 3,0.4 3,0.9 0,0.5 1,1.1 2.3,1.3 1.4,0.2 2.3,1.1 2.5,2.6 0.2,1.2 0.8,2.2 1.3,2.2 0.5,0 0.9,1.5 0.9,3.3 0,5 -6.3,10.8 -12.5,11.4 -4.5,0.6 -4.7,0.7 -7.7,6.7 -4,7.9 -13.6,17.5 -21.7,21.5 -7.4,3.8 -18.3,6.1 -28.7,6.1 h -7.5 z m 14.5,-1.2 c -1.5,-0.2 -2.5,-0.9 -2.2,-1.4 0.8,-1.2 -0.2,-1.1 -4.5,0.6 -3.5,1.3 -3.5,1.3 3,1.3 3.6,-0.1 5.3,-0.3 3.7,-0.5 z M 642,653.1 c -1.9,-1.6 -3.6,-2.8 -3.8,-2.7 -0.1,0.2 -0.7,2.9 -1.3,6.2 -0.5,3.2 -1.3,6.8 -1.6,7.9 -0.3,1.3 1.4,0.2 4.8,-3.2 l 5.4,-5.3 z m -13.1,6.9 c 0,-0.9 -0.4,-0.8 -0.9,0.5 -0.5,1.1 -0.9,2.7 -0.9,3.5 0,0.9 0.4,0.8 0.9,-0.5 0.5,-1.1 0.9,-2.7 0.9,-3.5 z m 2,-11.2 c -0.1,-4 -0.1,-4.1 -0.9,-1.5 -0.8,2.6 -0.4,5.7 0.6,5.7 0.2,0 0.4,-1.9 0.3,-4.2 z"
         id="path138" />
      <path
         d="m 535,691.1 c 0,-1.7 1.7,-6.4 3.8,-10.4 2.1,-4 4.5,-9 5.3,-11.2 1.4,-3.6 2.4,-4.3 9.4,-7.4 4.3,-1.9 8.9,-4.5 10.3,-5.8 1.4,-1.3 3.1,-2.3 3.7,-2.3 0.7,0 1.5,-0.7 1.9,-1.5 0.3,-0.8 1.5,-1.5 2.6,-1.5 1.1,0 2,-0.6 2,-1.3 0,-1.9 5.3,-6.7 7.3,-6.7 1.2,0 1.7,-0.8 1.7,-2.5 0,-1.4 0.7,-2.8 1.5,-3.1 0.8,-0.4 1.5,-1.2 1.5,-2 0,-0.8 0.4,-1.4 0.9,-1.4 0.5,0 1.2,-1.1 1.5,-2.4 0.3,-1.4 1.2,-3.1 1.9,-3.8 2,-2 6.5,-15 7.3,-20.7 0.5,-4.2 1,-5.1 2.7,-5.1 1.8,0 1.9,0.4 1.3,5.3 -2.4,18 -13.8,36.6 -29.6,48.6 l -7.6,5.7 4.7,3.9 c 2.6,2.2 6.7,4.7 9.1,5.6 l 4.3,1.6 4.8,-3.5 4.7,-3.4 v 3.1 c 0,2 -0.6,3.4 -1.6,3.8 -0.9,0.3 -2.6,1.5 -3.9,2.7 -7.9,7.3 -32.2,17.3 -44.7,18.3 l -6.8,0.6 z"
         id="path139" />
      <path
         d="m 498,682.5 c 0,-0.9 0.6,-1.2 1.5,-0.9 1,0.4 1.5,0 1.4,-1.2 0,-1.3 -1.9,-2.8 -5.7,-4.7 -13.9,-6.8 -31.5,-24.5 -40.7,-41 -2.9,-5.1 -4.7,-7.3 -6.3,-7.5 -2.5,-0.4 -2.6,-0.3 -1.2,3.2 0.9,2.4 0.7,2.6 -1.5,2.6 -2.2,0 -2.5,-0.4 -2.5,-3.5 0,-2.8 0.4,-3.5 2,-3.5 1.1,0 2,-0.4 2,-1 0,-0.5 -1.3,-1 -3,-1 -2.3,0 -3,-0.4 -3,-2 0,-1.9 0.5,-2 5.8,-1.5 l 5.7,0.6 -4.4,-2.4 -4.4,-2.4 10.9,-0.6 c 22.5,-1.4 49.4,-10.5 67.6,-22.8 26.4,-18 43,-48.6 41.6,-76.6 -0.3,-5.1 -0.4,-9.3 -0.3,-9.3 0.1,0 2.1,0.7 4.4,1.5 4.1,1.4 4.1,1.4 3,-0.8 -0.7,-1.2 -2.5,-4.1 -4.1,-6.5 -3.4,-5 -3.1,-7 1.2,-7.8 2.4,-0.5 2.8,-0.9 1.9,-2 -0.9,-1.1 -0.8,-1.4 0.5,-1.4 1.2,0 1.6,0.9 1.6,3.5 0,1.9 -0.4,3.5 -1,3.5 -0.9,0 0.8,4.9 2.1,6 0.3,0.3 1.8,2.6 3.2,5.1 2.7,4.6 3.5,10.3 1.7,11.4 -0.6,0.4 -0.2,2.1 1,4.5 1.1,2.2 2,5.7 2,8 0,3.3 -0.3,4 -2,4 -1.9,0 -2,0.4 -1.4,8.5 l 0.7,8.5 h -2.6 c -2.2,0 -2.7,0.6 -3.6,5 -0.6,2.8 -2,6.8 -3.1,9 -1.1,2.2 -2,4.2 -2,4.5 0,0.3 1.8,0.5 3.9,0.5 2.2,0 4.8,0.7 5.9,1.8 5.2,4.3 8.6,22.5 6.4,34.2 -1.3,6.8 -4.9,16.5 -6.8,18.4 -0.8,0.8 -1.4,1.9 -1.4,2.5 0,0.6 -0.4,1.1 -0.9,1.1 -0.5,0 -1.1,0.9 -1.4,2 -0.3,1.2 -1.4,2 -2.6,2 -1.5,0 -2.1,0.6 -2.1,2.3 0,2.9 -3.9,6.7 -6.8,6.7 -1.5,0 -2.2,0.6 -2.2,2 0,2.3 -2.8,4 -6.8,4 -2.8,0 -3,-0.3 -3.6,-5.2 -0.6,-4.2 -1.4,-5.9 -4.7,-9.1 -4.1,-4.1 -4,-4.1 -13.4,-2.2 -3.9,0.8 -9.2,8 -15,20 -5.1,10.7 -10.5,25.7 -10.5,29.1 0,2.1 -0.5,2.4 -3.5,2.4 -2.4,0 -3.5,-0.5 -3.5,-1.5 z m 66.4,-47.6 c 10.5,-11.3 15.6,-23.3 15.6,-36.5 0,-10.8 -4.5,-22.4 -8.7,-22.4 -0.7,0 -1.3,1 -1.3,2.3 0,1.2 -1.5,5.5 -3.4,9.4 -6.1,12.6 -22.2,27.1 -38.1,34.4 -6.2,2.8 -6.5,3.1 -5.9,5.7 0.4,1.5 0.8,2.8 0.9,3 0.1,0.1 2.3,-0.7 4.9,-1.8 11.1,-4.7 21.5,-0.3 23.2,9.9 1,6.3 1.1,6.4 4.3,4.2 1.5,-1.1 5.4,-4.8 8.5,-8.2 z"
         id="path140" />
      <path
         d="m 483,676.5 c 0,-3 0.3,-3 4.1,-0.8 3.8,2.3 3.7,3.3 -0.6,3.3 -3.1,0 -3.5,-0.3 -3.5,-2.5 z"
         id="path141" />
      <path
         d="m 469,665.9 v -3 l 3,2.1 c 4.4,3.1 4.5,4 0.6,4 -3.3,0 -3.6,-0.2 -3.6,-3.1 z"
         id="path142" />
      <path
         d="M 598.4,658.8 C 610.3,644.2 617,627 617,611 c 0,-6.1 -0.5,-8.5 -2.2,-11.8 -2.7,-4.9 -7.5,-10.3 -11.3,-12.8 l -2.7,-1.8 0.7,5.7 c 0.7,5.3 0.6,5.7 -1.2,5.7 -1.6,0 -2.2,-0.9 -2.7,-4.6 -1.2,-9.2 -1.1,-9.4 3.8,-9.4 3.7,0 5.1,0.6 8.5,3.7 2.3,2 4.1,4.5 4.1,5.5 0,1 0.7,1.8 1.5,1.8 0.8,0 1.5,0.5 1.5,1.1 0,0.6 0.6,1.7 1.4,2.5 2,2 3,10.9 2.2,20.2 -0.8,8.2 -4.3,22.2 -5.7,22.2 -0.5,0 -0.9,1 -0.9,2.1 0,2.4 -4.9,11.9 -6.2,11.9 -0.4,0 -0.8,0.7 -0.8,1.5 0,0.8 -0.7,1.5 -1.5,1.5 -0.8,0 -1.5,0.8 -1.5,1.8 0,2.6 -2,4.2 -5.3,4.2 h -3 z"
         id="path143" />
      <path
         d="m 460,657.5 c 0,-1.8 -0.5,-2.5 -2,-2.5 -1.3,0 -2,-0.7 -2,-2 0,-1.1 -0.7,-2 -1.5,-2 -0.8,0 -1.5,-0.7 -1.5,-1.5 0,-0.8 -0.4,-1.5 -1,-1.5 -0.5,0 -1,-1.6 -1,-3.5 0,-2.8 -0.4,-3.5 -2,-3.5 -1.6,0 -2,-0.7 -2,-3.5 0,-1.9 0.4,-3.5 0.8,-3.5 0.5,0 2.1,2.3 3.7,5.1 2.2,4.2 8.6,13.2 13.7,19.7 0.8,0.9 0.3,1.2 -2.1,1.2 -2.6,0 -3.1,-0.4 -3.1,-2.5 z"
         id="path144" />
      <path
         d="m 428,619 c 0,-2.1 1,-2.4 4.8,-1.4 3.6,1 2.7,3.4 -1.3,3.4 -2.8,0 -3.5,-0.4 -3.5,-2 z"
         id="path145" />
      <path
         d="m 417,614.5 c 0,-2.4 0.1,-2.5 3.2,-1.2 4.6,1.9 4.8,3.7 0.4,3.7 -3.2,0 -3.6,-0.3 -3.6,-2.5 z"
         id="path146" />
      <path
         d="m 445.5,612 c -4.3,-2.2 -9.1,-8.1 -12.7,-15.4 -1.4,-2.9 -3.1,-4.9 -4.9,-5.5 -3.3,-1.1 -6.9,-4.9 -6.9,-7.3 0,-2.4 2.2,-2.3 4.5,0.2 2.3,2.6 4.7,2.5 9.5,-0.2 3.5,-2.1 4.2,-2.2 9.7,-1 10.6,2.2 16.1,1.3 19.1,-3 0.7,-1 2,-1.8 2.8,-1.8 1.9,0 1.8,4 -0.2,6.9 -1.1,1.5 -1.7,4.7 -1.9,9 -0.4,14.9 -9.1,23.1 -19,18.1 z m 10.5,-5 c 2.5,-2.5 5,-10.1 5,-15.4 v -4.3 h -5.2 c -2.9,0.1 -8.2,-0.1 -11.8,-0.4 -4.9,-0.3 -7,0 -8.2,1.1 -1.5,1.4 -1.4,2 1.5,7.5 1.8,3.3 3.5,6.2 3.9,6.3 0.5,0.2 0.8,1.2 0.8,2.3 0,1 0.7,1.9 1.5,1.9 0.8,0 1.5,0.4 1.5,0.8 0,1.2 5.3,3 7.3,2.5 1.1,-0.3 2.7,-1.3 3.7,-2.3 z"
         id="path147" />
      <path
         d="m 407,610 c 0,-1.6 -0.7,-2 -3,-2 -2.7,0 -3,-0.3 -3,-3 0,-2.8 -0.3,-3 -3.5,-3 -3.4,0 -3.5,-0.2 -3.5,-3.6 v -3.6 l 6,5.5 c 3.3,3.1 7.8,6.6 10,7.8 4.9,2.8 5.1,3.9 0.5,3.9 -2.8,0 -3.5,-0.4 -3.5,-2 z"
         id="path148" />
      <path
         d="m 383.6,584.8 c -0.3,-1.3 -0.6,-3.5 -0.6,-5 0,-4.6 2.5,-3.2 4.2,2.2 l 1.6,5 h -2.3 c -1.5,0 -2.5,-0.7 -2.9,-2.2 z"
         id="path149" />
      <path
         d="m 400.5,577.4 c -6.7,-3.5 -11.7,-11.2 -14,-21.7 l -1.4,-6.2 0.5,8.5 c 0.2,4.7 0.1,7.8 -0.2,7 -0.4,-0.8 -1.3,-2 -2,-2.6 -1,-0.8 -1.5,-3.8 -1.7,-9.3 -0.1,-4.4 -0.5,-8.1 -0.9,-8.1 -1.4,0 -0.8,-8.1 0.6,-9.5 1.1,-1.2 1.4,-0.8 2,2.3 0.3,2 0.6,5.5 0.7,7.7 0.1,2.2 0.5,0.1 1,-4.6 1,-10.6 4.2,-19.3 8.5,-23.6 3.5,-3.6 6,-4.1 10.4,-1.8 5.6,2.9 11.9,13.8 15.1,26.3 2.5,9.8 2.5,12.2 -0.1,12.2 -1.6,0 -2,-0.7 -2,-3 0,-3.7 -4.9,-19 -6.6,-20.8 -0.7,-0.6 -1.5,-2.1 -1.9,-3.2 -0.3,-1 -2.2,-3.5 -4.1,-5.4 -5.1,-5.1 -7.1,-4.3 -11.3,4.5 -5.5,11.5 -5.5,23.9 0.1,36.3 2.8,6 8.1,11.5 12,12.3 4.3,0.8 9.4,-3.1 11,-8.4 0.8,-3 1.8,-4.3 3,-4.3 2.5,0 2.3,3.3 -0.3,8.8 -3.6,7.4 -11.4,10.3 -18.4,6.6 z"
         id="path150" />
      <path
         d="m 488.5,575.1 c -10.3,-2.5 -18.5,-12.5 -20.1,-24.5 -0.6,-4.2 -0.5,-4.6 1.5,-4.6 1.6,0 2.1,0.6 2.1,2.6 0,3.1 3.9,12.6 5.7,13.7 0.7,0.4 1.3,1.7 1.3,2.7 0,1.1 0.6,2 1.3,2 0.6,0 3.4,1.1 6.1,2.5 6.4,3.3 12.4,3.3 19.4,0 3,-1.4 6,-2.5 6.8,-2.5 0.8,0 1.4,-0.6 1.4,-1.4 0,-0.8 1.1,-2.3 2.5,-3.4 1.4,-1.1 2.5,-2.5 2.5,-3.1 0,-0.6 0.4,-1.1 0.8,-1.1 1,0 5.2,-11.7 5.2,-14.2 0,-1.1 0.8,-1.8 2,-1.8 1.3,0 2,0.7 2,1.9 0,3.8 -3.8,13.9 -6.8,18.3 -7,10.2 -21.7,15.8 -33.7,12.9 z"
         id="path151" />
      <path
         d="m 426.5,572.4 c -2.3,-2.3 -1.5,-4.8 1.8,-5.2 2,-0.3 2.7,0.1 2.7,1.4 0,1.6 0.2,1.6 2,-0.1 1.9,-1.7 2.2,-1.7 3.6,-0.3 1.5,1.4 1.4,1.8 -0.5,3.7 -2.5,2.5 -7.3,2.8 -9.6,0.5 z"
         id="path152" />
      <path
         d="m 468,539.8 c 0,-1.3 0.6,-4.5 1.4,-7.3 4,-15 15,-26.1 27.7,-28 14.7,-2.2 29,11.4 31.6,30.1 0.5,4 0.4,4.4 -1.6,4.4 -1.6,0 -2.1,-0.6 -2.1,-2.6 0,-2.9 -4.9,-15.7 -6.2,-16.2 -0.4,-0.2 -0.8,-0.9 -0.8,-1.5 0,-0.7 -0.9,-1.8 -2,-2.5 -1.1,-0.7 -2,-1.9 -2,-2.7 0,-0.8 -0.9,-1.5 -2,-1.5 -1.1,0 -2,-0.6 -2,-1.4 0,-0.9 -1.8,-1.6 -5.4,-2 -6.1,-0.8 -12.9,0.8 -16,3.6 -1.1,1 -3.5,1.8 -5.3,1.8 -3.1,0 -3.3,0.2 -3.3,3.4 0,1.9 -0.4,3.6 -0.8,3.8 -1.3,0.5 -6.4,12.9 -6.9,16.9 -0.4,3 -1,3.9 -2.4,3.9 -1.3,0 -1.9,-0.7 -1.9,-2.2 z"
         id="path153" />
      <path
         d="m 380,525.5 c 0,-4.8 2.3,-17.5 3.1,-17.5 0.5,0 0.9,-1.2 0.9,-2.7 0,-5.2 1.1,-7.3 3.6,-7.3 h 2.3 l -1.9,5.5 c -1.7,5.1 -2.9,10.3 -4.5,20.8 -0.7,4.2 -3.5,5.3 -3.5,1.2 z"
         id="path154" />
      <path
         d="m 340.7,522.1 c -2.2,-3.8 -2.2,-4.1 0.8,-4.1 2.2,0 2.5,0.4 2.5,3.5 0,4.3 -1,4.4 -3.3,0.6 z"
         id="path155" />
      <path
         d="m 560.8,483.7 c -3.7,-2.8 -6.9,-5.8 -7.2,-6.5 -0.4,-0.8 0.7,-1.8 2.7,-2.7 l 3.2,-1.3 -3,-1.2 c -8.2,-3.1 -14.5,-6.4 -14.5,-7.6 0,-0.7 1.5,-2.1 3.3,-3 1.7,-1 2.8,-1.9 2.2,-2 -2.6,-0.9 -20.9,-4.3 -21.2,-4 -0.2,0.2 0.8,0.6 2.2,1 1.4,0.4 2.5,1 2.5,1.4 0,0.8 -13.9,9.2 -15.2,9.2 -0.4,0 0.5,-2 1.9,-4.5 3.9,-7.1 2,-5.2 -2.6,2.4 -6.9,11.6 -13.9,15.4 -17.7,9.5 -1.6,-2.4 -1.6,-3 -0.1,-9.6 1,-3.9 3.1,-10.4 4.7,-14.5 1.7,-4.1 3,-7.6 3,-7.9 0,-0.2 -1.1,-0.4 -2.4,-0.4 -3.4,0 -4,-1.4 -1.5,-3.6 1.9,-1.7 2,-1.7 2.6,0.4 0.8,3.3 4.8,2.9 6.1,-0.5 2.7,-7.8 14.7,-31.3 15.9,-31.3 0.7,0 1.3,-0.4 1.3,-0.9 0,-0.5 -0.9,-0.7 -2,-0.4 -1.1,0.3 -2,0.9 -2,1.4 0,0.5 -1.6,0.9 -3.5,0.9 -3.2,0 -3.5,-0.3 -3.5,-2.7 0,-4.5 6.2,-24.5 8.2,-26.5 1,-1 1.8,-2.2 1.8,-2.6 0,-0.4 2.8,-3.6 6.3,-7 4.6,-4.5 7,-6.2 9,-6.2 2.2,0 2.7,-0.5 2.7,-2.3 0,-2.9 3.9,-6.7 6.8,-6.7 1.5,0 2.2,-0.6 2.2,-1.8 0,-2.4 1.9,-4.2 4.6,-4.2 1.6,0 2.4,-0.7 2.6,-2.2 0.2,-1.6 1.2,-2.5 3.3,-2.9 l 3,-0.6 -2.6,-1.1 c -1.4,-0.5 -4.7,-1.3 -7.2,-1.7 -4.7,-0.7 -4.7,-0.8 -4.7,-4.6 0,-2.8 0.4,-3.9 1.5,-3.9 0.8,0 1.5,-0.4 1.5,-1 0,-0.5 0.7,-1 1.5,-1 0.8,0 1.5,-0.4 1.5,-0.8 0,-0.5 1.7,-1.7 3.7,-2.8 2.1,-1 4.4,-2.5 5.1,-3.2 0.7,-0.6 2,-1.2 2.8,-1.2 0.8,0 1.4,-0.3 1.4,-0.8 0,-0.4 2.1,-1.9 4.7,-3.2 2.6,-1.4 5.4,-3.1 6.1,-3.7 0.7,-0.7 2,-1.3 2.8,-1.3 0.8,0 1.4,-0.4 1.4,-0.9 0,-0.5 1.5,-1.4 3.3,-2.2 1.7,-0.7 3.4,-1.6 3.7,-2 1,-1.3 9,-4.9 11,-4.9 1.1,0 2,-0.6 2,-1.3 0,-1.8 8.3,-5.7 12.1,-5.7 2.9,0 3,0.2 2.7,3.6 -0.3,3.8 -0.9,4.3 -6.5,6.4 -2.3,0.9 -3.3,1.9 -3.3,3.4 0,2.9 -8.9,11.6 -11.8,11.6 -1.5,0 -2.2,0.6 -2.2,1.8 0,2.9 -4.2,6.2 -7.8,6.2 -2.7,0 -3.2,0.4 -3.2,2.4 0,2.1 0.6,2.5 4.8,3 7.6,1.1 8.2,1.4 8.2,4.8 0,3.7 -1.4,5.2 -23.2,25.5 -9.3,8.6 -16.8,16.2 -16.8,17 0,0.7 -0.8,1.3 -1.8,1.3 -2.1,0 -5.2,-3.4 -5.2,-5.6 0,-2.8 7.8,-11.1 20.4,-21.8 13.1,-11.2 18.2,-14.7 20.1,-14 0.7,0.3 1.5,-0.2 1.8,-1 0.5,-1.1 -0.3,-1.7 -3.1,-2.1 -9.9,-1.6 -11.1,-2.4 -9,-5.7 0.9,-1.3 8.6,-8.9 17.2,-16.8 8.6,-7.9 15.6,-14.6 15.6,-14.8 0,-0.7 -20.3,10.6 -39,21.8 -10.7,6.5 -19.4,12.2 -19.3,12.6 0.1,0.5 2.6,1.4 5.6,2 6.1,1.2 7.7,2 7.7,3.9 0,0.7 -6.6,7.1 -14.7,14.3 -8.2,7.1 -18,16.3 -21.9,20.4 -6.4,6.8 -7.3,8.2 -9.7,15.9 -4.4,14.4 -4.6,13.6 1.8,8.4 5.9,-4.8 8.2,-5.3 7.8,-1.7 -0.2,1.2 -4.6,11 -9.9,21.8 -5.3,10.7 -9.4,19.7 -9.1,20 0.2,0.3 1,-0.9 1.7,-2.5 0.6,-1.7 11.2,-12.8 23.4,-24.8 20.2,-19.9 29.9,-28.4 31.1,-27.1 0.2,0.2 -0.9,2.1 -2.6,4.1 -4.3,5.2 -2.7,4.6 3.7,-1.4 l 5.4,-5.2 v 3.7 c 0,3.1 -0.3,3.6 -2.3,3.6 -1.6,0 -2.8,0.9 -3.8,2.8 -0.7,1.5 -7.7,9.3 -15.5,17.4 -7.8,8 -17.9,19 -22.4,24.5 l -8.1,9.8 4.6,0.3 4.7,0.3 -0.4,3.8 -0.3,3.8 7.4,1.2 c 8.7,1.5 10.5,2.8 9.9,7.6 -0.4,3.4 -0.3,3.5 5.4,5.7 5.4,2.1 5.8,2.5 5.8,5.5 0,1.7 -0.5,3.3 -1.2,3.5 -1.2,0.4 2.5,4.8 4.1,4.8 1.7,0 3.2,2.9 2.9,5.4 -0.3,2.5 -0.4,2.5 -7,-2.7 z M 507,464 c 1.6,-3.1 1.7,-3.8 0.5,-3.4 -0.8,0.4 -1.5,0.7 -1.5,0.8 0,0 -0.4,1.6 -0.9,3.4 -1.3,4.3 -0.6,4 1.9,-0.8 z m 20.9,-14.8 c -2,-0.8 -3.7,0.7 -3.2,2.7 0.5,2 0.5,2 2.3,-0.2 1,-1.2 1.4,-2.4 0.9,-2.5 z"
         id="path156" />
      <path
         d="m 393,484.5 c 0,-1.9 0.5,-3.5 1,-3.5 0.6,0 1,-0.7 1,-1.5 0,-0.8 0.7,-1.5 1.5,-1.5 0.8,0 1.5,-0.9 1.5,-2 0,-1.6 0.7,-2 3.5,-2 1.9,0 3.5,-0.2 3.5,-0.4 0,-0.3 -0.9,-4.2 -2,-8.7 -1,-4.5 -2.2,-11.9 -2.6,-16.5 -0.6,-7.3 -0.5,-8.4 0.9,-8.4 1.6,0 2,1.1 3.2,11.5 0.8,6.5 4,19.3 6,23.6 1.4,3.2 1.5,2.7 1,-8.6 -0.4,-6.6 -0.9,-13.1 -1.3,-14.5 -0.5,-2.1 -0.7,-1.8 -1.2,2 -0.7,4.3 -0.7,4.2 -0.8,-2 -0.3,-10.1 1.5,-21.9 5.4,-35.3 3.6,-12.6 11.4,-30.3 15.3,-34.7 l 2.2,-2.5 -0.5,2.5 c -0.3,1.4 -0.8,3.6 -1.1,5 -0.6,2.5 1.6,-2.1 5.4,-11.8 l 2.1,-5.2 -2.8,1.4 c -1.5,0.8 -4,2.4 -5.7,3.5 -3.5,2.4 -6.3,2.7 -7.1,0.7 -0.6,-1.7 4.4,-28.2 7.2,-38.1 1,-3.2 -7.4,10.1 -13.3,21.3 -3,5.6 -5.9,10.2 -6.4,10.2 -1.7,0 -0.9,-5.9 1.3,-10.5 1.2,-2.5 2.8,-4.5 3.5,-4.5 0.7,0 1.3,-0.9 1.3,-2 0,-2.4 2.1,-7 3.2,-7 0.4,0 0.8,-0.6 0.8,-1.4 0,-0.8 0.3,-1.6 0.8,-1.8 0.4,-0.1 1.6,-2 2.6,-4.1 1.8,-3.5 2.3,-3.8 5.5,-3.5 4.8,0.4 5,2.2 1.2,19.2 -3.7,16.1 -3.8,17.8 -1.3,16.9 0.9,-0.4 2.3,-1.3 3.1,-2 0.8,-0.8 2.9,-1.3 5,-1.1 3.2,0.3 3.6,0.6 3.9,3.3 0.2,2 -2.4,10.2 -7.4,23 -6.7,17.5 -12.4,33.2 -12.4,34.2 0,0.2 0.7,0.3 1.5,0.3 1.6,0 1.8,1.2 0.9,4.8 -0.7,2.3 -3.3,3.1 -3.5,1 -0.3,-3.6 -3,11 -3.6,19.5 -0.5,8.3 -0.4,9.7 0.9,9.7 1.6,0 2.8,2.8 2.8,6.9 0,2 -0.4,2.3 -2.8,1.8 -2.7,-0.5 -2.7,-0.5 -2.4,3.4 0.4,3.4 0.2,3.9 -1.7,3.9 -1.2,0 -2.1,0.6 -2.1,1.5 0,2.6 3.7,1.7 4.4,-1 0.4,-1.6 1.3,-2.5 2.6,-2.5 2.6,0 2.6,3 -0.1,6.4 -3.7,4.7 -9.2,2.9 -12.8,-4.2 -1.5,-2.8 -2.8,-2 -6.8,4.4 -1.5,2.4 -3.1,4.4 -3.5,4.4 -0.5,0 -0.8,-1.6 -0.8,-3.5 z"
         id="path157" />
      <path
         d="m 419,457.8 c 0,-2.1 0.5,-3.8 1,-3.8 0.6,0 1,-0.7 1,-1.5 0,-0.8 0.6,-1.5 1.4,-1.5 0.8,0 1.6,-1 1.8,-2.2 0.2,-1.9 1,-2.4 4.1,-2.6 2.1,-0.2 3.7,0.1 3.7,0.7 0,0.6 0.7,0.8 1.5,0.5 0.8,-0.4 1.5,-1.2 1.5,-2 0,-0.8 0.5,-1.4 1,-1.4 0.6,0 1,-0.7 1,-1.5 0,-0.8 0.6,-1.5 1.4,-1.5 0.8,0 1.6,-1 1.8,-2.2 0.2,-1.5 1.1,-2.4 2.6,-2.6 1.4,-0.2 2.2,-1 2.2,-2.3 0,-1.5 0.7,-1.9 3.5,-1.9 3.2,0 3.5,0.2 3.5,3 0,1.7 0.5,3 1,3 0.6,0 1,-0.4 1,-1 0,-0.5 0.7,-1 1.5,-1 0.8,0 1.5,-0.4 1.5,-1 0,-0.5 0.7,-1 1.5,-1 0.8,0 1.5,-0.4 1.5,-0.8 0,-1.4 17.3,-9.2 20.2,-9.2 4.5,0 5.8,1 5.8,4.4 0,1.8 -0.6,3.8 -1.2,4.5 -1.1,1.1 -0.9,1.3 1.2,0.7 1.4,-0.3 5.5,-0.9 9.3,-1.2 5.7,-0.6 6.7,-0.5 6.7,0.9 0,1.1 -1.2,1.8 -3.7,2.2 -2.1,0.3 -7.5,1.4 -12,2.4 l -8.3,1.8 v -2.1 c 0,-1.2 1.1,-4 2.5,-6.4 l 2.5,-4.3 -2.3,0.7 c -4.3,1.3 -18.3,8.7 -23.9,12.6 -3.1,2.2 -6.1,3.7 -6.7,3.3 -0.6,-0.3 -1.1,-2.2 -1.1,-4.1 0,-1.9 -0.4,-3.4 -0.8,-3.4 -1,0 -5.3,5.3 -10.1,12.3 -3.5,5.1 -6.2,6 -7.8,2.5 -0.9,-2.1 -1,-2 -3.9,1.6 -1.6,2.1 -3.9,5 -5.1,6.5 l -2.2,2.6 z"
         id="path158" />
      <path
         d="m 400,434.5 c 0,-1.8 -0.5,-2.5 -2,-2.5 -2.1,0 -2.4,-1 -1.3,-4.8 0.4,-1.6 1.1,-2.2 2.3,-1.9 1.3,0.3 1.9,-0.8 2.8,-6.4 0.7,-3.8 2.5,-11 4.2,-16.1 2.6,-8.2 3.1,-12.2 1.2,-9.2 -1.2,1.9 -4.9,3.4 -8.3,3.4 h -3.2 l 0.6,-5.2 c 0.4,-2.9 1.1,-5.4 1.7,-5.6 0.5,-0.2 1,-1.1 1,-2 0,-0.9 1.2,-4.5 2.6,-7.9 2.2,-5.2 3.1,-6.3 5.1,-6.3 1.2,0 2.3,0.1 2.3,0.3 0,0.2 -2.2,5.3 -4.9,11.3 -2.7,6 -4.8,11.1 -4.6,11.3 0.2,0.2 2.9,-1.1 6,-2.9 5.5,-3.2 8.5,-3.4 8.5,-0.6 0,0.8 -1.8,7.2 -4,14.3 -2.2,7 -4.5,16 -5.1,19.8 -0.6,3.9 -1.2,8.5 -1.5,10.3 -0.6,3.9 -3.4,4.5 -3.4,0.7 z"
         id="path159" />
    </g>
    <g
       fill="#37301f"
       id="g167">
      <path
         d="m 575,725.1 c -5.2,-1.6 -8.9,-4.2 -14,-9.8 -2.9,-3.1 -5.7,-6.6 -6.2,-7.8 -0.7,-1.6 -2.5,-2.4 -7.6,-3.3 -3.6,-0.7 -8.5,-2.1 -10.8,-3.1 l -4.2,-1.9 -4.8,4.9 c -8.3,8.4 -17.1,10 -22.7,4.1 -4.4,-4.6 -6.5,-13.2 -3.2,-13.2 0.8,0 1.5,-0.4 1.5,-1 0,-0.5 -0.6,-1 -1.4,-1 -0.8,0 -1.6,-1 -1.8,-2.2 -0.5,-3.9 -3.1,-3.1 -6.2,1.8 -1.7,2.6 -4.6,6.5 -6.6,8.6 -3.1,3.2 -4.3,3.8 -7.8,3.8 -3.4,0 -4.5,-0.5 -5.9,-2.6 -2.1,-3.3 -2.1,-14.6 0.1,-21.9 0.9,-2.7 1.2,-5.2 0.8,-5.6 -0.4,-0.3 -3,-2.7 -5.8,-5.2 l -5.1,-4.7 -4.9,6.1 c -5.9,7.4 -18,17.4 -25,20.6 -23.3,10.7 -31.2,-6.4 -15.3,-33.5 1.9,-3.1 7.8,-10.1 13.2,-15.5 l 9.9,-9.8 -1.5,-3.6 c -1.3,-3.3 -1.9,-3.7 -9.6,-5.9 -26,-7.6 -44.6,-23.2 -49.6,-41.8 -1.8,-6.4 -1.5,-13.6 0.5,-13.6 0.6,0 1,-1.1 1,-2.5 0,-1.4 -0.4,-2.5 -1,-2.5 -0.5,0 -1,-0.7 -1,-1.5 0,-0.8 -3.3,-3.6 -7.2,-6.3 -13.9,-9.4 -25.7,-22 -33.2,-35.5 -4.3,-7.6 -9.2,-22.2 -10.1,-29.9 -0.7,-5.5 -0.6,-5.8 1.4,-5.8 1.1,0 2.1,0.6 2.1,1.4 0,0.8 0.4,1.6 0.9,1.8 0.5,0.2 1.8,4.1 3,8.8 3.6,14.3 9.7,25.7 20.4,37.9 4.9,5.7 15.6,14.9 19.8,17.1 1.8,1 1.9,0.8 1.3,-3 -0.5,-3 -0.3,-4 0.7,-4 1.2,0 1.2,-0.2 0.1,-0.9 -0.8,-0.4 -1.6,-2.7 -1.9,-5 -0.5,-3.7 -0.4,-4.1 1.6,-4.1 1.6,0 2.1,0.6 2.1,2.4 0,1.3 0.5,2.6 1.1,2.8 1.4,0.5 3.9,21 3.9,32.4 0,8.1 0.3,9.7 3,15.1 3.1,6.1 11.5,15.3 18.4,19.9 10.4,7.1 27.5,12.9 41.9,14.4 4.5,0.4 8.3,1.3 8.5,1.9 0.5,1.4 2.9,1.4 3.4,0 0.2,-0.6 4.4,-1.5 9.3,-2 28.4,-2.8 55.1,-13.7 74.4,-30.2 3,-2.5 5.9,-4.4 6.4,-4 0.6,0.3 0.7,0.2 0.4,-0.3 -0.3,-0.6 1.9,-4.1 4.9,-7.8 6.5,-8.1 11,-16.6 12.5,-23.6 0.9,-4.4 1.4,-5 3.6,-5 2.7,0 2.7,0.4 0.7,-13.2 -0.5,-3.6 -0.4,-3.8 2,-3.8 3.2,0 3.2,-0.5 0.1,-7.2 -2.9,-6.1 -3.1,-7.8 -1,-7.8 0.8,0 1.5,-0.5 1.5,-1.2 0,-1.3 -7.2,-13.9 -10.2,-17.7 -2.5,-3.3 -2.3,-3.8 1.8,-5.1 l 3.6,-1.2 -2.9,-3 c -1.5,-1.7 -5.4,-5 -8.5,-7.5 -3.2,-2.4 -5.8,-4.9 -5.8,-5.4 0,-0.5 1.1,-1.5 2.5,-2.1 2.5,-1.1 3.4,-2.8 1.4,-2.8 -1.9,0 -15.9,-6.9 -15.9,-7.8 0,-0.5 1.4,-1.5 3,-2.2 5.6,-2.3 4.5,-3 -9,-5.5 -4.6,-0.8 -8.9,-2 -9.3,-2.4 -0.6,-0.6 0.2,-2 1.8,-3.5 l 2.8,-2.6 h -3.1 c -2.7,0 -3.6,0.8 -7.9,7.5 -2.6,4.1 -6.2,9.8 -8,12.8 -1.9,3.2 -4.6,6.1 -6.7,7.2 -3.2,1.8 -3.6,1.8 -6,0.2 -2,-1.4 -2.6,-2.6 -2.6,-5.3 0,-4.2 2.3,-12.6 5.6,-20.6 2.9,-6.9 3,-7.8 0.5,-7.8 -3.1,0 -3.5,-1.9 -1,-4.7 l 2.4,-2.6 -6.5,0.7 c -3.5,0.3 -9.3,1.3 -12.8,2.2 -3.5,0.9 -6.6,1.3 -7,1 -0.3,-0.4 0.5,-2.8 1.8,-5.4 1.4,-2.6 2.6,-5 2.8,-5.4 1.4,-2.9 -15,4.6 -24.9,11.2 -3.3,2.3 -6.7,3.9 -7.5,3.6 -0.8,-0.3 -1.4,-1.9 -1.4,-4.2 0,-3.3 -0.2,-3.5 -1.7,-2.3 -0.9,0.8 -4,4.6 -7,8.6 -2.9,3.9 -5.8,7.5 -6.5,7.9 -0.6,0.4 -1.9,-0.3 -3,-1.6 -1.1,-1.3 -2.2,-1.9 -2.7,-1.4 -0.4,0.5 -2.9,3.7 -5.5,7.2 l -4.7,6.3 0.7,7.4 c 0.8,8.6 -0.6,13.2 -4.3,14.6 -3.4,1.3 -6.6,-0.4 -8.8,-4.5 -1.1,-2 -2.4,-3.6 -3,-3.6 -1.5,0 -7,8.6 -10.9,17.1 -3.3,7.1 -6.7,19 -8.1,28.2 -0.3,2 -1,3.7 -1.5,3.7 -0.6,0 -1,0.7 -1,1.5 0,0.8 -0.9,1.5 -2,1.5 -1.2,0 -2,-0.7 -2,-1.7 0.1,-2.8 1.9,-14.8 2.5,-16.5 0.4,-0.9 -1.1,-3.5 -3.4,-6.3 -2.2,-2.7 -3.7,-5.3 -3.4,-5.8 0.3,-0.6 0.2,-0.7 -0.4,-0.4 -1,0.6 -11,-8.9 -10.5,-10.1 0.1,-0.4 -0.2,-0.7 -0.8,-0.7 -0.5,0 -3.4,-1.9 -6.4,-4.3 -7.1,-5.5 -15.1,-9.6 -17.2,-8.8 -0.9,0.3 -1.8,1.5 -2.1,2.6 -0.4,1.4 -1.4,2 -3.4,2 -2.4,0 -2.9,-0.4 -2.9,-2.6 0,-3.5 5,-8.4 8.7,-8.4 7.3,0 24.6,11.9 37.2,25.7 6.8,7.4 7.2,7.7 7.8,5.3 1.4,-5.2 10.4,-21.8 14.1,-26 l 3.8,-4.3 -2,-7.1 c -1.5,-5.6 -1.9,-10.3 -1.9,-22.6 0,-16 -0.1,-15.6 5.9,-36.7 l 0.6,-2.1 -4.7,2.4 c -3.6,1.8 -5.2,2.1 -6.6,1.3 -2.4,-1.2 -2.4,-2.6 -0.1,-3.2 1.6,-0.4 1.6,-0.5 0,-0.6 -2.5,-0.1 -2.3,-2 1.7,-12.2 8.7,-22.6 33.3,-65.5 39.1,-68.1 1.9,-0.9 2.8,-0.8 4.4,0.7 1.1,1 2,2.5 2,3.3 0,0.9 -2,10 -4.5,20.3 -2.5,10.3 -4.5,19.2 -4.5,19.7 0,0.5 2.9,-0.6 6.5,-2.5 5.3,-2.8 6.8,-3.2 8.5,-2.3 1.1,0.6 2,1.9 2,2.9 0,2.5 -3.9,13.5 -10.3,29.2 -8.3,20.2 -13.4,35.6 -15.7,47.6 -1.1,5.8 -1.9,10.8 -1.7,11 0.2,0.1 2.5,-2.4 5,-5.7 4.7,-6.1 8.1,-7.7 9.4,-4.4 0.4,1.2 1.6,0.4 4.8,-3.3 3.9,-4.4 4.8,-4.9 8.8,-5.2 4.3,-0.2 4.6,0 5,2.6 0.3,2.5 0.4,2.4 0.6,-0.7 l 0.1,-3.6 -4.2,0.4 -4.3,0.3 3.3,-3 c 5.3,-5 10.7,-3.2 8.7,2.9 -0.8,2.6 -0.4,2.5 5.2,-0.9 6.4,-3.9 21,-9.9 26.1,-10.7 5.4,-0.9 6.3,1.1 3.3,7.3 l -2.2,4.5 2.3,-0.5 c 1.3,-0.3 5.1,-0.9 8.6,-1.3 5.3,-0.6 6.2,-0.4 6.2,1 0,0.9 0.5,1.6 1,1.6 0.6,0 1,1.9 1,4.3 l 0.1,4.2 1.9,-3.5 c 2.4,-4.5 2.4,-5 0,-5 -1.1,0 -2,-0.7 -2,-1.5 0,-0.8 0.7,-1.5 1.5,-1.5 0.8,0 2.4,-1.8 3.5,-4 2.4,-4.7 2.4,-5.1 0.5,-4.4 -2,0.8 -4.5,-1.3 -4.5,-3.8 0,-3.6 9.1,-33.3 11.5,-37.4 2.4,-4.2 17.3,-18.8 28.8,-28.4 3.6,-3 6.6,-5.8 6.6,-6.2 0.1,-0.4 -2.1,-1 -4.9,-1.4 -5.9,-0.8 -8.5,-3.2 -7.6,-6.9 0.7,-2.9 6.4,-6.8 33.6,-23 25,-14.9 48.6,-26.7 53,-26.3 3.1,0.3 3.5,0.7 3.8,3.4 0.2,2 -0.4,3.6 -1.8,4.9 -2,1.8 -2,1.8 -2,-1.5 0,-2.2 -0.4,-3.1 -1.2,-2.7 -9.8,3.9 -9.4,3.5 -9,7.2 0.3,2.8 0.9,3.4 3,3.7 2.3,0.3 1,1.8 -12.8,14.3 l -15.4,14 4.8,0.9 c 3.2,0.6 5.2,1.6 6.3,3.2 1.4,2.2 1.3,2.6 -0.5,5.6 -2.3,3.6 -6.2,6.6 -6.2,4.7 0,-0.8 -0.5,-0.7 -1.5,0.1 -1.1,0.9 -1.2,1.5 -0.5,2 0.7,0.4 -3.7,5.1 -10.8,11.7 -10.8,9.9 -12.3,10.9 -15.1,10.5 -2.5,-0.3 -3.1,-0.1 -3.1,1.4 0,1 -1.4,3.3 -3.2,5.1 l -3.2,3.3 h 9.2 c 8.5,0 9.3,0.2 10,2.1 0.7,1.9 0.9,1.9 2.1,0.5 0.9,-1.1 1,-1.6 0.2,-1.6 -0.6,0 -1.1,-0.9 -1.1,-2 0,-1.3 0.7,-2 1.9,-2 2.4,0 5.1,2.6 5.1,4.8 0,2.3 -19.2,21.1 -19.8,19.3 -0.3,-0.8 -3.4,1.7 -8.8,7 -4.9,4.8 -7.9,8.6 -7.3,9 0.6,0.4 -3.8,5.8 -10.5,12.9 -6.4,6.7 -11.6,12.6 -11.6,13.1 0,0.5 1.3,0.9 2.9,0.9 8.9,0 12.3,2.8 7.8,6.5 l -2.7,2.1 9.5,2.3 c 7.2,1.7 9.8,2.8 10.7,4.4 0.9,1.8 0.7,2.4 -1.6,4.4 l -2.7,2.3 7.4,3.4 c 8.5,3.9 9.7,5.7 6.3,9.1 l -2.5,2.5 6.9,5.7 c 8,6.7 9.4,9.7 6,12.5 -1.2,1 -2.9,1.8 -3.7,1.8 -0.8,0 -1.3,0.3 -1.1,0.8 0.9,2 7,12.2 7.4,12.2 0.2,0 1.6,-2.4 3,-5.2 6.9,-13.7 22.8,-36.3 33.8,-48.3 l 5.5,-6 0.1,3.2 c 0,1.7 0.5,3.3 1,3.5 0.6,0.2 -1.6,3.5 -5,7.3 -8,9.2 -18.2,23.6 -26,36.5 -6.8,11.3 -8.3,12.9 -11.7,13 -1.5,0 -2.3,0.6 -2.3,1.8 0,1.3 0.2,1.4 0.9,0.4 0.4,-0.8 1.8,-1.2 3,-1 l 2.1,0.3 -2.1,4.2 -2,4.2 2.1,2.9 c 3.1,4.1 2.4,8.4 -1.5,9.6 -1.6,0.6 -3.1,1.1 -3.2,1.1 -0.1,0 0.4,2.6 1.1,5.7 1.4,6 0.8,8.2 -2.6,10.6 -1,0.7 -1.8,2 -1.8,2.7 0,1.6 10,-1.6 23.6,-7.4 6.3,-2.7 6.9,-2.8 7.2,-1.2 0.3,1.6 0.7,1.7 5.5,0.4 2.8,-0.7 5.9,-1.3 6.9,-1.3 1.1,0 1.8,-0.7 1.8,-2 0,-1.3 -0.7,-2 -2,-2 -1.1,0 -2,0.6 -2,1.4 0,0.8 -0.7,1.7 -1.6,2 -2.3,0.9 -7.4,0.7 -7.4,-0.2 0,-0.4 4.6,-3.4 10.3,-6.6 13.8,-7.9 21.7,-13.9 31.3,-23.8 17.2,-17.7 28.7,-40.1 32.9,-64.2 0.8,-4.9 1.7,-9.1 1.9,-9.3 0.2,-0.2 1.5,-0.1 3,0.3 3.3,0.8 3.3,1.9 0.2,15.4 -2.9,12.8 -6.3,21.8 -12.2,32.9 -6.8,12.8 -20.4,30.8 -22.4,29.6 -0.9,-0.6 -4.2,2.9 -3.4,3.7 0.7,0.8 -9.6,9.3 -17.9,14.7 -3.7,2.4 -6.7,4.4 -6.7,4.6 0,0.1 2.3,0 5,-0.3 4.6,-0.4 5,-0.3 5,1.7 0,1.6 -0.6,2.1 -2.4,2.1 -1.3,0 -2.6,0.4 -2.8,1 -0.1,0.5 -3.9,1.6 -8.3,2.4 -8.3,1.5 -12.7,2.8 -30.3,9.1 -5.7,2 -12.2,3.9 -14.5,4.3 -2.2,0.4 -4.2,1.2 -4.4,1.7 -0.3,0.9 27.1,11.5 29.7,11.5 0.6,0 1,0.4 1,0.8 0,0.4 3,0.6 6.6,0.4 4.9,-0.3 6.9,-0.1 7.5,0.9 0.6,1 1.1,1.1 1.7,0.3 0.4,-0.6 4.5,-2.1 9.1,-3.3 4.6,-1.1 10.8,-3.2 13.7,-4.5 6.3,-2.9 16.4,-12.5 16.4,-15.5 0,-2.6 -4.7,-5.6 -10.1,-6.5 -2.1,-0.3 -3.9,-1.1 -3.9,-1.6 0,-0.6 -1.1,-1 -2.5,-1 -1.9,0 -2.5,-0.5 -2.5,-2.1 0,-2.1 0.3,-2.1 5.8,-1.6 12.8,1.4 19.2,5.4 19.2,11.9 0,7.3 -9,16.7 -21.2,22.3 -6.5,3 -19.8,6.5 -24.5,6.5 -1.8,0 -3.3,0.2 -3.3,0.5 0,0.3 2.5,3.8 5.6,7.8 3,3.9 7.3,10.8 9.4,15.2 3.8,7.7 8,22.2 8,27.5 0,1.4 0.7,3.6 1.6,4.8 1.5,2.1 1.4,2.2 -2,2.2 -2,0 -3.6,0.5 -3.6,1.1 0,0.6 1.7,0.9 4.3,0.8 6.4,-0.4 14.7,5 14.7,9.4 0,2.6 -5.6,9.8 -7.3,9.4 -0.7,-0.1 -1.1,0.3 -1,1 0.3,1.6 -7.3,8 -11.3,9.5 -1.8,0.6 -3.7,2.1 -4.2,3.2 -2.1,4.7 -10.5,13.6 -16.9,17.9 -6.8,4.7 -14.5,7.9 -21.9,9.1 l -3.9,0.7 0.3,5.3 c 0.5,6.6 -1.8,12.3 -5.3,13.6 -3,1.1 -3,1.1 -6.5,0.1 z m -2.7,-21.2 c 6.7,-0.1 11.4,-0.3 10.5,-0.6 -1.5,-0.4 -2.7,-3.3 -1.4,-3.3 0.2,0 3.8,-0.6 7.9,-1.4 21.6,-4.2 37.3,-20.9 41.3,-44.1 2.2,-12.5 1.5,-15.9 -1.4,-7 -3.6,10.9 -9.5,20 -19.1,29.5 -9.5,9.3 -15.5,13.3 -27.9,18.4 -10,4.1 -10.7,4.6 -5.6,4.6 h 3.9 l -2.9,1.5 c -1.5,0.8 -4.1,1.5 -5.7,1.5 -2.7,0 -2.9,-0.3 -2.9,-4 0,-2.5 0.5,-4 1.3,-4 2.5,-0.1 18.3,-7.1 23.4,-10.5 2.9,-1.9 5.5,-3.5 5.8,-3.5 0.3,0 1.9,-1.6 3.6,-3.5 1.7,-1.9 3.7,-3.5 4.5,-3.5 0.8,0 1.4,-0.6 1.4,-1.4 0,-0.8 1.4,-2.6 3,-3.9 1.7,-1.4 3,-2.8 3,-3 0,-0.3 1.8,-3.4 3.9,-6.9 2.2,-3.6 5.1,-9.9 6.6,-14.1 2.6,-7.2 2.9,-7.7 5.7,-7.7 2.9,0 3,-0.1 2.3,-4.2 -1.1,-6.4 -4.9,-16.8 -8.9,-24.3 -3.6,-6.7 -3.6,-6.8 -3.6,-3.2 0,5.3 -2.8,5 -3.6,-0.4 -1.1,-6.5 -11.9,-19.9 -16.1,-19.9 -0.9,0 -1.3,0.6 -0.9,1.5 1.4,3.8 1.7,14.7 0.6,21.6 -4.1,24.5 -21.3,46.3 -45.4,57.5 -6.8,3.1 -7.4,3.6 -9.1,8.1 -1,2.6 -3.4,7.7 -5.3,11.2 l -3.5,6.4 3.9,-0.7 c 6.7,-1.2 17.6,-4.7 24.3,-7.7 15.7,-7.1 33.1,-22.1 41,-35.3 4.1,-6.9 10.1,-23.8 10.1,-28.6 0,-5 1,-8 2.6,-8 3.8,0 -0.2,22.3 -6.2,34.3 -8.2,16.2 -22.8,30.4 -40.9,39.4 -12.9,6.5 -34.8,11.9 -37.9,9.4 -1,-0.9 -1.5,-0.8 -2,0.4 -0.3,0.9 0,1.5 1.1,1.5 0.8,0 4.7,1.1 8.5,2.5 3.8,1.4 8.2,2.5 9.9,2.5 1.6,0 2.9,0.5 2.9,1 0,0.6 0.6,1 1.4,1 0.8,0 1.7,0.8 2.1,1.8 0.5,1.1 0.9,1.3 1.2,0.5 0.3,-0.9 3.9,-1.3 12.6,-1.4 z m -70.1,-26.5 c 1.7,-10.3 13.3,-36.2 19.2,-43 4.5,-5.3 13.6,-8.3 19.5,-6.6 5.6,1.7 9.9,7 10.7,13.2 0.8,6 1.3,5.8 10.3,-3 10.2,-10.1 16.4,-21.5 18.6,-34.2 0.9,-5.6 3.5,-5.1 3.5,0.6 0,6 -3.2,15.9 -7.5,23.1 -4.9,8.2 -7.3,10.5 -10.7,10.5 -2.4,0 -2.8,0.4 -2.8,2.7 0,2.9 -2.5,6.3 -4.7,6.3 -0.7,0 -1.3,0.5 -1.3,1 0,1.5 -6.8,1.2 -7.3,-0.2 -0.2,-0.7 -0.6,2.5 -1,7.2 -0.3,4.7 -0.4,8.6 -0.3,8.7 0.4,0.4 15.1,-7.1 15.4,-7.9 0.2,-0.5 1,-0.8 1.7,-0.8 0.7,0 1.5,-0.7 1.9,-1.5 0.3,-0.8 0.9,-1.5 1.4,-1.5 1.2,0 14.3,-13.3 16.5,-16.7 4.5,-6.9 9.7,-19.1 11.3,-25.9 1.3,-6 1.4,-9.4 0.8,-17.5 l -0.9,-10.1 -8,-2.9 c -4.4,-1.5 -8.1,-2.7 -8.2,-2.5 -0.2,0.1 0.6,2.8 1.7,5.9 2.4,6.8 2.7,14.7 0.5,14.7 -0.9,0 -1.6,-1.4 -2,-3.7 -1.1,-6.5 -4.7,-15.3 -6.9,-16.8 -4,-2.9 -6,-1.9 -12.1,6 -12.8,16.3 -33.4,29.8 -57.7,38 -16.6,5.5 -25.4,6.9 -42.5,7 -8.4,0 -15.3,0.4 -15.3,0.9 0,0.5 2,4.7 4.6,9.2 10.2,18.8 24.8,33 42.6,41.4 3.5,1.7 6.7,2.9 7.3,2.7 0.5,-0.2 1.3,-2.1 1.7,-4.3 z m 138.3,-15.5 c 2.5,-2.3 4.5,-4.7 4.5,-5.5 0,-1.2 -5.9,-6.4 -7.3,-6.4 -0.4,0 -0.7,1.3 -0.7,2.8 0,1.5 -0.6,5.1 -1.4,8 -0.7,2.9 -0.9,5.2 -0.4,5.2 0.5,0 2.9,-1.9 5.3,-4.1 z M 463,660.5 c 0,-0.8 -0.4,-1.5 -1,-1.5 -0.5,0 -1,0.7 -1,1.5 0,0.8 0.5,1.5 1,1.5 0.6,0 1,-0.7 1,-1.5 z M 413,463 c 0.6,0 1,-0.8 1,-1.7 0,-0.9 1.2,-3 2.7,-4.5 2.1,-2.2 2.3,-2.8 1,-2.8 -0.9,0 -1.7,0.7 -1.7,1.5 0,0.8 -0.9,1.5 -2,1.5 -1.7,0 -2,-0.7 -2,-4.4 0,-12.5 4.1,-27.3 16.6,-60 4.7,-12 8.2,-22.1 8,-22.3 -0.3,-0.3 -3.2,1.1 -6.4,3.1 -3.3,2 -6.5,3.6 -7.2,3.6 -1.9,0 -0.8,-9.6 3,-26.4 1.7,-7.6 2.9,-14 2.7,-14.3 -1.7,-1.7 -29.7,52.2 -29.7,57.2 0,0.4 2.4,-0.7 5.4,-2.4 5.4,-3.1 8.1,-3.8 9,-2.2 0.3,0.4 -1.2,6.5 -3.4,13.4 -3,9.8 -7,26.4 -7,29.3 0,0.2 -0.7,0.4 -1.5,0.4 -0.8,0 -1.5,0.5 -1.5,1 0,0.6 0.6,1 1.3,1 1,0 1.6,2.6 2.1,9.8 0.6,10.3 3.3,23 6.3,30.3 l 1.8,4.4 0.3,-7.7 c 0.2,-4.3 0.7,-7.8 1.2,-7.8 z m 102.7,-11.7 c 10.2,-15.6 19.6,-26.6 42,-49.3 l 19.2,-19.5 -9.2,-0.2 C 556.8,382 554,381.4 554,379.6 c 0,-0.7 9.5,-10.2 21.1,-21.1 14.9,-13.9 20.7,-20 19.8,-20.5 -0.8,-0.4 -3.8,-1.1 -6.6,-1.5 -8.9,-1.2 -8.4,-3.5 3,-13.5 4.5,-4 12.5,-11.4 17.7,-16.3 l 9.4,-9 -10.9,5.8 c -17.7,9.4 -52.5,30.3 -52.5,31.6 0,0.3 2.7,1.1 6.1,1.7 6.6,1.2 9.1,2.6 8.3,4.7 -0.3,0.8 -3.8,4 -7.7,7.3 -4,3.3 -10.5,8.9 -14.6,12.6 -4.2,3.8 -7.7,6.2 -8.1,5.7 -0.3,-0.6 -2.8,1.1 -5.5,3.9 -2.7,2.8 -4.4,5 -3.7,5 0.8,0 0.1,1.7 -1.7,4.3 -1.6,2.3 -4.1,8.3 -5.6,13.2 -1.4,5 -2.8,9.6 -3.1,10.3 -0.4,1.5 4.5,-1.7 6.6,-4.3 0.8,-0.9 2.6,-2.3 4.2,-3.1 2.7,-1.4 2.8,-1.4 2.8,1 0,1.4 -2.4,7.1 -5.4,12.8 -8.6,16.4 -16.5,34.2 -20.2,45.6 -3.9,12.1 -4.3,15.2 -1.2,10.2 1.2,-1.9 5.4,-8.6 9.5,-14.7 z M 536,449 c 0,-1.6 -0.4,-3 -1,-3 -0.5,0 -1,1.4 -1,3 0,1.7 0.5,3 1,3 0.6,0 1,-1.3 1,-3 z m -102.6,-5 c -1,-0.4 -2.3,-0.5 -2.8,-0.2 -0.5,0.3 -0.1,0.9 1,1.2 1,0.4 2.3,0.5 2.8,0.2 0.5,-0.3 0.1,-0.9 -1,-1.2 z m 89.4,-35.5 c -0.2,-0.1 -1.9,-0.5 -4,-0.8 -3.2,-0.5 -3.7,-0.3 -4.2,1.8 -0.3,1.3 -0.9,3 -1.2,3.8 -0.4,1.2 0.3,1.6 2.8,1.9 2.9,0.3 3.5,-0.1 5.1,-3 1,-1.9 1.7,-3.5 1.5,-3.7 z M 398,397.5 c 0,-0.3 -0.9,-0.5 -2,-0.5 -1.1,0 -2,0.7 -2,1.5 0,1.3 0.4,1.4 2,0.5 1.1,-0.6 2,-1.3 2,-1.5 z m 44.3,-34.7 c -0.7,-1.4 -2.3,-0.9 -2.3,0.7 0,0.8 -0.6,1.5 -1.2,1.6 -0.7,0 -0.4,0.4 0.7,0.8 1.4,0.6 2.2,0.4 2.6,-0.8 0.4,-0.9 0.5,-1.9 0.2,-2.3 z m 120.1,-20.3 c 0.3,-0.9 0,-1.5 -0.9,-1.5 -0.8,0 -1.5,0.7 -1.5,1.5 0,0.8 0.4,1.5 0.9,1.5 0.5,0 1.1,-0.7 1.5,-1.5 z M 551,336 c 0,-1.1 -0.2,-2 -0.3,-2 -0.2,0 -1.2,0.9 -2.2,2 -1.8,1.9 -1.7,2 0.3,2 1.5,0 2.2,-0.6 2.2,-2 z m 51,0.6 c 0,-0.8 -0.6,-1.6 -1.4,-1.9 -1,-0.4 -1.2,0 -0.9,1.4 0.6,2.2 2.3,2.6 2.3,0.5 z m -11,-5.2 c 0,-1.4 -0.3,-1.4 -1.5,-0.4 -0.8,0.7 -1.5,1.4 -1.5,1.6 0,0.2 0.7,0.4 1.5,0.4 0.8,0 1.5,-0.7 1.5,-1.6 z m -157,-2.3 c 0,-1.1 0.3,-2.7 0.6,-3.6 1.1,-2.7 -2.9,0.2 -4.3,3.1 -1,2.2 -0.9,2.4 1.3,2.4 1.7,0 2.4,-0.6 2.4,-1.9 z"
         id="path160" />
      <path
         d="m 444.2,611 c -3.2,-2 -9.7,-11 -12.1,-16.8 -0.8,-1.9 -2.3,-3.3 -4.3,-3.8 -3.4,-1 -7.4,-5.6 -6.4,-7.3 0.5,-0.8 1.6,-0.5 3.3,0.9 3.3,2.5 6.3,2.5 10.6,0 3.2,-1.9 3.9,-2 11.3,-0.7 9.3,1.6 13.5,0.9 17.5,-2.9 2.5,-2.4 2.9,-2.5 3.5,-1 0.4,1.1 -0.2,2.9 -1.5,4.6 -1.6,2.2 -2.1,4.4 -2.1,8.7 0,8.1 -1.7,13.2 -5.5,17 -4,4 -9.1,4.4 -14.3,1.3 z m 11.6,-4.2 c 2.9,-3.2 4.2,-7.1 4.2,-12.9 0,-4.6 -0.1,-4.9 -2.7,-5.1 -8.1,-0.5 -12.2,1.6 -14.8,7.6 -3.5,8.1 7.4,16.6 13.3,10.4 z"
         id="path161" />
      <path
         d="m 403.2,578 c -4.3,-1 -9.7,-6.2 -12.7,-12 -3.5,-6.9 -4.8,-14.5 -4.3,-25.7 0.3,-8.8 0.7,-10.7 3.6,-16.6 3.6,-7.3 7.3,-10.2 11.6,-9.1 5.6,1.4 13.4,13.2 17.2,25.9 2.6,8.9 2.6,25.8 -0.1,30.4 -3.7,6.2 -9,8.7 -15.3,7.1 z m 1.2,-7.5 -2.6,-3.5 h 2.7 c 3,0 5.5,2 5.5,4.6 0,1.6 0.2,1.5 2.1,-0.2 3.3,-2.9 4.9,-7.7 4.9,-14.3 0,-8.6 -0.2,-8.8 -6.5,-8.3 -4.1,0.3 -6.1,0 -8.1,-1.3 l -2.7,-1.7 0.8,5.8 c 0.4,3.3 1.1,6.1 1.6,6.2 0.5,0.2 0.9,1.9 0.9,3.9 0,8 -5.2,-1.1 -6.6,-11.6 -0.6,-4.9 -0.5,-5.1 1.7,-5.2 l 2.4,-0.2 -2.4,-0.4 c -2.1,-0.4 -2.3,-0.9 -1.7,-4.1 0.3,-2 1,-3.8 1.6,-4 0.5,-0.2 0.7,-1.4 0.4,-2.8 -0.4,-1.5 0.3,-3.9 2,-7 2.5,-4.5 2.5,-4.6 0.6,-5.1 -1.1,-0.3 -2,-1 -2,-1.5 0,-2.2 -2.3,0.8 -4.5,5.8 -1.8,4.2 -4.5,14.3 -4.5,17.1 0,0.2 -0.7,0.3 -1.5,0.3 -0.8,0 -1.5,0.7 -1.5,1.5 0,0.8 0.6,1.5 1.4,1.5 1.4,0 2.6,2.9 2.6,6.7 0,6.7 7.1,18.2 12.5,20.4 3.5,1.4 3.7,1 0.9,-2.6 z m 6.7,-25.5 c 2.4,-1.4 2.4,-5.2 -0.1,-10.7 -3.1,-7 -8.5,-5.1 -8.5,2.9 0,3.1 0.7,4.5 2.8,6.4 3.2,2.8 3.2,2.7 5.8,1.4 z"
         id="path162" />
      <path
         d="m 483.3,572.5 c -15.2,-7.6 -19.5,-29.3 -9.8,-49.2 4.9,-10 12.9,-16.5 22.1,-18 2.7,-0.4 3.4,-0.2 3.4,1.1 0,0.9 0.7,1.6 1.5,1.6 0.8,0 1.5,-0.7 1.5,-1.6 0,-2.5 6.5,-1.1 11.5,2.4 9.4,6.6 14.8,17.8 14.8,31.2 0.1,15 -6.6,26.4 -18.8,32.1 -9.2,4.4 -13.5,3.8 -13.5,-1.7 0,-2.8 0.4,-3.4 2.1,-3.4 3.7,0 5.9,-1.9 5.9,-5 0,-2.5 0.4,-3 2.5,-3 3.6,0 3.1,1.7 -2,6.8 -2.5,2.4 -4.5,4.6 -4.5,4.8 0,1.2 9.7,-3.6 12.3,-6.1 3.6,-3.4 7.9,-8.5 7.3,-8.5 -1,0 2.8,-9.6 4.1,-10.3 1.7,-1.1 1.8,-8.7 0,-8.7 -0.7,0 -2.1,-2.5 -3,-5.6 -3.2,-10.5 -10,-17.9 -17.4,-19.1 l -3.8,-0.6 4.3,4.6 c 4.8,5.3 5.2,6.7 1.8,6.7 -2.1,0 -2.5,-0.5 -2.8,-3.7 -0.3,-3.3 -0.7,-3.8 -3,-4.1 -2.4,-0.3 -2.8,-0.8 -2.8,-3.3 0,-1.6 -0.3,-2.9 -0.7,-2.9 -1.5,0 -11.8,6.3 -10.8,6.6 0.6,0.1 2.7,0.5 4.8,0.9 2.3,0.4 3.7,1.1 3.7,2 0,0.8 0.6,1.5 1.4,1.5 1,0 1.7,1.6 2.2,4.5 0.7,5.2 -0.3,13.5 -1.7,13.5 -0.5,0 -0.9,0.7 -0.9,1.5 0,0.8 -1.1,2.2 -2.5,3.1 -3.3,2.2 -15.1,1 -16.5,-1.7 -1.6,-2.8 -1.2,-7.9 0.5,-7.9 0.8,0 1.5,0.6 1.5,1.4 0,0.7 0.9,2.5 2.1,4 2.9,3.6 6.3,3.4 10.5,-0.8 3,-3 3.4,-4 3.4,-8.5 0,-11.8 -10.9,-12.3 -15.1,-0.7 -1,2.7 -1.8,3.6 -3,3.3 -2.2,-0.6 -4.4,9.4 -3.5,16 0.7,5.5 4.8,14.4 8,17.6 2.7,2.6 8.9,5.7 11.6,5.7 1.3,0 2,0.7 2,2 0,2.8 -4.4,2.6 -10.7,-0.5 z"
         id="path163" />
      <path
         d="m 427.2,572.8 c -1.7,-1.7 -1.5,-4.5 0.4,-5.2 3.2,-1.2 8.4,-0.6 9.1,1.1 1.4,3.5 -6.6,7 -9.5,4.1 z"
         id="path164" />
      <path
         d="m 508,555.6 c 0,-5.4 1.2,-8.6 3.2,-8.6 1.8,0 1.9,0.4 1.3,3.7 -1.2,6.6 -4.5,10.2 -4.5,4.9 z"
         id="path165" />
      <path
         d="m 509,534 c 0,-4.5 2.3,-5.7 3.4,-1.7 1.1,4.1 0.7,5.7 -1.4,5.7 -1.7,0 -2,-0.7 -2,-4 z"
         id="path166" />
      <path
         d="m 633.6,447 -4,-0.5 5.5,-4.9 c 13.1,-11.8 31.1,-22.1 40.4,-23.2 9.2,-1.1 12.8,2 14.6,12.5 1.3,7.1 0.5,13.1 -1.6,13.1 -1.1,0 -1.5,-1.4 -1.5,-5.5 0,-4.1 -0.4,-5.5 -1.4,-5.5 -0.8,0 -1.7,-1.4 -2.1,-3 -0.4,-1.7 -1.7,-3.7 -2.9,-4.6 -2.1,-1.3 -2.9,-1.2 -8.5,0.5 -3.3,1 -6.1,1.5 -6.1,1 0,-0.4 -0.7,-0.6 -1.5,-0.3 -0.8,0.4 -1.5,1.1 -1.5,1.8 0,1.9 -5.4,4.6 -8,3.9 -1.9,-0.5 -2.2,-0.3 -1.7,1 0.4,1.1 -1.3,3.1 -6.1,6.9 -9.4,7.5 -9.3,7.4 -13.6,6.8 z"
         id="path167" />
    </g>
    <g
       fill="#010100"
       id="g172">
      <path
         d="m 571.5,723.3 c -4.9,-2.6 -9.4,-6.7 -13.7,-12.4 -4.7,-6.3 -5.4,-6.9 -9,-6.9 -1.5,0 -5.9,-1.2 -9.9,-2.6 l -7.2,-2.6 -3.6,4.1 c -4.9,5.5 -9.7,8.1 -14.9,8.1 -8.2,0 -12.3,-5.1 -12.8,-16 -0.2,-5.6 -0.6,-6.5 -2.3,-6.8 -1.4,-0.2 -2.9,1.2 -5.6,5.2 -7.4,11.2 -14.1,14.4 -18.4,9 -2.6,-3.3 -2.8,-10.5 -0.5,-20.6 0.9,-3.8 1.2,-7.3 0.8,-7.7 -0.5,-0.4 -3.3,-2.7 -6.2,-5.1 l -5.3,-4.3 -1.7,2.4 c -3.3,4.9 -12.9,14.3 -18.8,18.5 -8.2,5.9 -14.4,8.5 -20.3,8.6 -9,0.2 -12.7,-4.3 -11.8,-14.3 1,-11.5 9.1,-25.2 22.7,-38.3 l 8.9,-8.5 -1.6,-4 c -1.4,-3.6 -2,-4.1 -6.7,-5.2 -22.9,-5.4 -42.1,-19.1 -50.3,-35.7 -2.4,-5 -2.9,-7.2 -3.3,-17.4 l -0.5,-11.7 -6.5,-4.2 c -8,-5.1 -24.2,-21.3 -29.5,-29.4 -5.7,-8.7 -10.4,-20.2 -12.6,-30.8 -2.2,-11 -2.4,-16.6 -0.5,-21.1 1.7,-4.2 2.8,-4.8 7.6,-4.8 7.8,0.1 21.1,9.3 35,23.9 l 9,9.5 1.2,-3.3 c 2.4,-7 10.9,-22.5 14.2,-26.2 l 3.5,-3.7 -2,-9.3 c -3,-13.5 -2.3,-35.4 1.6,-48.2 1.5,-4.9 3,-9.8 3.3,-10.9 0.4,-1.6 0,-1.5 -4.1,0.8 -5.7,3.4 -9.1,3.2 -9.5,-0.5 -0.9,-7.8 23.9,-57.6 37.5,-75.4 2.7,-3.4 4.7,-5.1 6.5,-5.3 5.1,-0.6 5,1.7 -0.1,23.8 -2.7,11.3 -4.5,20.6 -4.1,20.8 0.5,0.2 3,-1.1 5.8,-2.7 5.4,-3.4 8.3,-3.9 10.2,-1.6 1.5,1.8 1,3.2 -8,26 -12.7,32 -17.3,46.7 -18.5,59 l -0.6,6 2.3,-3 c 4.2,-5.5 9,-10.5 10.1,-10.5 0.5,0 1.6,0.8 2.3,1.7 0.7,1 1.4,1.6 1.6,1.3 4,-5.4 11.7,-13.4 14.4,-15.1 4.5,-2.7 6.2,-2 6.6,3 l 0.3,4 5,-3.1 c 11,-6.9 29.2,-12.7 30.9,-9.9 0.4,0.6 -0.4,3.2 -1.8,5.8 l -2.6,4.6 5.2,-0.7 c 2.9,-0.3 8.3,-0.9 12.1,-1.2 l 6.7,-0.7 2,-4.5 c 2.5,-5.5 2.5,-5.5 0.1,-4.2 -1.5,0.7 -2.3,0.6 -3.5,-0.6 -0.9,-0.8 -1.6,-1.8 -1.6,-2.2 0,-1.9 9.6,-33.3 11.1,-36.2 1.8,-3.6 18.5,-20.4 30.1,-30.4 3.7,-3.2 6.5,-6.2 6.2,-6.7 -0.3,-0.5 -2,-0.9 -3.9,-0.9 -6.9,0 -10.6,-3.1 -8.5,-7 3.4,-6.4 76.4,-47.9 84.9,-48.3 4.2,-0.2 6,2 4.4,5.6 -0.7,1.4 -9.7,10.3 -20.2,19.8 -10.4,9.5 -18.8,17.6 -18.5,18.1 0.3,0.4 2.1,0.8 4,0.8 5,0 7.4,1.6 7.4,4.8 0,2.2 -2.2,4.8 -11.2,13.2 -6.2,5.8 -14.9,14 -19.3,18.2 l -8,7.8 h 8.3 c 9.2,0 12.2,1 12.2,4.2 0,1.5 -8.6,10.8 -26.8,29.2 -14.7,14.9 -27.8,28.5 -29,30.3 l -2.3,3.2 5.9,0.7 c 3.3,0.3 6.5,1 7.1,1.3 1.6,1 0.3,3.9 -2,4.6 -1,0.4 -1.9,1 -1.9,1.5 0,0.9 2.3,1.6 12.5,4.1 2.8,0.6 5.6,1.6 6.3,2.2 2.1,1.6 1.3,4.6 -1.5,6.1 l -2.7,1.4 7.9,3.8 c 6.1,3 8.1,4.4 8.3,6.1 0.3,1.7 -0.4,2.6 -2.5,3.4 l -2.8,1 3,2.7 c 1.7,1.5 5.5,4.8 8.5,7.4 4.7,4 5.3,4.9 4.4,6.5 -0.6,1 -2.3,2.4 -3.7,3.1 -2.7,1.3 -3.5,3.6 -1.7,4.7 0.6,0.4 2.2,2.9 3.5,5.6 1.4,2.7 2.7,4.9 2.9,4.9 0.2,0 2.5,-3.9 5.1,-8.7 6.6,-12.3 18.1,-28.9 29.1,-41.9 19.4,-23.1 41.9,-39.7 58.8,-43.5 6.2,-1.4 9.6,-0.2 13,4.4 1.9,2.6 2.1,4.2 2,16 -0.1,11.5 -0.5,14.8 -3.3,25.2 -8,29.9 -27.7,58.2 -51.6,73.9 -5,3.3 -9.3,6.2 -9.8,6.6 -0.4,0.4 4.8,0.6 11.5,0.6 14.4,0 21.3,1.8 25.3,6.5 3,3.6 3.1,5.8 0.6,10.7 -5.4,10.6 -21.5,19.5 -40.1,22.3 -7.4,1 -8,1.3 -6.8,2.9 0.7,1 3.2,4.2 5.4,7.1 8.8,11.5 14,23.7 16.4,38 1.3,8.1 3.8,11.8 11.2,16.5 5.1,3.3 5.6,5.6 2.1,10.6 -3.4,5 -13.4,13.5 -16.9,14.4 -1.5,0.4 -3.8,2.7 -6,6 -7.7,11.6 -21.6,21.1 -34.7,23.8 l -6.2,1.3 -0.5,7.5 c -0.6,9.1 -2.4,11.8 -7.9,11.8 -2,-0.1 -4.9,-0.8 -6.6,-1.7 z m 8.3,-10.5 0.3,-5.8 h -8.6 c -4.7,0 -8.5,0.4 -8.5,0.8 0,1 6.6,7.3 10,9.6 1.4,0.9 3.4,1.5 4.5,1.4 1.7,-0.3 2,-1.2 2.3,-6 z M 519.9,702 c 5.7,-4.2 12.5,-13.6 18.2,-25.5 7.6,-15.6 9.7,-27.6 6.8,-39.1 -0.8,-3.1 -0.8,-4.9 -0.2,-5.5 1.6,-1.6 5.2,2.8 5.9,7 0.9,5.5 1.5,7.1 2.5,7.1 0.5,0 4.4,-3.3 8.7,-7.4 13.7,-13.1 19.8,-26.7 19,-42.4 -0.7,-13.5 -5.5,-22.2 -12.3,-22.2 -0.8,0 -2.9,2.1 -4.7,4.8 -5.1,7.4 -16.5,18.2 -25.8,24.3 -11.6,7.7 -21.1,12.3 -34.9,16.9 -16.5,5.5 -27.6,7.3 -44.3,6.8 -13.4,-0.3 -13.8,-0.2 -13.2,1.7 2,6.4 10.8,20.4 18.4,29.4 10.7,12.5 38,28.8 38,22.7 0,-7.8 15.6,-42.3 21.4,-47.4 2,-1.8 4.1,-3.2 4.6,-3.2 2.1,0 0.9,4.2 -2.8,9.9 -5.9,9 -14,27.7 -16.8,38.7 -5.5,21.5 -0.4,32 11.5,23.4 z m 78.5,-5.4 c 20.3,-7.7 34.4,-29.3 33.4,-51 l -0.3,-6.1 -2.8,7.9 c -8.5,23.6 -28.5,42.5 -52.7,49.7 -7,2.1 -4.6,3.2 5.8,2.6 7,-0.4 11.6,-1.2 16.6,-3.1 z m -112.6,-3.9 c 5.7,-7.6 5.7,-7.3 0.6,-10.1 -2.6,-1.4 -5,-2.6 -5.4,-2.6 -1.8,0 -4,16.7 -2.4,18.3 1.2,1.1 3.3,-0.6 7.2,-5.6 z m 69.7,-5.3 c 24.7,-8.2 44.5,-24.5 54.9,-45.1 6.4,-12.7 9.6,-32.9 6.5,-41 -2.3,-6.2 -12.7,-17.3 -16.1,-17.3 -0.4,0 -0.4,4.6 -0.1,10.3 0.7,13.3 -1.2,22.6 -7.4,34.9 -7.6,15.1 -23.6,30 -39,36.3 -3.2,1.3 -6,2.9 -6.4,3.7 -0.3,0.7 -2.8,5.9 -5.6,11.6 -2.7,5.6 -4.8,10.4 -4.6,10.6 0.7,0.6 9.8,-1.4 17.8,-4 z m -122.2,-3.1 c 2.7,-1.5 7.3,-4.9 10.4,-7.5 5.6,-5 14.3,-14.6 14.3,-15.9 0,-0.6 -12.4,-19.6 -13.5,-20.8 -0.9,-0.9 -10.1,7.7 -15.5,14.5 -7.4,9.3 -11.9,18.5 -12.7,25.6 -0.5,4.9 -0.3,5.7 1.6,7 2.8,2 8.4,0.9 15.4,-2.9 z m 207.6,-22.2 c 2.8,-2.7 5.1,-5.4 5.1,-6 0,-1 -7.9,-7.6 -8.4,-7 -0.2,0.2 -0.9,3.3 -1.5,6.9 -0.7,3.6 -1.5,7.5 -1.8,8.8 -0.8,3.4 1.1,2.7 6.6,-2.7 z M 487,619.1 c 12,-2.7 20,-5.5 31.6,-11.1 12.8,-6 20.6,-11.3 30.1,-20.3 11.4,-10.9 18.5,-21.7 20.8,-32.1 1,-4.4 1.5,-5.1 3.6,-5.1 1.7,0 2.4,-0.5 2.2,-1.9 -0.1,-1 -0.4,-5 -0.8,-8.7 l -0.7,-6.9 h 2.7 c 1.8,0 2.5,-0.4 2.2,-1.2 -0.3,-0.7 -1.5,-3.7 -2.8,-6.6 -2.1,-5 -2.1,-5.3 -0.4,-6.6 1.7,-1.2 1.7,-1.4 0,-4.7 -1,-1.9 -3.7,-6.5 -6.1,-10.2 -2.4,-3.7 -4.4,-7.2 -4.4,-7.6 0,-1.1 2.5,-2.1 5.1,-2.1 1,0 1.9,-0.4 1.9,-0.9 0,-0.9 -5.6,-6.1 -13.5,-12.6 l -4.9,-3.9 3.2,-1.3 c 1.8,-0.7 3.2,-1.7 3.2,-2.1 0,-0.4 -3.7,-2.3 -8.2,-4.2 -4.5,-1.9 -8.3,-4 -8.5,-4.6 -0.2,-0.6 1,-1.7 2.7,-2.4 1.6,-0.7 3,-1.6 3,-2.1 0,-1 -5.2,-2.5 -13.6,-4 -8.2,-1.4 -9.6,-2.4 -6.6,-4.8 3,-2.6 2.8,-3.1 -1.2,-3.1 -3.2,0 -3.8,0.5 -7.8,7 -10.5,17 -11.9,19.1 -14.2,20.1 -3.6,1.7 -7.4,0.4 -8.2,-2.7 -0.7,-2.9 1.5,-11.7 5.7,-22.3 3,-7.5 2.8,-9 -0.8,-9.1 -1.9,0 -1.6,-1.1 0.9,-3.7 1.2,-1.3 1.9,-2.6 1.5,-2.9 -0.7,-0.7 -19.3,2.1 -23.1,3.5 -2.2,0.9 -2.6,0.8 -2.6,-0.7 0,-0.9 1.1,-3.5 2.5,-5.7 2.8,-4.6 3,-5.5 1.3,-5.5 -2.3,0 -21.2,9.7 -26.3,13.4 -2.7,2 -5.3,3.6 -5.7,3.6 -0.4,0 -1,-2.1 -1.4,-4.6 l -0.6,-4.5 -2.3,2.1 c -1.3,1.2 -4.5,5.3 -7.2,9.1 -5.1,7.3 -6.6,8.1 -8.3,4.9 -1.5,-2.9 -2.3,-2.5 -6,2.8 -1.8,2.6 -4.2,5.7 -5.4,7 -1.8,2 -2,3.4 -1.7,11.3 0.2,7 -0.1,9.5 -1.4,11.5 -3.1,4.8 -10.1,1.6 -12.8,-5.9 -1.4,-3.8 -12.4,14.4 -16.5,27.3 -3.8,11.9 -4.5,18.1 -3.8,33.8 2.1,44.7 1.8,42.1 5.4,49.4 7.4,15.1 28,28.3 52.2,33.4 9.2,1.9 34.8,1.1 46,-1.5 z M 618.9,580 c 11.2,-1.5 21.6,-4.9 28.6,-9.5 6,-4 11.8,-11.6 10.8,-14.1 -1.2,-3.1 -6.6,-4.7 -17.6,-5.2 -13.6,-0.6 -23.1,0.9 -37.7,6 -18.2,6.3 -23.2,7.9 -27.3,8.6 -2.1,0.4 -3.9,1.1 -4,1.7 -0.3,1.6 32,13.1 37.8,13.4 0.6,0.1 4.8,-0.4 9.4,-0.9 z m -33.2,-23.1 c 10.7,-3.7 27.9,-12 39,-18.7 22.4,-13.6 39.7,-33.5 49.9,-57.6 6.4,-15.1 8.5,-24.1 9.1,-38.6 0.5,-12.3 0.5,-12.7 -1.9,-15.5 -2.4,-2.8 -2.6,-2.8 -7.2,-1.6 -25.4,6.4 -65.5,47.3 -86.6,88.4 -2.4,4.5 -4.9,8.9 -5.7,9.8 -1.2,1.5 -1.1,2.1 1.2,5.5 3.5,5.2 3,8.5 -1.3,9.8 -2.8,0.8 -3.2,1.3 -2.7,3.3 0.3,1.2 0.8,4.2 1.1,6.6 0.5,3.8 0.3,4.5 -2.5,7.1 -3.1,3 -3.9,4.6 -2.2,4.6 0.5,0 4.9,-1.4 9.8,-3.1 z m -207,-9.1 c -2,-14.3 -1.8,-22.8 0.8,-36.3 0.5,-2.6 -0.3,-3.9 -6.2,-10.7 -12.6,-14.1 -29.9,-27.2 -35.3,-26.6 -2.4,0.3 -2.5,0.6 -2.8,8.2 -0.3,9.1 2.7,21.5 7.7,31.4 3.5,6.9 13.3,20.2 18.7,25.4 4.5,4.3 15.5,12.6 16.8,12.7 0.4,0.1 0.6,-1.8 0.3,-4.1 z m 34,-85 c -0.1,-23.8 1.8,-31.9 16.9,-71 4.6,-12.1 8.2,-22.3 8,-22.6 -0.3,-0.2 -3.3,1.2 -6.6,3.2 -3.4,2 -6.8,3.6 -7.7,3.6 -1.9,0 -1.5,-3.8 3.3,-25.3 2,-8.7 3.4,-16.1 3.1,-16.3 -0.7,-0.7 -9.4,13 -15.7,25 -7.9,14.9 -16.2,34 -15,34.4 0.5,0.2 3.4,-1 6.4,-2.7 9,-5.2 9.3,-4.5 4.1,11.4 -6.1,18.7 -7.9,31 -6.3,45.3 1.4,13.5 6.4,31.2 8.7,31.2 0.5,0 0.9,-7.3 0.8,-16.2 z m 93.7,4 c 5.1,-9.1 19.3,-29.3 26.1,-37.3 4.2,-4.9 16.2,-17.6 26.6,-28 10.4,-10.5 18.7,-19.4 18.3,-19.8 -0.4,-0.4 -5.6,-0.7 -11.6,-0.7 -8.7,0 -10.8,-0.3 -10.8,-1.4 0,-0.8 9.5,-10.3 21,-21.1 11.6,-10.8 20.8,-20 20.5,-20.5 -0.3,-0.5 -3,-1.2 -6,-1.5 -3,-0.4 -6.2,-1.3 -7.2,-2 -2,-1.5 -1.6,-1.9 22,-23.9 7,-6.5 12.6,-12.1 12.3,-12.3 -1,-1 -38.1,20 -61.3,34.8 -3.2,2 -2.9,2.7 1.5,3.4 7.6,1.3 11.2,2.6 11.2,3.9 0,0.8 -4.4,5.1 -9.7,9.7 -16.1,13.6 -32.3,30 -34.3,34.5 -2.4,5.4 -6.3,19.4 -5.6,20.1 0.2,0.3 3,-1.6 6.1,-4.1 5.8,-4.7 7.5,-5.5 7.5,-3.5 0,0.7 -4.7,10.7 -10.4,22.3 -11.8,23.8 -21.8,50.6 -18.9,50.6 0.5,0 1.7,-1.5 2.7,-3.2 z"
         id="path168" />
      <path
         d="m 445.3,611.1 c -3.6,-2.3 -8.3,-8.3 -11.9,-15.3 -1.4,-2.7 -3.3,-4.9 -4.6,-5.3 -2.9,-0.9 -6.8,-4.4 -6.8,-6.2 0,-1 1.1,-0.7 4,0.9 l 3.9,2.3 4.5,-2.5 c 4.3,-2.3 4.9,-2.3 10.4,-1.2 3.2,0.7 7.6,1.2 9.8,1.2 3.9,0 10.4,-3.1 10.4,-5 0,-0.5 0.5,-1 1,-1 1.5,0 1.2,3.6 -0.4,4.9 -0.8,0.7 -1.5,4.1 -1.9,8.9 -0.8,11.8 -4.9,18.8 -11.8,19.8 -2.4,0.3 -4.4,-0.1 -6.6,-1.5 z m 10.7,-3.9 c 2.8,-2.9 5.5,-11.8 4.8,-16.4 -0.3,-1.9 -0.9,-2.2 -6.3,-2.3 -3.3,-0.1 -8.3,-0.5 -11,-0.9 -4.2,-0.7 -5.4,-0.5 -7.2,1 l -2.3,1.9 5,7.7 c 7.9,12.1 11.8,14.2 17,9 z"
         id="path169" />
      <path
         d="m 402,577.3 c -9.8,-3.8 -16.7,-20.1 -15.7,-36.8 0.8,-13.5 6.9,-25.5 13,-25.5 9.8,0 20.7,22.2 20.7,42.4 0,10 -1.3,14 -5.9,17.9 -3.2,2.6 -8.2,3.5 -12.1,2 z m 5,-3.8 c 0,-0.3 -1,-1.6 -2.1,-2.8 -3.3,-3.4 -6.8,-12 -7.9,-19.5 -1.4,-8.5 0,-17.8 3.5,-24.5 1.4,-2.7 2.5,-5.1 2.5,-5.3 0,-0.2 -1.1,-0.4 -2.4,-0.4 -3.5,0 -7.2,5.3 -9.2,13.1 -3.5,13.7 0.6,31 8.9,37 3.7,2.7 6.7,3.7 6.7,2.4 z m 4.9,-28.4 c 2.9,-1.8 0.7,-11.7 -3.2,-14.9 -3.2,-2.7 -6.7,1.5 -6.7,7.9 0,5.3 6,9.5 9.9,7 z"
         id="path170" />
      <path
         d="m 488.3,574.1 c -11.8,-3 -19.3,-14.8 -19.3,-30 0,-19.9 12.3,-36.5 28.5,-38.8 6.6,-0.9 12.8,1.3 18.5,6.4 10.7,9.6 14.8,26.3 10.1,40.6 -2.7,8.1 -9.1,15.7 -16.3,19.3 -5.4,2.8 -15.8,4 -21.5,2.5 z m 18.2,-5.5 c 6.3,-3 9.7,-6.6 13.1,-13.9 2.4,-5.3 2.6,-6.7 2.2,-15 -0.3,-6.9 -1,-10.3 -2.6,-13.4 -2.6,-5 -7.6,-10.9 -10.6,-12.5 -2.5,-1.3 -8.6,-2.8 -8.6,-2.1 0,0.3 1.6,2.4 3.6,4.6 2,2.2 4.8,6.5 6.3,9.6 2.3,4.9 2.6,6.9 2.6,16.1 0,9.5 -0.3,11 -2.8,16.2 -1.6,3.2 -4.7,7.3 -6.9,9.3 -4.8,4.1 -3.4,4.5 3.7,1.1 z M 491,538 c 6.3,-6.7 4.1,-18.2 -3.5,-18.2 -4.9,0 -9.5,6.3 -9.5,13.2 0,7.9 7.5,10.8 13,5 z"
         id="path171" />
      <path
         d="m 428.1,572.4 c -3.8,-2.7 -2.6,-4.4 2.8,-4.4 5.1,0 6.5,0.7 5.3,2.7 -1.5,2.4 -5.8,3.2 -8.1,1.7 z"
         id="path172" />
    </g>
    <path
       style="fill:#ffffff;stroke-width:0;stroke-linecap:round;stroke-linejoin:bevel"
       d="m 396.32758,821.95858 c -1.93798,-2.30316 -2.80955,-5.25383 -2.38606,-8.07789 0.41239,-2.75 2.20874,-5.97711 3.32713,-5.97711 2.33752,0 6.01147,5.68882 6.81277,10.54903 0.58497,3.54816 -0.63672,5.17659 -3.88365,5.17659 -2.04414,0 -2.70421,-0.28493 -3.87019,-1.67062 z"
       id="path173"
       transform="matrix(0.90499998,0,0,0.90499998,46.64001,-200.88203)" />
    <path
       style="fill:#ffffff;stroke-width:0;stroke-linecap:round;stroke-linejoin:bevel"
       d="m 480.86476,817.73862 c -5.12896,-4.31573 -4.39769,-12.32291 1.64924,-18.05877 4.12662,-3.91433 6.07981,-3.8818 9.16028,0.15257 2.8141,3.68551 3.18712,7.4177 1.14876,11.49388 -3.48931,6.97769 -8.25155,9.53132 -11.95828,6.41232 z"
       id="path174"
       transform="matrix(0.90499998,0,0,0.90499998,46.64001,-200.88203)" />
  </g>
</svg>
