<svg xmlns="http://www.w3.org/2000/svg" viewBox="0 0 96 96">
  <rect width="96" height="96" rx="24" fill="#fff6ec"/>
  <ellipse cx="48" cy="78" rx="24" ry="10" fill="#e9d8c5"/>
  <path d="M25 58c0-15 10-27 23-27s23 12 23 27v6H25z" fill="#d64545"/>
  <path d="M29 36 21 16l19 12z" fill="#b73030"/>
  <path d="M67 36 75 16 56 12z" fill="#b73030"/>
  <path d="M38 61c4 5 16 5 20 0" fill="none" stroke="#fff6ec" stroke-linecap="round" stroke-width="4"/>
  <circle cx="39" cy="49" r="4" fill="#2d1b14"/>
  <circle cx="57" cy="49" r="4" fill="#2d1b14"/>
  <path d="M68 62c11 3 15 15 8 23-7 7-18 6-24 0 7-1 11-4 13-9-7 1-12 0-16-4 8-6 12-10 19-10z" fill="#f08a4b"/>
</svg>
