<svg xmlns="http://www.w3.org/2000/svg" viewBox="0 0 96 96">
  <rect width="96" height="96" rx="24" fill="#eff7ff"/>
  <ellipse cx="48" cy="79" rx="25" ry="9" fill="#d7e8f5"/>
  <path d="M24 58c0-15 11-27 24-27 12 0 24 12 24 27v6H24z" fill="#4d77b4"/>
  <path d="M48 18c6 5 10 10 11 17-6-3-10-3-15 0 1-7 2-12 4-17z" fill="#7dc0eb"/>
  <circle cx="39" cy="49" r="4" fill="#20364e"/>
  <circle cx="57" cy="49" r="4" fill="#20364e"/>
  <path d="M38 62c5 4 15 4 20 0" fill="none" stroke="#f4fbff" stroke-linecap="round" stroke-width="4"/>
  <path d="M24 69c7-7 16-9 24-6-7 5-10 10-12 18-6-2-10-7-12-12z" fill="#7dc0eb"/>
  <path d="M72 64c7 5 8 13 3 19-5 6-13 8-21 5 5-3 8-7 8-12-4 0-8-1-12-4 8-5 15-8 22-8z" fill="#7dc0eb"/>
</svg>
