<svg class="img-fluid" width="1024" height="1024" cursor="move" style="transform-origin:50% 50% 0px;transform:none" inkscape:export-filename="zapbee-sprite.png" inkscape:export-xdpi="24" inkscape:export-ydpi="24" inkscape:version="1.4.3 (0d15f75042, 2025-12-25)" sodipodi:docname="zapbee-sprite.svg" version="1.1" viewBox="0 0 10240 10240" xmlns="http://www.w3.org/2000/svg" xmlns:inkscape="http://www.inkscape.org/namespaces/inkscape" xmlns:sodipodi="http://sodipodi.sourceforge.net/DTD/sodipodi-0.dtd"><sodipodi:namedview bordercolor="#000000" borderopacity="0.25" inkscape:current-layer="g12" inkscape:cx="-364.07075" inkscape:cy="1102.6143" inkscape:deskcolor="#d1d1d1" inkscape:pagecheckerboard="true" inkscape:pageopacity="0.0" inkscape:showpageshadow="2" inkscape:window-height="795" inkscape:window-maximized="1" inkscape:window-width="1536" inkscape:window-x="0" inkscape:window-y="0" inkscape:zoom="0.2403379" pagecolor="#ffffff"/><g transform="matrix(1.2044125,0,0,1.2044125,-949.19096,966.19148)"><g transform="matrix(1.397691,0,0,1.397691,-2004.0166,-3062.1653)"><g fill="#fff"><path d="m3890 5211c0-49 4-65 26-90 23-28 31-31 83-31 31 0 62 5 69 12 20 20 14 92-11 129-22 33-25 34-95 37l-72 3z"/></g><g fill="#c5ebfd"><path d="m5240 4967c0-18 5-38 12-45 9-9 7-12-10-12-18 0-22-6-22-33 0-96 351-862 550-1202 115-195 271-423 392-572 185-228 443-468 653-608 130-87 171-105 233-105h55l-7 83c-10 122-49 280-118 482-34 99-73 214-87 255s-29 76-33 78-8 22-8 45c0 45-42 200-84 311-42 109-148 308-168 314-10 2-18 12-18 22 0 43-191 258-355 399-213 183-265 221-504 360-94 55-197 118-229 139-121 83-193 122-222 122-27 0-30-3-30-33z"/><path d="m6348 4493c-24-4-28-9-28-37 0-46 15-56 87-56h63v33c0 58-33 73-122 60z"/><path d="m6480 4411c0-57 6-61 86-61h54v35c0 25-4 35-15 35-9 0-25 9-37 20-13 12-36 20-55 20-33 0-33 0-33-49z"/></g><g fill="#a7d7ed"><path d="m5190 4988c0-59 17-116 47-155 33-44 47-42 28 3-21 52-20 52 24 3l39-44 8 29c4 17 2 36-5 48-6 10-17 28-23 41-7 12-20 31-28 41-15 19-14 19 10 3 33-23 40-21 40 8 0 14-5 25-10 25-6 0-20 9-32 20-14 13-36 20-60 20h-38z"/><path d="m5470 4985c0-22 6-38 15-41 8-4 15-16 15-28 0-52 277-254 507-370 168-84 286-126 351-125 31 1 47 4 35 6s-27 12-35 21c-9 11-9 14-1 8 7-4 21-2 32 4 17 9 25 4 53-34 20-26 47-49 68-56 19-7 37-16 40-21 7-10 156-29 227-29h53v36c0 29-11 49-60 109-128 154-386 355-456 355-26 0-34 4-34 19 0 31-157 94-326 131-116 25-324 50-416 50h-68zm1073-578c4 3 7 1 7-5 0-7 10-13 23-13 18-1 18-2 4-6-34-9-67 6-67 30 1 20 2 21 14 5 7-10 16-15 19-11z"/><path d="m4840 4680c0-35 4-34-50-15-23 8-55 15-71 15-34 0-33 11-19-216 12-195 32-334 77-519 93-387 260-770 456-1040l72-100 58-3 57-3v46c0 25-7 89-15 143-25 169-35 273-45 498-16 342-59 572-144 773-53 126-177 328-253 412-31 34-41 39-79 39-42 0-44-1-44-30z"/></g><g fill="#7db6d4"><path d="m5430 4987c0-37 48-90 110-119 19-9 51-24 70-34 31-15 28-10-25 40-37 36-47 48-25 33 42-29 322-153 440-195 246-87 290-111 379-208 61-66 62-69 38-72-19-2-24-8-20-20 10-30 36-42 92-42 51 0 54 1 38 18-29 30-147 182-142 182 3 0 57-16 121-35 155-47 176-47 132 4-13 14-6 10 15-8l37-35v25c0 32-35 64-79 73-34 6-34 6-16-14 23-26 15-25-105 5-112 28-238 72-324 111l-58 26 88 34c49 19 99 33 112 31 17-3 22 0 22 19 0 30-27 44-82 43-38 0-41-2-20-11 20-10 14-14-65-44-49-19-103-34-121-34-47 0-184 55-497 201l-50 23 33 4c31 3 33 4 15 17-10 8-39 15-65 15-48 0-48 0-48-33z"/><path d="m5210 4942c0-30 5-44 19-51 18-10 18-9 5 36-19 61-24 65-24 15z"/><path d="m5270 4976c0-2 19-15 43-30l42-27-35 31c-30 27-50 37-50 26z"/><path d="m5240 4940c0-5 9-14 20-20 21-11 42-51 44-82 1-9 39-63 86-120 207-250 387-479 595-757l168-225 9-100c4-56 13-137 19-181 28-217 113-465 158-465 16 0 14 12-24 118-53 146-83 284-93 430-4 61-6 112-4 112s43-39 90-86c93-93 185-160 297-217 93-46 194-87 217-87 10 0 18-7 18-15s7-15 15-15c16 0 19 27 9 79-5 21-12 31-25 31-11 0-19-7-19-15 0-23-17-19-137 39-183 89-284 163-400 296-79 90-267 349-260 357 3 2 22-4 44-15 60-31 192-69 277-81 99-14 239-15 231-1-3 6-4 10-1 10s12-12 20-27l15-28 1 32c0 53-16 83-46 83-19 0-25-4-20-15 4-12-5-15-54-15-84 0-205 19-275 42-78 26-217 91-256 119-35 25-180 197-453 539-204 256-266 321-266 280z"/><path d="m4796 4631c-3-5 2-11 12-13 11-3 18-16 20-35 1-16 27-117 58-224 69-242 79-316 64-474-6-66-15-138-20-160-20-85-4-163 21-98 19 50 40 167 48 263l7 95 18-40c44-99 120-356 141-477 3-21 11-38 17-38 14 0 3 128-21 240-11 47-17 87-16 89 7 6 96-139 124-202 55-122 51-118 48-52-4 75-43 157-132 280-113 155-169 284-256 597-28 101-56 191-61 201-7 14-5 17 13 17 15 0 19 4 15 16-3 9-6 18-6 20 0 8-89 4-94-5z"/><path d="m4891 3627c-1-34 3-49 14-54 24-8 24-3 4 52l-17 50z"/><path d="m5325 3586c3-27 5-75 5-107 0-33 4-59 10-59 16 0 11 150-6 185-14 30-14 30-9-19z"/><path d="m6240 3066c0-4 11-29 25-56 21-41 30-50 52-50 25 0 24 1-22 53-27 28-50 54-52 56s-3 1-3-3z"/></g><g fill="#f6c822"><path d="m6654 7038c0-212-17-322-68-449-38-96-36-108 31-149 124-77 156-90 212-90h54l-6 128c-3 70-14 177-22 237-18 116-81 376-112 460-17 46-22 50-53 53l-35 3z"/><path d="m6370 6332c0-34-55-92-88-92-18 0-22-6-22-33 0-28 9-42 63-88 104-92 191-157 293-219 79-48 107-60 140-60h42l21 63c25 77 51 190 51 223 0 23-3 24-57 24-65 0-74 5-211 104-109 78-161 106-202 106-26 0-30-3-30-28z"/><path d="m4430 6073c-110-70-192-127-199-141-7-12-22-15-59-13-57 2-57 3-68-117-5-57-4-72 7-75 8-3 41-9 74-16 85-16 157-54 231-123 73-69 119-139 163-251 35-88 37-97 16-97-22 0-19-52 6-94 19-32 19-37 5-42-22-8-20-49 4-120l21-59-26-72c-28-79-31-116-12-130 28-22 103-44 173-50 71-6 74-5 74 16 0 20 5 21 75 21 67 0 75 2 75 19 0 24 19 31 80 31 42 0 53 5 84 36 27 27 36 44 36 70 0 29-5 36-32 48-79 34-142 140-141 241 0 67 32 151 76 198 32 34 50 34 75 2 16-20 29-25 66-25h46v43c0 146-99 277-209 277-38 0-48-6-91-50-52-54-65-58-110-35-42 22-70 76-86 167-9 52-24 97-39 120-32 49-102 95-164 110l-51 11v117l-37-1c-21 0-49-7-63-16z"/><path d="m6070 6038c0-22-9-42-31-64-27-28-35-31-75-26l-44 5v-35c0-28 9-43 58-88 31-30 94-103 139-161 137-179 233-249 341-249 56 0 59 2 104 48 80 82 118 140 118 178 0 19-6 36-12 38-7 2-32 9-54 15-66 18-186 103-302 214-137 132-171 157-210 157-29 0-32-3-32-32z"/><path d="m3720 5846c-115-43-257-132-343-214-54-53-57-59-57-105 0-33-14-82-46-163-61-154-74-274-48-441 5-31 7-33 49-33s45 2 86 60c23 33 43 59 45 57 2-1-15-63-36-137-22-74-40-148-40-163 0-62 122-190 253-265 120-69 175-85 315-90l122-4v34c0 18-16 67-36 108s-76 165-126 275-92 205-95 210c-28 55 210-273 328-452l74-113h45c61 0 152 54 246 145l72 70-2 230c-2 219-4 234-30 320-59 192-117 261-393 467-117 87-179 140-181 154-4 27-80 64-130 63-20 0-53-6-72-13zm380-436c49-26 115-97 139-150 26-58 27-147 1-220-11-30-19-74-20-97v-42l-57 31c-163 88-253 189-287 322-12 46-13 69-6 98 22 80 133 108 230 58z"/><path d="m5740 5737c0-25 9-42 35-67l34-33-52-39c-29-22-64-42-79-45-24-5-28-11-28-38 0-18 14-64 32-101 28-60 32-78 30-140-2-86-11-82 169-91 99-5 141-2 203 11 123 28 146 40 146 79 0 29-6 35-55 61-71 37-141 113-212 233-32 53-79 120-106 150-41 44-55 53-83 53-32 0-34-2-34-33z"/></g><g fill="#d8a51d"><path d="m6563 7428c3-24 11-79 17-123 30-198-24-509-115-660-27-44-35-68-33-94 3-32 6-36 38-42 19-3 45-11 57-17 12-7 41-12 65-11 36 0 40 2 22 11l-21 10 25 61c48 119 65 234 66 445 1 156 3 189 14 175 6-9 12-24 12-32 0-14 1-14 10-1 18 28 10 66-39 191l-48 124-76 6z"/><path d="m6169 6362c-60-39-71-54-67-97 3-36 5-38 61-55 31-10 68-25 82-34 13-9 39-16 56-16h32l-24 26c-17 18-19 23-6 19 12-5 33 8 71 41 51 46 53 50 37 68s-15 18 17 2c25-13 32-14 32-3 0 40-94 77-199 77-35 0-59-7-92-28z"/><path d="m5859 6091c-68-44-91-73-87-112 3-30 8-35 47-46 24-7 57-23 75-36 37-27 81-47 103-47 12 0 8 10-18 36l-34 37 32-23c18-13 34-22 36-19 2 2 27 30 57 62 48 52 53 60 42 78-12 19-12 19 13 3 24-16 25-15 25 3 0 48-88 93-183 93-52 0-71-5-108-29z"/><path d="m5596 5743c-61-118-61-142 5-210 54-56 96-72 83-30-3 12-3 19 1 15s22 0 39 9c44 23 136 94 136 105 0 5-19 30-42 57-24 26-17 21 15-12 53-56 57-58 57-33 0 32-77 122-138 159-24 16-57 27-77 27-33 0-36-4-79-87z"/><path d="m3860 5800c19-12 26-18 15-15-39 12 27-46 203-176 270-202 330-273 388-464 25-81 28-105 28-240 0-82-5-167-11-187-10-32-9-38 4-38 9 0 13-6 9-15-11-30 39-17 57 15 60 101 92 276 63 344-15 36-15 41-1 48 8 5 15 19 16 31 0 12 3 16 6 10 5-13 33-18 33-7 0 4-13 29-30 55-37 60-32 63 9 7 39-53 40-33 2 82-23 73-30 85-49 84-12 0-22 5-22 11 0 25-223 228-319 290-141 92-313 174-381 181l-55 5z"/></g><g fill="#373636"><path d="m5813 7588c-60-68-108-172-127-278-9-50-17-67-33-75-28-12-41-41-55-125-9-52-9-81 0-118 11-47 9-55-24-138-47-116-73-219-81-320-5-74-8-83-27-86-27-4-97-160-131-291-50-196-56-454-14-543 14-29 15-29 106-32l92-3 31 46c49 72 110 211 135 310 20 80 30 149 51 383 4 44 10 62 20 62 7 0 20 13 28 28 33 64 47 149 53 327l6 180 28 25c23 20 32 41 44 98 17 84 20 172 5 172-6 0-10 68-10 184 0 101-3 191-6 200-9 25-67 20-91-6z"/><path d="m4423 7271c-68-49-153-168-193-271-30-76-37-177-16-218 21-40 20-90-4-237-32-190-26-239 35-343 24-40 36-76 42-122 8-63 9-65 39-68 21-2 51 9 100 38 38 22 76 44 84 49 24 13 23 54-6 146-26 83-26 88-10 121 22 48 21 121-3 142-12 11-23 43-31 92-23 136-23 147-2 182 16 26 21 58 25 158 4 69 13 154 22 190s18 89 22 118l5 52h-34c-23 0-49-10-75-29z"/><path d="m5140 7154c-101-58-197-162-243-264-11-25-33-62-50-82-28-36-29-39-23-110 12-128 9-174-19-257l-26-80 3-358c3-308 5-363 20-395 20-45 43-58 106-58s93 23 133 102c60 119 103 363 96 546-3 91-9 120-36 192-26 68-32 94-27 130 14 107 18 120 36 120 19 0 30 26 30 71 0 15 25 112 55 217s55 204 55 221c0 28-3 31-32 31-18 0-53-12-78-26z"/><path d="m3275 4859c-83-126-205-391-205-445 0-30 3-34 26-34 25 0 26-1 19-52-14-114-34-245-45-295-11-51-13-53-46-53h-34v-122c0-122 13-226 45-365l17-73h76l-5 150c-6 146-5 150 14 150s21 8 25 93c6 104 50 253 95 322 26 38 27 47 35 237 7 178 12 211 43 334 19 75 35 149 35 165 0 26-3 29-34 29-28 0-38-6-61-41z"/><path d="m3830 4807c0-30 96-249 264-600 31-64 56-119 56-122s-18-5-40-5c-39 0-40-1-40-33 0-33 12-56 205-389l80-138h43c42 0 42 0 42 35 0 36-11 76-76 275-19 58-34 108-34 113 0 4 18 7 40 7 39 0 40 1 40 35 0 24-23 78-75 176-107 199-150 269-303 487-130 185-136 192-168 192s-34-2-34-33z"/></g><path d="m6470 7679c0-12 11-62 25-113 77-287 74-569-10-817-45-131-126-227-275-324-96-62-156-119-184-173-8-16-26-32-40-36-13-3-48-28-78-54-77-69-134-112-149-112-11 0-14 29-14 139 0 131 1 140 19 138 15-2 25 16 52 90 38 105 54 212 54 361 0 96 2 106 24 133 34 40 70 199 62 271-4 29-10 136-15 238-9 208-17 240-58 240-65 0-204-206-220-325-4-35-13-55-29-68-50-39-82-177-63-271l12-63-49-124c-27-68-56-130-66-136-24-18-45-81-73-218-13-66-36-147-49-180-14-33-33-93-42-132-18-84-32-91-89-47l-33 25 5 72c4 69 3 74-30 125-34 52-51 101-61 174-3 27 1 43 16 60 37 43 50 81 58 167 4 47 15 104 24 126 27 62 96 305 96 336 0 33-30 46-77 34-37-9-127-64-181-111-52-45-137-162-153-212-6-21-22-48-35-62-32-35-64-108-64-149 0-19 7-57 16-85 16-51 16-51-21-165-34-105-36-119-29-180 5-36 9-72 9-79 0-12-131-72-159-72-12 0-57 106-77 183-10 41-9 50 10 80 34 55 25 112-24 163-5 6-18 58-29 116l-19 106 29 37c28 37 29 42 30 164 1 106 6 144 33 243 17 65 28 124 25 133-10 25-49 28-96 7-126-56-268-258-299-426-11-56-10-71 4-108 22-57 21-102-4-261-27-170-22-211 35-325 25-50 46-98 46-107 0-8-7-33-16-55-17-43-36-50-65-24-15 14-18 13-36-13-11-15-25-42-32-60-11-27-19-32-49-35-36-3-37-4-40-50-3-45-5-48-30-48-15 0-58 16-96 35-90 46-126 45-231-4-153-72-265-152-343-247-41-50-43-54-37-101 6-42 2-58-33-133-63-133-75-193-69-340 3-72 12-147 21-177l16-51-60-115c-71-135-120-263-120-313 0-34 2-36 26-30l27 7-7-53c-4-29-14-100-23-157l-16-103-38 5c-48 6-49 3-49-129 0-264 114-720 183-732 17-4 18 7 11 219l-7 222 35-26c19-15 38-27 41-27 4 0 7 59 7 130 0 123-1 130-20 130-30 0-26 66 11 180 18 52 33 96 34 98 2 2 12-2 24-9 11-7 24-10 28-5 4 4 10 117 13 251s8 246 12 250c3 4 43-47 87-113s84-123 90-126c15-10 34 22 29 49-3 14-4 25-3 25 2 0 53-38 115-84 186-140 235-156 211-71l-10 37 32-6c18-3 61-12 96-19l64-13 76-164h-50c-44 0-49-2-49-23 0-37 490-871 522-888 13-7 20-6 24 4 5 13-65 254-167 580-23 71-39 130-36 133 2 2 23-3 47-11 54-19 70-19 70 0 0 18-79 178-161 326-33 58-59 108-59 111 0 4 21 18 46 33 42 25 51 26 120 20 85-8 88-4 49 60-14 22-25 43-25 47 0 12 63 28 111 28 44 0 49 2 49 23 0 12-9 37-20 55-21 33-26 62-12 62 4 0 26-19 49-42l41-43 11-152c39-519 212-1039 481-1447 81-123 213-283 245-298 58-26 67 13 39 182-33 208-45 325-55 550-14 351-54 584-134 791-43 113-88 194-182 333-69 101-73 108-48 104 34-7 41 11 20 51-25 50 1 36 46-24 59-78 69-74 69 30 0 93 9 104 47 63 11-13 63-117 114-233 134-301 352-733 466-923 323-537 726-966 1117-1190 104-60 148-76 181-68 35 9 40 44 26 156-19 155-60 299-179 630-17 47-43 139-57 205-39 171-77 280-155 440-92 191-183 312-382 507l-159 157 68-28c164-67 340-114 498-132 101-11 135-4 135 29 0 45-134 208-270 328-259 229-560 358-914 390-80 7-89 12-100 56-3 16-33 59-67 98-37 44-54 70-45 70s59-20 113-46c123-58 193-74 324-74 224 0 442 97 637 284 176 168 277 353 334 606 20 92 23 131 22 310 0 269-26 444-106 720-61 209-199 518-270 604-33 41-68 48-68 15zm-590-311c0-138 3-187 12-190 10-4 9-25-4-94-15-75-22-93-46-114l-29-25-6-180c-6-177-20-263-53-326l-13-27-53 19c-29 10-79 25-111 34l-59 16 7 52c12 95 35 178 80 294 45 115 53 147 36 157-38 24-6 200 41 221 17 8 25 24 34 75 19 106 67 210 127 278 16 17 23 19 29 10 4-7 8-97 8-200zm783-88c109-287 165-529 183-799l7-104-35 6c-20 3-67 24-104 48-121 75-188 109-216 109-15 0-29 4-32 9s10 35 29 67c39 65 74 167 102 295 21 98 25 414 6 488-20 75 3 31 60-119zm-2172-52c-20-56-41-209-41-295 0-71-4-90-27-131l-27-48 22-114c12-63 22-123 22-132 0-10 9-23 20-30 23-15 25-43 5-78-21-37-18-100 9-184 22-71 21-96-6-96-5 0-38-18-74-40-71-43-69-44-79 41-4 38-17 74-41 114-55 90-59 128-35 278 25 154 27 256 5 298-34 66 23 218 134 358 35 43 111 105 120 97 2-3-1-20-7-38zm673-272c-30-103-54-200-54-215 0-14-3-36-6-49l-6-22-53 30c-56 32-127 40-166 20-34-19-35 16-2 58 17 20 39 57 50 82 28 63 102 160 154 202 41 34 131 90 136 85 1-1-23-87-53-191zm-155-301c43-20 52-28 45-43-4-9-9-51-11-92-4-66-1-85 28-160 40-106 46-195 24-353-29-211-80-358-141-406-47-37-95-23-122 37-14 32-17 86-20 365l-3 328 27 82c21 61 28 102 28 160 1 73 3 80 26 92 36 20 58 18 119-10zm591-259 105-22-3-50c-7-133-26-278-47-359-25-99-86-238-135-310l-32-46-61 3c-57 3-63 5-76 32-60 126-17 462 88 690 22 47 43 86 48 85 4 0 55-10 113-23zm732-47c72-16 131-47 253-135 125-90 161-106 214-98l39 6-14-63c-23-101-55-189-68-189-22 0-205 117-291 187-186 149-205 162-262 179-72 22-80 29-62 50 21 25 100 74 120 74 10 0 42-5 71-11zm-246-300c31-19 113-87 182-153 133-126 248-209 316-227 22-6 47-13 54-15 19-6-10-51-86-135-73-79-93-85-170-45-71 37-145 107-235 224-45 58-97 121-116 140-45 45-150 122-166 122-8 0-26 5-41 10l-27 11 24 26c13 14 44 39 69 55 59 39 116 35 196-13zm-1586-47v-59l51-11c62-15 132-61 164-110 15-23 30-68 39-120 16-93 44-145 89-169 66-34 138-12 187 57 26 36 41 37 95 6 50-30 88-84 109-156 21-69 20-80-4-80-11 0-20 4-20 9 0 20-69 63-89 56-34-10-83-66-110-125-35-77-36-210-2-287 24-53 99-133 125-133 29 0 25-19-10-54-31-31-43-36-82-36-71 0-94-9-86-32 6-19 2-20-73-16-76 3-78 3-76-20 3-22 1-23-45-16-47 7-118 30-138 46-8 6-5 27 12 74 29 79 30 114 4 188l-19 57 29 6c17 3 30 9 30 12 0 4-22 43-50 88-27 45-50 86-50 91 0 6 11 19 25 29l26 18-27 65c-40 100-88 172-158 238-74 69-146 107-231 123-89 17-87 16-81 46 2 16 7 44 11 64 5 36 6 36 48 32 37-4 46-1 79 30 21 19 68 54 105 77 38 24 77 49 88 56 32 21 35 17 35-44zm-535-251c220-106 339-185 477-319l112-109-22-19c-12-10-22-25-22-32s21-46 46-85c42-65 45-72 29-84-10-7-22-14-27-15-6-2 2-32 17-67 30-72 29-97-11-213-32-96-85-178-154-240-61-56-174-128-200-128-8 0-33 28-55 62-133 208-366 524-480 653l-35 40 19-55c31-92 104-265 206-485 53-115 103-225 111-244l15-34-93 5c-57 4-116 14-152 27-134 47-290 159-356 256l-29 42 20 69c11 38 41 137 66 219 65 214 65 211-2 130-32-38-81-100-108-137-27-38-55-68-62-68-19 0-26 42-26 151 0 110 7 145 62 280 27 67 39 112 39 146 0 46 3 52 58 105 65 63 147 120 242 168 61 31 126 58 142 59 4 1 82-35 173-78zm1768 16c70-45 132-116 200-230 72-120 140-195 213-234l58-31-36-15c-81-34-188-50-287-43-143 9-136 5-136 89 0 60-5 83-32 140-18 37-55 92-84 122-28 30-49 58-47 62 19 44 89 173 94 173 3 0 28-15 57-33zm-356-864c82-53 224-141 317-195 190-111 232-139 331-217 336-266 517-473 645-735 78-160 104-233 154-437 19-79 50-185 69-234 85-222 154-470 171-614l7-54-35 6c-110 18-479 304-699 542-276 299-505 650-752 1150-215 436-399 885-361 885 3 0 72-43 153-97zm328 72c380-45 629-155 897-398 74-67 198-206 198-222 0-23-335 36-363 64-6 6-21 11-34 11s-31 4-41 9c-9 5-62 26-117 46-250 95-541 273-730 448l-60 56 60 1c33 0 118-7 190-15zm-2401-243c-30-118-35-154-42-330-8-190-9-199-35-237-45-69-89-218-95-322-4-84-7-93-24-93-19 0-19-7-16-150 2-83 0-150-4-150-20 0-68 288-68 409 0 91 1 93 18 78 28-25 38-21 50 21 24 85 62 336 62 414 0 34-3 38-25 38-14 0-25 2-25 4 0 13 79 186 125 272 52 100 105 187 111 182 1-2-13-63-32-136zm710-132c68-96 144-210 169-252 48-79 197-354 197-363 0-3-20-5-45-5-57 0-57-3-6-163 58-183 81-256 81-262 0-3-6-5-12-5-10 0-235 375-287 477-11 21-10 21 45 16 56-6 56-6 49 18-4 13-39 89-77 169-81 167-257 548-265 570-8 24 20-13 151-200zm919 41c76-84 200-286 253-412 85-201 128-431 144-773 10-225 20-329 45-498 20-132 20-130-12-126-22 2-43 24-100 103-267 369-473 929-522 1420-6 55-12 143-15 196l-5 97 75-24c41-13 81-24 89-24 20 0 19 30-1 58-27 39 10 27 49-17z"/><path d="m3933 5461c-80-20-111-77-99-178 18-157 124-291 302-383 37-19 79-50 93-67 14-18 29-33 34-33 10 0 9 69-3 112-9 30-7 48 10 97 28 83 28 218-1 281-25 55-90 125-144 152-43 23-140 32-192 19zm86-247c43-54 35-94-19-94-36 0-80 50-80 91 0 27 3 29 39 29 31 0 44-6 60-26z"/><path transform="scale(10)" d="m331.03429 483.22499c-4.61162-7.13847-12.56707-22.45538-17.72275-34.1222-3.19539-7.23088-3.28344-7.53983-2.2292-7.82214 0.4386-0.11745 1.26065-0.21802 1.82677-0.22348 1.78565-0.0172 2.04102-0.41034 2.17438-3.3471 0.35996-7.92635-4.94171-40.97396-7.15787-44.61814-0.85055-1.3986-1.68716-1.40108-3.62318-0.0107-0.83254 0.59788-1.62976 0.97026-1.7716 0.82751-0.40771-0.41031-0.25214-13.70002 0.20917-17.86882 1.50478-13.59855 4.62088-29.75771 5.88963-30.54184 0.21427-0.13242 0.33379 4.8723 0.33379 13.97635 0 15.42383 0.0342 15.70774 1.89445 15.70774 0.4872 0 0.98386 0.29453 1.21038 0.71779 0.21128 0.39479 0.60264 3.44411 0.86969 6.77627 0.53551 6.6821 1.05708 9.93154 2.542 15.83688 1.81543 7.21974 4.154 13.23421 6.94394 17.85886 2.62294 4.34783 2.78181 5.33848 3.51872 21.94098 0.91994 20.72627 1.13907 22.31748 5.47866 39.78266 1.05262 4.23644 1.86497 7.8493 1.80521 8.02859-0.0598 0.17929-1.04625-1.12534-2.19219-2.89918z" fill="#f6c822" stroke-width="0"/><path transform="scale(10)" d="m386.84761 479.28296c0-0.4939 14.25534-31.2157 26.41366-56.92429 7.70647-16.29523 8.37373-18.06399 6.95302-18.43106-0.33024-0.0853-2.49124 1.5e-4 -4.80222 0.18993-2.31098 0.18979-4.31506 0.2318-4.4535 0.0934-0.48867-0.48867 5.31614-10.86952 16.23245-29.02876 10.15539-16.89346 12.63331-20.5615 13.38344-19.81136 0.31451 0.3145-0.10194 1.74189-5.52976 18.9536-5.18038 16.4271-5.99554 19.29583-5.99554 21.09982 0 2.23695 0.50187 2.53762 4.57162 2.7389 1.98421 0.0981 3.71403 0.28524 3.84402 0.41578 0.49411 0.49622-14.66728 28.65631-20.19209 37.50388-6.42315 10.28619-29.5185 43.40241-30.26897 43.40241-0.0859 0-0.15613-0.091-0.15613-0.20221z" fill="#a80" stroke-width="0"/><path transform="scale(10)" d="m331.07106 482.8462c-5.1194-7.7705-19.46323-36.37203-20.27413-40.42653-0.18082-0.90413-0.13028-0.93823 1.73617-1.17143 1.35706-0.16955 2.02295-0.42805 2.26429-0.87899 0.44616-0.83365 0.43666-6.19681-0.0189-10.68331-0.9302-9.16046-3.38202-24.14724-5.16846-31.59215-1.4767-6.1541-2.36968-7.04241-5.27846-5.25085-0.75482 0.46491-1.4882 0.85011-1.62973 0.856-0.36365 0.0151-0.30553-10.66318 0.0854-15.69 0.64825-8.33574 3.41662-24.78509 5.0663-30.10342l0.63855-2.05861 0.23499 9.0922c0.12924 5.00072 0.24615 11.25375 0.2598 13.89564 0.0136 2.64188 0.13929 5.09504 0.27921 5.45145 0.13991 0.35641 0.779 0.81959 1.42019 1.0293 1.41323 0.46222 1.43884 0.56193 2.21315 8.61574 1.22386 12.72981 4.37816 23.72278 9.31298 32.45647 1.38394 2.44931 1.9881 3.9595 2.35852 5.89554 0.2739 1.43152 0.81322 8.75033 1.19851 16.26403 1.03452 20.17513 1.38473 22.78631 5.12201 38.18971 1.12129 4.62145 1.99149 8.44985 1.93378 8.50756-0.0577 0.0577-0.84707-1.02155-1.75414-2.39835z" fill="#d4aa00" stroke-width="0"/><path transform="scale(10)" d="m387.53381 478.30706c0-0.39787 9.61559-21.20915 21.01521-45.48377 11.48939-24.46577 12.34281-26.41607 12.20123-27.88283l-0.10709-1.1093-4.71765 0.1294c-2.59471 0.0712-4.71765 0.0292-4.71765-0.0934 0-1.83828 23.98528-42.29284 28.24632-47.64142 0.72738-0.91303 1.02729-0.72125 0.78291 0.50065-0.12112 0.6056-2.29484 7.74641-4.83049 15.86847-5.97998 19.15473-6.35744 20.50186-6.35744 22.68921 0 2.41868 0.53412 2.75392 4.88921 3.06876 1.83988 0.13301 3.34524 0.32502 3.34524 0.42668 0 0.47701-8.64987 16.94671-12.92434 24.60846-5.54601 9.94093-8.3766 14.53549-14.79634 24.01715-7.56807 11.17768-20.44721 29.47015-21.72896 30.86203-0.16509 0.17927-0.30016 0.19722-0.30016 0.0399z" fill="#d4aa00" stroke-width="0"/></g></g></svg>
