<?xml version="1.0" encoding="UTF-8"?>
<svg xmlns="http://www.w3.org/2000/svg" width="144" height="192" viewBox="0 0 144 192" shape-rendering="crispEdges">
  <title>Player sprite sheet</title>
  <desc>Vectorized from assets/player-sprite.png as pixel-accurate color runs.</desc>
  <path fill="#000000" d="M10 22h2v1h-2zM36 22h2v1h-2zM58 22h2v1h-2zM84 22h2v1h-2zM106 22h2v1h-2zM132 22h2v1h-2zM10 23h2v1h-2zM36 23h2v1h-2zM58 23h2v1h-2zM84 23h2v1h-2zM106 23h2v1h-2zM132 23h2v1h-2zM10 24h2v1h-2zM36 24h2v1h-2zM58 24h2v1h-2zM84 24h2v1h-2zM106 24h2v1h-2zM132 24h2v1h-2zM10 25h2v1h-2zM36 25h2v1h-2zM58 25h2v1h-2zM84 25h2v1h-2zM106 25h2v1h-2zM132 25h2v1h-2zM12 26h2v1h-2zM34 26h2v1h-2zM60 26h2v1h-2zM82 26h2v1h-2zM108 26h2v1h-2zM130 26h2v1h-2zM12 27h2v1h-2zM34 27h2v1h-2zM60 27h2v1h-2zM82 27h2v1h-2zM108 27h2v1h-2zM130 27h2v1h-2zM12 28h2v1h-2zM20 28h2v1h-2zM26 28h2v1h-2zM34 28h2v1h-2zM60 28h2v1h-2zM68 28h2v1h-2zM74 28h2v1h-2zM82 28h2v1h-2zM108 28h2v1h-2zM116 28h2v1h-2zM122 28h2v1h-2zM130 28h2v1h-2zM12 29h2v1h-2zM20 29h2v1h-2zM26 29h2v1h-2zM34 29h2v1h-2zM60 29h2v1h-2zM68 29h2v1h-2zM74 29h2v1h-2zM82 29h2v1h-2zM108 29h2v1h-2zM116 29h2v1h-2zM122 29h2v1h-2zM130 29h2v1h-2zM12 32h2v1h-2zM16 32h2v1h-2zM30 32h2v1h-2zM34 32h2v1h-2zM64 32h2v1h-2zM78 32h4v1h-4zM110 32h4v1h-4zM126 32h2v1h-2zM12 33h2v1h-2zM16 33h2v1h-2zM30 33h2v1h-2zM34 33h2v1h-2zM64 33h2v1h-2zM78 33h4v1h-4zM110 33h4v1h-4zM126 33h2v1h-2zM20 34h8v1h-8zM60 34h4v1h-4zM68 34h8v1h-8zM82 34h2v1h-2zM108 34h2v1h-2zM116 34h8v1h-8zM128 34h4v1h-4zM20 35h8v1h-8zM60 35h4v1h-4zM68 35h8v1h-8zM82 35h2v1h-2zM108 35h2v1h-2zM116 35h8v1h-8zM128 35h4v1h-4zM14 38h4v1h-4zM30 38h4v1h-4zM62 38h4v1h-4zM126 38h4v1h-4zM14 39h4v1h-4zM30 39h4v1h-4zM62 39h4v1h-4zM126 39h4v1h-4zM76 40h2v1h-2zM114 40h2v1h-2zM76 41h2v1h-2zM114 41h2v1h-2zM14 42h4v1h-4zM30 42h4v1h-4zM64 42h2v1h-2zM72 42h4v1h-4zM116 42h4v1h-4zM126 42h2v1h-2zM14 43h4v1h-4zM30 43h4v1h-4zM64 43h2v1h-2zM72 43h4v1h-4zM116 43h4v1h-4zM126 43h2v1h-2zM14 44h2v1h-2zM20 44h2v1h-2zM26 44h2v1h-2zM32 44h2v1h-2zM64 44h2v1h-2zM70 44h2v1h-2zM120 44h2v1h-2zM126 44h2v1h-2zM14 45h2v1h-2zM20 45h2v1h-2zM26 45h2v1h-2zM32 45h2v1h-2zM64 45h2v1h-2zM70 45h2v1h-2zM120 45h2v1h-2zM126 45h2v1h-2zM16 46h4v1h-4zM28 46h4v1h-4zM66 46h4v1h-4zM122 46h4v1h-4zM16 47h4v1h-4zM28 47h4v1h-4zM66 47h4v1h-4zM122 47h4v1h-4zM36 68h2v1h-2zM36 69h2v1h-2zM36 70h2v1h-2zM84 70h2v1h-2zM132 70h2v1h-2zM36 71h2v1h-2zM84 71h2v1h-2zM132 71h2v1h-2zM36 72h2v1h-2zM84 72h2v1h-2zM132 72h2v1h-2zM36 73h2v1h-2zM84 73h2v1h-2zM132 73h2v1h-2zM34 74h2v1h-2zM84 74h2v1h-2zM132 74h2v1h-2zM34 75h2v1h-2zM84 75h2v1h-2zM132 75h2v1h-2zM18 76h2v1h-2zM34 76h2v1h-2zM82 76h2v1h-2zM130 76h2v1h-2zM18 77h2v1h-2zM34 77h2v1h-2zM82 77h2v1h-2zM130 77h2v1h-2zM32 78h2v1h-2zM66 78h2v1h-2zM82 78h2v1h-2zM114 78h2v1h-2zM130 78h2v1h-2zM32 79h2v1h-2zM66 79h2v1h-2zM82 79h2v1h-2zM114 79h2v1h-2zM130 79h2v1h-2zM30 80h2v1h-2zM80 80h2v1h-2zM128 80h2v1h-2zM30 81h2v1h-2zM80 81h2v1h-2zM128 81h2v1h-2zM22 82h4v1h-4zM78 82h2v1h-2zM126 82h2v1h-2zM22 83h4v1h-4zM78 83h2v1h-2zM126 83h2v1h-2zM26 84h2v1h-2zM70 84h4v1h-4zM118 84h4v1h-4zM26 85h2v1h-2zM70 85h4v1h-4zM118 85h4v1h-4zM26 86h2v1h-2zM72 86h2v1h-2zM26 87h2v1h-2zM72 87h2v1h-2zM18 88h4v1h-4zM26 88h4v1h-4zM72 88h4v1h-4zM80 88h2v1h-2zM112 88h4v1h-4zM118 88h2v1h-2zM18 89h4v1h-4zM26 89h4v1h-4zM72 89h4v1h-4zM80 89h2v1h-2zM112 89h4v1h-4zM118 89h2v1h-2zM64 90h2v1h-2zM68 90h4v1h-4zM80 90h2v1h-2zM110 90h2v1h-2zM114 90h4v1h-4zM122 90h6v1h-6zM64 91h2v1h-2zM68 91h4v1h-4zM80 91h2v1h-2zM110 91h2v1h-2zM114 91h4v1h-4zM122 91h6v1h-6zM18 92h2v1h-2zM26 92h2v1h-2zM66 92h8v1h-8zM80 92h2v1h-2zM110 92h2v1h-2zM118 92h8v1h-8zM18 93h2v1h-2zM26 93h2v1h-2zM66 93h8v1h-8zM80 93h2v1h-2zM110 93h2v1h-2zM118 93h8v1h-8zM20 94h6v1h-6zM74 94h6v1h-6zM112 94h6v1h-6zM20 95h6v1h-6zM74 95h6v1h-6zM112 95h6v1h-6zM10 116h2v1h-2zM10 117h2v1h-2zM10 118h2v1h-2zM58 118h2v1h-2zM106 118h2v1h-2zM10 119h2v1h-2zM58 119h2v1h-2zM106 119h2v1h-2zM10 120h2v1h-2zM58 120h2v1h-2zM106 120h2v1h-2zM10 121h2v1h-2zM58 121h2v1h-2zM106 121h2v1h-2zM12 122h2v1h-2zM58 122h2v1h-2zM106 122h2v1h-2zM12 123h2v1h-2zM58 123h2v1h-2zM106 123h2v1h-2zM12 124h2v1h-2zM28 124h2v1h-2zM60 124h2v1h-2zM108 124h2v1h-2zM12 125h2v1h-2zM28 125h2v1h-2zM60 125h2v1h-2zM108 125h2v1h-2zM14 126h2v1h-2zM60 126h2v1h-2zM76 126h2v1h-2zM108 126h2v1h-2zM124 126h2v1h-2zM14 127h2v1h-2zM60 127h2v1h-2zM76 127h2v1h-2zM108 127h2v1h-2zM124 127h2v1h-2zM16 128h2v1h-2zM62 128h2v1h-2zM110 128h2v1h-2zM16 129h2v1h-2zM62 129h2v1h-2zM110 129h2v1h-2zM22 130h4v1h-4zM64 130h2v1h-2zM112 130h2v1h-2zM22 131h4v1h-4zM64 131h2v1h-2zM112 131h2v1h-2zM20 132h2v1h-2zM70 132h4v1h-4zM118 132h4v1h-4zM20 133h2v1h-2zM70 133h4v1h-4zM118 133h4v1h-4zM20 134h2v1h-2zM118 134h2v1h-2zM20 135h2v1h-2zM118 135h2v1h-2zM18 136h4v1h-4zM26 136h4v1h-4zM72 136h2v1h-2zM76 136h4v1h-4zM110 136h2v1h-2zM116 136h4v1h-4zM18 137h4v1h-4zM26 137h4v1h-4zM72 137h2v1h-2zM76 137h4v1h-4zM110 137h2v1h-2zM116 137h4v1h-4zM64 138h6v1h-6zM74 138h4v1h-4zM80 138h2v1h-2zM110 138h2v1h-2zM120 138h4v1h-4zM126 138h2v1h-2zM64 139h6v1h-6zM74 139h4v1h-4zM80 139h2v1h-2zM110 139h2v1h-2zM120 139h4v1h-4zM126 139h2v1h-2zM20 140h2v1h-2zM28 140h2v1h-2zM66 140h8v1h-8zM80 140h2v1h-2zM110 140h2v1h-2zM118 140h8v1h-8zM20 141h2v1h-2zM28 141h2v1h-2zM66 141h8v1h-8zM80 141h2v1h-2zM110 141h2v1h-2zM118 141h8v1h-8zM22 142h6v1h-6zM74 142h6v1h-6zM112 142h6v1h-6zM22 143h6v1h-6zM74 143h6v1h-6zM112 143h6v1h-6zM10 166h2v1h-2zM36 166h2v1h-2zM58 166h2v1h-2zM84 166h2v1h-2zM106 166h2v1h-2zM132 166h2v1h-2zM10 167h2v1h-2zM36 167h2v1h-2zM58 167h2v1h-2zM84 167h2v1h-2zM106 167h2v1h-2zM132 167h2v1h-2zM10 168h2v1h-2zM36 168h2v1h-2zM58 168h2v1h-2zM84 168h2v1h-2zM106 168h2v1h-2zM132 168h2v1h-2zM10 169h2v1h-2zM36 169h2v1h-2zM58 169h2v1h-2zM84 169h2v1h-2zM106 169h2v1h-2zM132 169h2v1h-2zM12 170h2v1h-2zM34 170h2v1h-2zM60 170h2v1h-2zM82 170h2v1h-2zM108 170h2v1h-2zM130 170h2v1h-2zM12 171h2v1h-2zM34 171h2v1h-2zM60 171h2v1h-2zM82 171h2v1h-2zM108 171h2v1h-2zM130 171h2v1h-2zM12 172h2v1h-2zM34 172h2v1h-2zM60 172h2v1h-2zM82 172h2v1h-2zM108 172h2v1h-2zM130 172h2v1h-2zM12 173h2v1h-2zM34 173h2v1h-2zM60 173h2v1h-2zM82 173h2v1h-2zM108 173h2v1h-2zM130 173h2v1h-2zM14 174h2v1h-2zM32 174h2v1h-2zM62 174h2v1h-2zM80 174h2v1h-2zM110 174h2v1h-2zM128 174h2v1h-2zM14 175h2v1h-2zM32 175h2v1h-2zM62 175h2v1h-2zM80 175h2v1h-2zM110 175h2v1h-2zM128 175h2v1h-2zM12 176h2v1h-2zM16 176h2v1h-2zM30 176h2v1h-2zM34 176h2v1h-2zM64 176h2v1h-2zM78 176h4v1h-4zM110 176h4v1h-4zM126 176h2v1h-2zM12 177h2v1h-2zM16 177h2v1h-2zM30 177h2v1h-2zM34 177h2v1h-2zM64 177h2v1h-2zM78 177h4v1h-4zM110 177h4v1h-4zM126 177h2v1h-2zM20 178h8v1h-8zM60 178h2v1h-2zM68 178h8v1h-8zM116 178h8v1h-8zM130 178h2v1h-2zM20 179h8v1h-8zM60 179h2v1h-2zM68 179h8v1h-8zM116 179h8v1h-8zM130 179h2v1h-2zM14 182h4v1h-4zM30 182h4v1h-4zM62 182h4v1h-4zM78 182h2v1h-2zM112 182h2v1h-2zM126 182h4v1h-4zM14 183h4v1h-4zM30 183h4v1h-4zM62 183h4v1h-4zM78 183h2v1h-2zM112 183h2v1h-2zM126 183h4v1h-4zM62 184h2v1h-2zM80 184h4v1h-4zM108 184h4v1h-4zM128 184h2v1h-2zM62 185h2v1h-2zM80 185h4v1h-4zM108 185h4v1h-4zM128 185h2v1h-2zM14 186h4v1h-4zM30 186h4v1h-4zM76 186h4v1h-4zM112 186h4v1h-4zM14 187h4v1h-4zM30 187h4v1h-4zM76 187h4v1h-4zM112 187h4v1h-4zM14 188h2v1h-2zM20 188h2v1h-2zM26 188h2v1h-2zM32 188h2v1h-2zM64 188h2v1h-2zM70 188h6v1h-6zM116 188h6v1h-6zM126 188h2v1h-2zM14 189h2v1h-2zM20 189h2v1h-2zM26 189h2v1h-2zM32 189h2v1h-2zM64 189h2v1h-2zM70 189h6v1h-6zM116 189h6v1h-6zM126 189h2v1h-2zM16 190h4v1h-4zM28 190h4v1h-4zM66 190h4v1h-4zM122 190h4v1h-4zM16 191h4v1h-4zM28 191h4v1h-4zM66 191h4v1h-4zM122 191h4v1h-4z"/>
  <path fill="#694435" d="M20 10h8v1h-8zM68 10h8v1h-8zM116 10h8v1h-8zM20 11h8v1h-8zM68 11h8v1h-8zM116 11h8v1h-8zM16 12h4v1h-4zM24 12h2v1h-2zM28 12h4v1h-4zM64 12h4v1h-4zM72 12h2v1h-2zM76 12h4v1h-4zM112 12h4v1h-4zM120 12h2v1h-2zM124 12h4v1h-4zM16 13h4v1h-4zM24 13h2v1h-2zM28 13h4v1h-4zM64 13h4v1h-4zM72 13h2v1h-2zM76 13h4v1h-4zM112 13h4v1h-4zM120 13h2v1h-2zM124 13h4v1h-4zM14 14h2v1h-2zM22 14h2v1h-2zM32 14h2v1h-2zM62 14h2v1h-2zM70 14h2v1h-2zM80 14h2v1h-2zM110 14h2v1h-2zM118 14h2v1h-2zM128 14h2v1h-2zM14 15h2v1h-2zM22 15h2v1h-2zM32 15h2v1h-2zM62 15h2v1h-2zM70 15h2v1h-2zM80 15h2v1h-2zM110 15h2v1h-2zM118 15h2v1h-2zM128 15h2v1h-2zM12 16h2v1h-2zM24 16h2v1h-2zM34 16h2v1h-2zM60 16h2v1h-2zM72 16h2v1h-2zM82 16h2v1h-2zM108 16h2v1h-2zM120 16h2v1h-2zM130 16h2v1h-2zM12 17h2v1h-2zM24 17h2v1h-2zM34 17h2v1h-2zM60 17h2v1h-2zM72 17h2v1h-2zM82 17h2v1h-2zM108 17h2v1h-2zM120 17h2v1h-2zM130 17h2v1h-2zM12 18h2v1h-2zM34 18h2v1h-2zM60 18h2v1h-2zM82 18h2v1h-2zM108 18h2v1h-2zM130 18h2v1h-2zM12 19h2v1h-2zM34 19h2v1h-2zM60 19h2v1h-2zM82 19h2v1h-2zM108 19h2v1h-2zM130 19h2v1h-2zM10 20h2v1h-2zM22 20h4v1h-4zM36 20h2v1h-2zM58 20h2v1h-2zM70 20h4v1h-4zM84 20h2v1h-2zM106 20h2v1h-2zM118 20h4v1h-4zM132 20h2v1h-2zM10 21h2v1h-2zM22 21h4v1h-4zM36 21h2v1h-2zM58 21h2v1h-2zM70 21h4v1h-4zM84 21h2v1h-2zM106 21h2v1h-2zM118 21h4v1h-4zM132 21h2v1h-2zM12 22h2v1h-2zM16 22h2v1h-2zM20 22h2v1h-2zM26 22h2v1h-2zM30 22h2v1h-2zM34 22h2v1h-2zM60 22h2v1h-2zM64 22h2v1h-2zM68 22h2v1h-2zM74 22h2v1h-2zM78 22h2v1h-2zM82 22h2v1h-2zM108 22h2v1h-2zM112 22h2v1h-2zM116 22h2v1h-2zM122 22h2v1h-2zM126 22h2v1h-2zM130 22h2v1h-2zM12 23h2v1h-2zM16 23h2v1h-2zM20 23h2v1h-2zM26 23h2v1h-2zM30 23h2v1h-2zM34 23h2v1h-2zM60 23h2v1h-2zM64 23h2v1h-2zM68 23h2v1h-2zM74 23h2v1h-2zM78 23h2v1h-2zM82 23h2v1h-2zM108 23h2v1h-2zM112 23h2v1h-2zM116 23h2v1h-2zM122 23h2v1h-2zM126 23h2v1h-2zM130 23h2v1h-2zM14 24h6v1h-6zM28 24h6v1h-6zM62 24h6v1h-6zM76 24h6v1h-6zM110 24h6v1h-6zM124 24h6v1h-6zM14 25h6v1h-6zM28 25h6v1h-6zM62 25h6v1h-6zM76 25h6v1h-6zM110 25h6v1h-6zM124 25h6v1h-6zM14 26h2v1h-2zM32 26h2v1h-2zM62 26h2v1h-2zM80 26h2v1h-2zM110 26h2v1h-2zM128 26h2v1h-2zM14 27h2v1h-2zM32 27h2v1h-2zM62 27h2v1h-2zM80 27h2v1h-2zM110 27h2v1h-2zM128 27h2v1h-2zM14 30h2v1h-2zM20 30h2v1h-2zM26 30h2v1h-2zM32 30h2v1h-2zM58 30h2v1h-2zM62 30h2v1h-2zM68 30h2v1h-2zM74 30h2v1h-2zM80 30h2v1h-2zM110 30h2v1h-2zM116 30h2v1h-2zM122 30h2v1h-2zM128 30h2v1h-2zM132 30h2v1h-2zM14 31h2v1h-2zM20 31h2v1h-2zM26 31h2v1h-2zM32 31h2v1h-2zM58 31h2v1h-2zM62 31h2v1h-2zM68 31h2v1h-2zM74 31h2v1h-2zM80 31h2v1h-2zM110 31h2v1h-2zM116 31h2v1h-2zM122 31h2v1h-2zM128 31h2v1h-2zM132 31h2v1h-2zM18 32h2v1h-2zM28 32h2v1h-2zM58 32h2v1h-2zM66 32h2v1h-2zM76 32h2v1h-2zM114 32h2v1h-2zM124 32h2v1h-2zM132 32h2v1h-2zM18 33h2v1h-2zM28 33h2v1h-2zM58 33h2v1h-2zM66 33h2v1h-2zM76 33h2v1h-2zM114 33h2v1h-2zM124 33h2v1h-2zM132 33h2v1h-2zM10 34h2v1h-2zM18 34h2v1h-2zM28 34h2v1h-2zM36 34h2v1h-2zM66 34h2v1h-2zM76 34h2v1h-2zM114 34h2v1h-2zM124 34h2v1h-2zM10 35h2v1h-2zM18 35h2v1h-2zM28 35h2v1h-2zM36 35h2v1h-2zM66 35h2v1h-2zM76 35h2v1h-2zM114 35h2v1h-2zM124 35h2v1h-2zM10 36h2v1h-2zM16 36h2v1h-2zM22 36h4v1h-4zM30 36h2v1h-2zM36 36h2v1h-2zM62 36h4v1h-4zM70 36h4v1h-4zM76 36h2v1h-2zM82 36h2v1h-2zM108 36h2v1h-2zM114 36h2v1h-2zM118 36h4v1h-4zM126 36h4v1h-4zM10 37h2v1h-2zM16 37h2v1h-2zM22 37h4v1h-4zM30 37h2v1h-2zM36 37h2v1h-2zM62 37h4v1h-4zM70 37h4v1h-4zM76 37h2v1h-2zM82 37h2v1h-2zM108 37h2v1h-2zM114 37h2v1h-2zM118 37h4v1h-4zM126 37h4v1h-4zM12 38h2v1h-2zM34 38h2v1h-2zM76 38h2v1h-2zM82 38h2v1h-2zM108 38h2v1h-2zM114 38h2v1h-2zM12 39h2v1h-2zM34 39h2v1h-2zM76 39h2v1h-2zM82 39h2v1h-2zM108 39h2v1h-2zM114 39h2v1h-2zM14 40h2v1h-2zM18 40h2v1h-2zM28 40h2v1h-2zM32 40h2v1h-2zM62 40h2v1h-2zM66 40h2v1h-2zM74 40h2v1h-2zM78 40h4v1h-4zM110 40h4v1h-4zM116 40h2v1h-2zM124 40h2v1h-2zM128 40h2v1h-2zM14 41h2v1h-2zM18 41h2v1h-2zM28 41h2v1h-2zM32 41h2v1h-2zM62 41h2v1h-2zM66 41h2v1h-2zM74 41h2v1h-2zM78 41h4v1h-4zM110 41h4v1h-4zM116 41h2v1h-2zM124 41h2v1h-2zM128 41h2v1h-2zM22 42h4v1h-4zM70 42h2v1h-2zM120 42h2v1h-2zM22 43h4v1h-4zM70 43h2v1h-2zM120 43h2v1h-2zM16 44h4v1h-4zM28 44h4v1h-4zM66 44h4v1h-4zM122 44h4v1h-4zM16 45h4v1h-4zM28 45h4v1h-4zM66 45h4v1h-4zM122 45h4v1h-4zM20 58h8v1h-8zM20 59h8v1h-8zM16 60h4v1h-4zM28 60h4v1h-4zM68 60h8v1h-8zM116 60h8v1h-8zM16 61h4v1h-4zM28 61h4v1h-4zM68 61h8v1h-8zM116 61h8v1h-8zM14 62h2v1h-2zM32 62h2v1h-2zM64 62h4v1h-4zM76 62h4v1h-4zM112 62h4v1h-4zM124 62h4v1h-4zM14 63h2v1h-2zM32 63h2v1h-2zM64 63h4v1h-4zM76 63h4v1h-4zM112 63h4v1h-4zM124 63h4v1h-4zM12 64h2v1h-2zM34 64h2v1h-2zM62 64h2v1h-2zM80 64h2v1h-2zM110 64h2v1h-2zM128 64h2v1h-2zM12 65h2v1h-2zM34 65h2v1h-2zM62 65h2v1h-2zM80 65h2v1h-2zM110 65h2v1h-2zM128 65h2v1h-2zM12 66h2v1h-2zM34 66h2v1h-2zM60 66h2v1h-2zM82 66h2v1h-2zM108 66h2v1h-2zM130 66h2v1h-2zM12 67h2v1h-2zM34 67h2v1h-2zM60 67h2v1h-2zM82 67h2v1h-2zM108 67h2v1h-2zM130 67h2v1h-2zM10 68h2v1h-2zM14 68h2v1h-2zM60 68h2v1h-2zM82 68h2v1h-2zM108 68h2v1h-2zM130 68h2v1h-2zM10 69h2v1h-2zM14 69h2v1h-2zM60 69h2v1h-2zM82 69h2v1h-2zM108 69h2v1h-2zM130 69h2v1h-2zM10 70h2v1h-2zM16 70h2v1h-2zM58 70h2v1h-2zM62 70h2v1h-2zM106 70h2v1h-2zM110 70h2v1h-2zM10 71h2v1h-2zM16 71h2v1h-2zM58 71h2v1h-2zM62 71h2v1h-2zM106 71h2v1h-2zM110 71h2v1h-2zM12 72h2v1h-2zM16 72h2v1h-2zM20 72h4v1h-4zM26 72h2v1h-2zM34 72h2v1h-2zM58 72h2v1h-2zM64 72h2v1h-2zM106 72h2v1h-2zM112 72h2v1h-2zM12 73h2v1h-2zM16 73h2v1h-2zM20 73h4v1h-4zM26 73h2v1h-2zM34 73h2v1h-2zM58 73h2v1h-2zM64 73h2v1h-2zM106 73h2v1h-2zM112 73h2v1h-2zM12 74h2v1h-2zM24 74h10v1h-10zM60 74h2v1h-2zM64 74h2v1h-2zM68 74h4v1h-4zM74 74h2v1h-2zM82 74h2v1h-2zM108 74h2v1h-2zM112 74h2v1h-2zM116 74h4v1h-4zM122 74h2v1h-2zM130 74h2v1h-2zM12 75h2v1h-2zM24 75h10v1h-10zM60 75h2v1h-2zM64 75h2v1h-2zM68 75h4v1h-4zM74 75h2v1h-2zM82 75h2v1h-2zM108 75h2v1h-2zM112 75h2v1h-2zM116 75h4v1h-4zM122 75h2v1h-2zM130 75h2v1h-2zM12 76h2v1h-2zM24 76h2v1h-2zM30 76h4v1h-4zM60 76h2v1h-2zM72 76h10v1h-10zM108 76h2v1h-2zM120 76h10v1h-10zM12 77h2v1h-2zM24 77h2v1h-2zM30 77h4v1h-4zM60 77h2v1h-2zM72 77h10v1h-10zM108 77h2v1h-2zM120 77h10v1h-10zM14 78h2v1h-2zM18 78h2v1h-2zM30 78h2v1h-2zM60 78h2v1h-2zM72 78h2v1h-2zM78 78h4v1h-4zM108 78h2v1h-2zM120 78h2v1h-2zM126 78h4v1h-4zM14 79h2v1h-2zM18 79h2v1h-2zM30 79h2v1h-2zM60 79h2v1h-2zM72 79h2v1h-2zM78 79h4v1h-4zM108 79h2v1h-2zM120 79h2v1h-2zM126 79h4v1h-4zM16 80h2v1h-2zM26 80h4v1h-4zM62 80h2v1h-2zM66 80h2v1h-2zM78 80h2v1h-2zM110 80h2v1h-2zM114 80h2v1h-2zM126 80h2v1h-2zM16 81h2v1h-2zM26 81h4v1h-4zM62 81h2v1h-2zM66 81h2v1h-2zM78 81h2v1h-2zM110 81h2v1h-2zM114 81h2v1h-2zM126 81h2v1h-2zM16 82h6v1h-6zM26 82h4v1h-4zM64 82h2v1h-2zM74 82h4v1h-4zM112 82h2v1h-2zM122 82h4v1h-4zM16 83h6v1h-6zM26 83h4v1h-4zM64 83h2v1h-2zM74 83h4v1h-4zM112 83h2v1h-2zM122 83h4v1h-4zM16 84h2v1h-2zM20 84h2v1h-2zM30 84h2v1h-2zM64 84h6v1h-6zM76 84h2v1h-2zM112 84h6v1h-6zM122 84h4v1h-4zM16 85h2v1h-2zM20 85h2v1h-2zM30 85h2v1h-2zM64 85h6v1h-6zM76 85h2v1h-2zM112 85h6v1h-6zM122 85h4v1h-4zM16 86h2v1h-2zM20 86h2v1h-2zM30 86h2v1h-2zM62 86h2v1h-2zM78 86h2v1h-2zM112 86h2v1h-2zM118 86h2v1h-2zM126 86h2v1h-2zM16 87h2v1h-2zM20 87h2v1h-2zM30 87h2v1h-2zM62 87h2v1h-2zM78 87h2v1h-2zM112 87h2v1h-2zM118 87h2v1h-2zM126 87h2v1h-2zM62 88h2v1h-2zM76 88h4v1h-4zM126 88h2v1h-2zM62 89h2v1h-2zM76 89h4v1h-4zM126 89h2v1h-2zM18 90h2v1h-2zM22 90h4v1h-4zM28 90h2v1h-2zM66 90h2v1h-2zM72 90h8v1h-8zM118 90h4v1h-4zM18 91h2v1h-2zM22 91h4v1h-4zM28 91h2v1h-2zM66 91h2v1h-2zM72 91h8v1h-8zM118 91h4v1h-4zM20 92h6v1h-6zM74 92h6v1h-6zM112 92h2v1h-2zM20 93h6v1h-6zM74 93h6v1h-6zM112 93h2v1h-2zM20 106h8v1h-8zM20 107h8v1h-8zM16 108h4v1h-4zM28 108h4v1h-4zM68 108h8v1h-8zM116 108h8v1h-8zM16 109h4v1h-4zM28 109h4v1h-4zM68 109h8v1h-8zM116 109h8v1h-8zM14 110h2v1h-2zM32 110h2v1h-2zM64 110h4v1h-4zM76 110h4v1h-4zM112 110h4v1h-4zM124 110h4v1h-4zM14 111h2v1h-2zM32 111h2v1h-2zM64 111h4v1h-4zM76 111h4v1h-4zM112 111h4v1h-4zM124 111h4v1h-4zM12 112h2v1h-2zM34 112h2v1h-2zM62 112h2v1h-2zM80 112h2v1h-2zM110 112h2v1h-2zM128 112h2v1h-2zM12 113h2v1h-2zM34 113h2v1h-2zM62 113h2v1h-2zM80 113h2v1h-2zM110 113h2v1h-2zM128 113h2v1h-2zM12 114h2v1h-2zM34 114h2v1h-2zM60 114h2v1h-2zM82 114h2v1h-2zM108 114h2v1h-2zM130 114h2v1h-2zM12 115h2v1h-2zM34 115h2v1h-2zM60 115h2v1h-2zM82 115h2v1h-2zM108 115h2v1h-2zM130 115h2v1h-2zM32 116h2v1h-2zM36 116h2v1h-2zM60 116h2v1h-2zM82 116h2v1h-2zM108 116h2v1h-2zM130 116h2v1h-2zM32 117h2v1h-2zM36 117h2v1h-2zM60 117h2v1h-2zM82 117h2v1h-2zM108 117h2v1h-2zM130 117h2v1h-2zM30 118h2v1h-2zM36 118h2v1h-2zM80 118h2v1h-2zM84 118h2v1h-2zM128 118h2v1h-2zM132 118h2v1h-2zM30 119h2v1h-2zM36 119h2v1h-2zM80 119h2v1h-2zM84 119h2v1h-2zM128 119h2v1h-2zM132 119h2v1h-2zM12 120h2v1h-2zM20 120h2v1h-2zM24 120h4v1h-4zM30 120h2v1h-2zM34 120h2v1h-2zM78 120h2v1h-2zM84 120h2v1h-2zM126 120h2v1h-2zM132 120h2v1h-2zM12 121h2v1h-2zM20 121h2v1h-2zM24 121h4v1h-4zM30 121h2v1h-2zM34 121h2v1h-2zM78 121h2v1h-2zM84 121h2v1h-2zM126 121h2v1h-2zM132 121h2v1h-2zM14 122h10v1h-10zM34 122h2v1h-2zM60 122h2v1h-2zM68 122h2v1h-2zM72 122h4v1h-4zM78 122h2v1h-2zM82 122h2v1h-2zM108 122h2v1h-2zM116 122h2v1h-2zM120 122h4v1h-4zM126 122h2v1h-2zM130 122h2v1h-2zM14 123h10v1h-10zM34 123h2v1h-2zM60 123h2v1h-2zM68 123h2v1h-2zM72 123h4v1h-4zM78 123h2v1h-2zM82 123h2v1h-2zM108 123h2v1h-2zM116 123h2v1h-2zM120 123h4v1h-4zM126 123h2v1h-2zM130 123h2v1h-2zM14 124h4v1h-4zM22 124h2v1h-2zM34 124h2v1h-2zM62 124h10v1h-10zM82 124h2v1h-2zM110 124h10v1h-10zM130 124h2v1h-2zM14 125h4v1h-4zM22 125h2v1h-2zM34 125h2v1h-2zM62 125h10v1h-10zM82 125h2v1h-2zM110 125h10v1h-10zM130 125h2v1h-2zM16 126h2v1h-2zM28 126h2v1h-2zM32 126h2v1h-2zM62 126h4v1h-4zM70 126h2v1h-2zM82 126h2v1h-2zM110 126h4v1h-4zM118 126h2v1h-2zM130 126h2v1h-2zM16 127h2v1h-2zM28 127h2v1h-2zM32 127h2v1h-2zM62 127h4v1h-4zM70 127h2v1h-2zM82 127h2v1h-2zM110 127h4v1h-4zM118 127h2v1h-2zM130 127h2v1h-2zM18 128h4v1h-4zM30 128h2v1h-2zM64 128h2v1h-2zM76 128h2v1h-2zM80 128h2v1h-2zM112 128h2v1h-2zM124 128h2v1h-2zM128 128h2v1h-2zM18 129h4v1h-4zM30 129h2v1h-2zM64 129h2v1h-2zM76 129h2v1h-2zM80 129h2v1h-2zM112 129h2v1h-2zM124 129h2v1h-2zM128 129h2v1h-2zM18 130h4v1h-4zM26 130h6v1h-6zM66 130h4v1h-4zM78 130h2v1h-2zM114 130h4v1h-4zM126 130h2v1h-2zM18 131h4v1h-4zM26 131h6v1h-6zM66 131h4v1h-4zM78 131h2v1h-2zM114 131h4v1h-4zM126 131h2v1h-2zM16 132h2v1h-2zM26 132h2v1h-2zM30 132h2v1h-2zM66 132h4v1h-4zM74 132h6v1h-6zM114 132h2v1h-2zM122 132h6v1h-6zM16 133h2v1h-2zM26 133h2v1h-2zM30 133h2v1h-2zM66 133h4v1h-4zM74 133h6v1h-6zM114 133h2v1h-2zM122 133h6v1h-6zM16 134h2v1h-2zM26 134h2v1h-2zM30 134h2v1h-2zM64 134h2v1h-2zM72 134h2v1h-2zM78 134h2v1h-2zM112 134h2v1h-2zM128 134h2v1h-2zM16 135h2v1h-2zM26 135h2v1h-2zM30 135h2v1h-2zM64 135h2v1h-2zM72 135h2v1h-2zM78 135h2v1h-2zM112 135h2v1h-2zM128 135h2v1h-2zM64 136h2v1h-2zM112 136h4v1h-4zM128 136h2v1h-2zM64 137h2v1h-2zM112 137h4v1h-4zM128 137h2v1h-2zM18 138h2v1h-2zM22 138h4v1h-4zM28 138h2v1h-2zM70 138h4v1h-4zM112 138h8v1h-8zM124 138h2v1h-2zM18 139h2v1h-2zM22 139h4v1h-4zM28 139h2v1h-2zM70 139h4v1h-4zM112 139h8v1h-8zM124 139h2v1h-2zM22 140h6v1h-6zM78 140h2v1h-2zM112 140h6v1h-6zM22 141h6v1h-6zM78 141h2v1h-2zM112 141h6v1h-6zM20 154h8v1h-8zM68 154h8v1h-8zM116 154h8v1h-8zM20 155h8v1h-8zM68 155h8v1h-8zM116 155h8v1h-8zM16 156h4v1h-4zM24 156h2v1h-2zM28 156h4v1h-4zM64 156h4v1h-4zM72 156h2v1h-2zM76 156h4v1h-4zM112 156h4v1h-4zM120 156h2v1h-2zM124 156h4v1h-4zM16 157h4v1h-4zM24 157h2v1h-2zM28 157h4v1h-4zM64 157h4v1h-4zM72 157h2v1h-2zM76 157h4v1h-4zM112 157h4v1h-4zM120 157h2v1h-2zM124 157h4v1h-4zM14 158h2v1h-2zM22 158h2v1h-2zM32 158h2v1h-2zM62 158h2v1h-2zM70 158h2v1h-2zM80 158h2v1h-2zM110 158h2v1h-2zM118 158h2v1h-2zM128 158h2v1h-2zM14 159h2v1h-2zM22 159h2v1h-2zM32 159h2v1h-2zM62 159h2v1h-2zM70 159h2v1h-2zM80 159h2v1h-2zM110 159h2v1h-2zM118 159h2v1h-2zM128 159h2v1h-2zM12 160h2v1h-2zM24 160h2v1h-2zM34 160h2v1h-2zM60 160h2v1h-2zM72 160h2v1h-2zM82 160h2v1h-2zM108 160h2v1h-2zM120 160h2v1h-2zM130 160h2v1h-2zM12 161h2v1h-2zM24 161h2v1h-2zM34 161h2v1h-2zM60 161h2v1h-2zM72 161h2v1h-2zM82 161h2v1h-2zM108 161h2v1h-2zM120 161h2v1h-2zM130 161h2v1h-2zM12 162h2v1h-2zM34 162h2v1h-2zM60 162h2v1h-2zM82 162h2v1h-2zM108 162h2v1h-2zM130 162h2v1h-2zM12 163h2v1h-2zM34 163h2v1h-2zM60 163h2v1h-2zM82 163h2v1h-2zM108 163h2v1h-2zM130 163h2v1h-2zM10 164h2v1h-2zM36 164h2v1h-2zM58 164h2v1h-2zM84 164h2v1h-2zM106 164h2v1h-2zM132 164h2v1h-2zM10 165h2v1h-2zM36 165h2v1h-2zM58 165h2v1h-2zM84 165h2v1h-2zM106 165h2v1h-2zM132 165h2v1h-2zM12 166h2v1h-2zM34 166h2v1h-2zM60 166h2v1h-2zM82 166h2v1h-2zM108 166h2v1h-2zM130 166h2v1h-2zM12 167h2v1h-2zM34 167h2v1h-2zM60 167h2v1h-2zM82 167h2v1h-2zM108 167h2v1h-2zM130 167h2v1h-2zM12 168h2v1h-2zM34 168h2v1h-2zM60 168h2v1h-2zM82 168h2v1h-2zM108 168h2v1h-2zM130 168h2v1h-2zM12 169h2v1h-2zM34 169h2v1h-2zM60 169h2v1h-2zM82 169h2v1h-2zM108 169h2v1h-2zM130 169h2v1h-2zM14 172h2v1h-2zM32 172h2v1h-2zM62 172h2v1h-2zM80 172h2v1h-2zM110 172h2v1h-2zM128 172h2v1h-2zM14 173h2v1h-2zM32 173h2v1h-2zM62 173h2v1h-2zM80 173h2v1h-2zM110 173h2v1h-2zM128 173h2v1h-2zM16 174h4v1h-4zM28 174h4v1h-4zM58 174h2v1h-2zM64 174h4v1h-4zM76 174h4v1h-4zM112 174h4v1h-4zM124 174h4v1h-4zM132 174h2v1h-2zM16 175h4v1h-4zM28 175h4v1h-4zM58 175h2v1h-2zM64 175h4v1h-4zM76 175h4v1h-4zM112 175h4v1h-4zM124 175h4v1h-4zM132 175h2v1h-2zM18 176h12v1h-12zM58 176h2v1h-2zM66 176h12v1h-12zM114 176h12v1h-12zM132 176h2v1h-2zM18 177h12v1h-12zM58 177h2v1h-2zM66 177h12v1h-12zM114 177h12v1h-12zM132 177h2v1h-2zM10 178h2v1h-2zM16 178h4v1h-4zM28 178h4v1h-4zM36 178h2v1h-2zM64 178h4v1h-4zM76 178h4v1h-4zM82 178h2v1h-2zM108 178h2v1h-2zM112 178h4v1h-4zM124 178h4v1h-4zM10 179h2v1h-2zM16 179h4v1h-4zM28 179h4v1h-4zM36 179h2v1h-2zM64 179h4v1h-4zM76 179h4v1h-4zM82 179h2v1h-2zM108 179h2v1h-2zM112 179h4v1h-4zM124 179h4v1h-4zM10 180h2v1h-2zM16 180h2v1h-2zM30 180h2v1h-2zM36 180h2v1h-2zM62 180h4v1h-4zM78 180h2v1h-2zM84 180h2v1h-2zM106 180h2v1h-2zM112 180h2v1h-2zM126 180h4v1h-4zM10 181h2v1h-2zM16 181h2v1h-2zM30 181h2v1h-2zM36 181h2v1h-2zM62 181h4v1h-4zM78 181h2v1h-2zM84 181h2v1h-2zM106 181h2v1h-2zM112 181h2v1h-2zM126 181h4v1h-4zM12 182h2v1h-2zM34 182h2v1h-2zM84 182h2v1h-2zM106 182h2v1h-2zM12 183h2v1h-2zM34 183h2v1h-2zM84 183h2v1h-2zM106 183h2v1h-2zM14 184h2v1h-2zM18 184h2v1h-2zM28 184h2v1h-2zM32 184h2v1h-2zM66 184h2v1h-2zM76 184h4v1h-4zM112 184h4v1h-4zM124 184h2v1h-2zM14 185h2v1h-2zM18 185h2v1h-2zM28 185h2v1h-2zM32 185h2v1h-2zM66 185h2v1h-2zM76 185h4v1h-4zM112 185h4v1h-4zM124 185h2v1h-2zM22 186h4v1h-4zM64 186h2v1h-2zM72 186h4v1h-4zM116 186h4v1h-4zM126 186h2v1h-2zM22 187h4v1h-4zM64 187h2v1h-2zM72 187h4v1h-4zM116 187h4v1h-4zM126 187h2v1h-2zM16 188h4v1h-4zM28 188h4v1h-4zM66 188h4v1h-4zM122 188h4v1h-4zM16 189h4v1h-4zM28 189h4v1h-4zM66 189h4v1h-4zM122 189h4v1h-4z"/>
  <path fill="#af7b42" d="M20 12h4v1h-4zM26 12h2v1h-2zM68 12h4v1h-4zM74 12h2v1h-2zM116 12h4v1h-4zM122 12h2v1h-2zM20 13h4v1h-4zM26 13h2v1h-2zM68 13h4v1h-4zM74 13h2v1h-2zM116 13h4v1h-4zM122 13h2v1h-2zM16 14h6v1h-6zM24 14h8v1h-8zM64 14h6v1h-6zM72 14h8v1h-8zM112 14h6v1h-6zM120 14h8v1h-8zM16 15h6v1h-6zM24 15h8v1h-8zM64 15h6v1h-6zM72 15h8v1h-8zM112 15h6v1h-6zM120 15h8v1h-8zM16 16h8v1h-8zM26 16h6v1h-6zM64 16h8v1h-8zM74 16h6v1h-6zM112 16h8v1h-8zM122 16h6v1h-6zM16 17h8v1h-8zM26 17h6v1h-6zM64 17h8v1h-8zM74 17h6v1h-6zM112 17h8v1h-8zM122 17h6v1h-6zM20 18h8v1h-8zM68 18h8v1h-8zM116 18h8v1h-8zM20 19h8v1h-8zM68 19h8v1h-8zM116 19h8v1h-8zM12 20h4v1h-4zM18 20h4v1h-4zM26 20h4v1h-4zM32 20h4v1h-4zM60 20h4v1h-4zM66 20h4v1h-4zM74 20h4v1h-4zM80 20h4v1h-4zM108 20h4v1h-4zM114 20h4v1h-4zM122 20h4v1h-4zM128 20h4v1h-4zM12 21h4v1h-4zM18 21h4v1h-4zM26 21h4v1h-4zM32 21h4v1h-4zM60 21h4v1h-4zM66 21h4v1h-4zM74 21h4v1h-4zM80 21h4v1h-4zM108 21h4v1h-4zM114 21h4v1h-4zM122 21h4v1h-4zM128 21h4v1h-4zM14 22h2v1h-2zM18 22h2v1h-2zM22 22h4v1h-4zM28 22h2v1h-2zM32 22h2v1h-2zM62 22h2v1h-2zM66 22h2v1h-2zM70 22h4v1h-4zM76 22h2v1h-2zM80 22h2v1h-2zM110 22h2v1h-2zM114 22h2v1h-2zM118 22h4v1h-4zM124 22h2v1h-2zM128 22h2v1h-2zM14 23h2v1h-2zM18 23h2v1h-2zM22 23h4v1h-4zM28 23h2v1h-2zM32 23h2v1h-2zM62 23h2v1h-2zM66 23h2v1h-2zM70 23h4v1h-4zM76 23h2v1h-2zM80 23h2v1h-2zM110 23h2v1h-2zM114 23h2v1h-2zM118 23h4v1h-4zM124 23h2v1h-2zM128 23h2v1h-2zM18 26h2v1h-2zM28 26h2v1h-2zM66 26h2v1h-2zM76 26h2v1h-2zM114 26h2v1h-2zM124 26h2v1h-2zM18 27h2v1h-2zM28 27h2v1h-2zM66 27h2v1h-2zM76 27h2v1h-2zM114 27h2v1h-2zM124 27h2v1h-2zM16 40h2v1h-2zM30 40h2v1h-2zM64 40h2v1h-2zM126 40h2v1h-2zM16 41h2v1h-2zM30 41h2v1h-2zM64 41h2v1h-2zM126 41h2v1h-2zM18 42h4v1h-4zM26 42h4v1h-4zM66 42h4v1h-4zM122 42h4v1h-4zM18 43h4v1h-4zM26 43h4v1h-4zM66 43h4v1h-4zM122 43h4v1h-4zM20 60h8v1h-8zM20 61h8v1h-8zM16 62h16v1h-16zM68 62h8v1h-8zM116 62h8v1h-8zM16 63h16v1h-16zM68 63h8v1h-8zM116 63h8v1h-8zM14 64h18v1h-18zM64 64h16v1h-16zM112 64h16v1h-16zM14 65h18v1h-18zM64 65h16v1h-16zM112 65h16v1h-16zM14 66h10v1h-10zM26 66h2v1h-2zM62 66h18v1h-18zM110 66h18v1h-18zM14 67h10v1h-10zM26 67h2v1h-2zM62 67h18v1h-18zM110 67h18v1h-18zM12 68h2v1h-2zM16 68h4v1h-4zM32 68h4v1h-4zM62 68h10v1h-10zM74 68h2v1h-2zM110 68h10v1h-10zM122 68h2v1h-2zM12 69h2v1h-2zM16 69h4v1h-4zM32 69h4v1h-4zM62 69h10v1h-10zM74 69h2v1h-2zM110 69h10v1h-10zM122 69h2v1h-2zM12 70h4v1h-4zM18 70h4v1h-4zM26 70h4v1h-4zM32 70h4v1h-4zM60 70h2v1h-2zM64 70h4v1h-4zM80 70h4v1h-4zM108 70h2v1h-2zM112 70h4v1h-4zM128 70h4v1h-4zM12 71h4v1h-4zM18 71h4v1h-4zM26 71h4v1h-4zM32 71h4v1h-4zM60 71h2v1h-2zM64 71h4v1h-4zM80 71h4v1h-4zM108 71h2v1h-2zM112 71h4v1h-4zM128 71h4v1h-4zM18 72h2v1h-2zM24 72h2v1h-2zM28 72h6v1h-6zM60 72h4v1h-4zM66 72h4v1h-4zM74 72h4v1h-4zM80 72h4v1h-4zM108 72h4v1h-4zM114 72h4v1h-4zM122 72h4v1h-4zM128 72h4v1h-4zM18 73h2v1h-2zM24 73h2v1h-2zM28 73h6v1h-6zM60 73h4v1h-4zM66 73h4v1h-4zM74 73h4v1h-4zM80 73h4v1h-4zM108 73h4v1h-4zM114 73h4v1h-4zM122 73h4v1h-4zM128 73h4v1h-4zM20 74h2v1h-2zM66 74h2v1h-2zM72 74h2v1h-2zM76 74h6v1h-6zM114 74h2v1h-2zM120 74h2v1h-2zM124 74h6v1h-6zM20 75h2v1h-2zM66 75h2v1h-2zM72 75h2v1h-2zM76 75h6v1h-6zM114 75h2v1h-2zM120 75h2v1h-2zM124 75h6v1h-6zM68 76h2v1h-2zM116 76h2v1h-2zM68 77h2v1h-2zM116 77h2v1h-2zM20 90h2v1h-2zM26 90h2v1h-2zM112 90h2v1h-2zM20 91h2v1h-2zM26 91h2v1h-2zM112 91h2v1h-2zM114 92h4v1h-4zM114 93h4v1h-4zM20 108h8v1h-8zM20 109h8v1h-8zM16 110h16v1h-16zM68 110h8v1h-8zM116 110h8v1h-8zM16 111h16v1h-16zM68 111h8v1h-8zM116 111h8v1h-8zM16 112h18v1h-18zM64 112h16v1h-16zM112 112h16v1h-16zM16 113h18v1h-18zM64 113h16v1h-16zM112 113h16v1h-16zM20 114h2v1h-2zM24 114h10v1h-10zM64 114h18v1h-18zM112 114h18v1h-18zM20 115h2v1h-2zM24 115h10v1h-10zM64 115h18v1h-18zM112 115h18v1h-18zM12 116h4v1h-4zM28 116h4v1h-4zM34 116h2v1h-2zM68 116h2v1h-2zM72 116h10v1h-10zM116 116h2v1h-2zM120 116h10v1h-10zM12 117h4v1h-4zM28 117h4v1h-4zM34 117h2v1h-2zM68 117h2v1h-2zM72 117h10v1h-10zM116 117h2v1h-2zM120 117h10v1h-10zM12 118h4v1h-4zM18 118h4v1h-4zM26 118h4v1h-4zM32 118h4v1h-4zM60 118h4v1h-4zM76 118h4v1h-4zM82 118h2v1h-2zM108 118h4v1h-4zM124 118h4v1h-4zM130 118h2v1h-2zM12 119h4v1h-4zM18 119h4v1h-4zM26 119h4v1h-4zM32 119h4v1h-4zM60 119h4v1h-4zM76 119h4v1h-4zM82 119h2v1h-2zM108 119h4v1h-4zM124 119h4v1h-4zM130 119h2v1h-2zM14 120h6v1h-6zM22 120h2v1h-2zM28 120h2v1h-2zM60 120h4v1h-4zM66 120h4v1h-4zM74 120h4v1h-4zM80 120h4v1h-4zM108 120h4v1h-4zM114 120h4v1h-4zM122 120h4v1h-4zM128 120h4v1h-4zM14 121h6v1h-6zM22 121h2v1h-2zM28 121h2v1h-2zM60 121h4v1h-4zM66 121h4v1h-4zM74 121h4v1h-4zM80 121h4v1h-4zM108 121h4v1h-4zM114 121h4v1h-4zM122 121h4v1h-4zM128 121h4v1h-4zM26 122h2v1h-2zM62 122h6v1h-6zM70 122h2v1h-2zM76 122h2v1h-2zM110 122h6v1h-6zM118 122h2v1h-2zM124 122h2v1h-2zM26 123h2v1h-2zM62 123h6v1h-6zM70 123h2v1h-2zM76 123h2v1h-2zM110 123h6v1h-6zM118 123h2v1h-2zM124 123h2v1h-2zM74 124h2v1h-2zM122 124h2v1h-2zM74 125h2v1h-2zM122 125h2v1h-2zM20 138h2v1h-2zM26 138h2v1h-2zM78 138h2v1h-2zM20 139h2v1h-2zM26 139h2v1h-2zM78 139h2v1h-2zM74 140h4v1h-4zM74 141h4v1h-4zM20 156h4v1h-4zM26 156h2v1h-2zM68 156h4v1h-4zM74 156h2v1h-2zM116 156h4v1h-4zM122 156h2v1h-2zM20 157h4v1h-4zM26 157h2v1h-2zM68 157h4v1h-4zM74 157h2v1h-2zM116 157h4v1h-4zM122 157h2v1h-2zM16 158h6v1h-6zM24 158h8v1h-8zM64 158h6v1h-6zM72 158h8v1h-8zM112 158h6v1h-6zM120 158h8v1h-8zM16 159h6v1h-6zM24 159h8v1h-8zM64 159h6v1h-6zM72 159h8v1h-8zM112 159h6v1h-6zM120 159h8v1h-8zM16 160h8v1h-8zM26 160h6v1h-6zM64 160h8v1h-8zM74 160h6v1h-6zM112 160h8v1h-8zM122 160h6v1h-6zM16 161h8v1h-8zM26 161h6v1h-6zM64 161h8v1h-8zM74 161h6v1h-6zM112 161h8v1h-8zM122 161h6v1h-6zM20 162h8v1h-8zM68 162h8v1h-8zM116 162h8v1h-8zM20 163h8v1h-8zM68 163h8v1h-8zM116 163h8v1h-8zM12 164h4v1h-4zM32 164h4v1h-4zM60 164h4v1h-4zM80 164h4v1h-4zM108 164h4v1h-4zM128 164h4v1h-4zM12 165h4v1h-4zM32 165h4v1h-4zM60 165h4v1h-4zM80 165h4v1h-4zM108 165h4v1h-4zM128 165h4v1h-4zM14 166h6v1h-6zM28 166h6v1h-6zM62 166h6v1h-6zM76 166h6v1h-6zM110 166h6v1h-6zM124 166h6v1h-6zM14 167h6v1h-6zM28 167h6v1h-6zM62 167h6v1h-6zM76 167h6v1h-6zM110 167h6v1h-6zM124 167h6v1h-6zM14 168h20v1h-20zM62 168h20v1h-20zM110 168h20v1h-20zM14 169h20v1h-20zM62 169h20v1h-20zM110 169h20v1h-20zM14 170h20v1h-20zM62 170h20v1h-20zM110 170h20v1h-20zM14 171h20v1h-20zM62 171h20v1h-20zM110 171h20v1h-20zM16 172h16v1h-16zM64 172h16v1h-16zM112 172h16v1h-16zM16 173h16v1h-16zM64 173h16v1h-16zM112 173h16v1h-16zM20 174h8v1h-8zM68 174h8v1h-8zM116 174h8v1h-8zM20 175h8v1h-8zM68 175h8v1h-8zM116 175h8v1h-8zM16 184h2v1h-2zM30 184h2v1h-2zM64 184h2v1h-2zM126 184h2v1h-2zM16 185h2v1h-2zM30 185h2v1h-2zM64 185h2v1h-2zM126 185h2v1h-2zM18 186h4v1h-4zM26 186h4v1h-4zM66 186h6v1h-6zM120 186h6v1h-6zM18 187h4v1h-4zM26 187h4v1h-4zM66 187h6v1h-6zM120 187h6v1h-6z"/>
  <path fill="#6d929c" d="M14 32h2v1h-2zM32 32h2v1h-2zM62 32h2v1h-2zM128 32h2v1h-2zM14 33h2v1h-2zM32 33h2v1h-2zM62 33h2v1h-2zM128 33h2v1h-2zM14 34h4v1h-4zM30 34h4v1h-4zM64 34h2v1h-2zM78 34h4v1h-4zM110 34h4v1h-4zM126 34h2v1h-2zM14 35h4v1h-4zM30 35h4v1h-4zM64 35h2v1h-2zM78 35h4v1h-4zM110 35h4v1h-4zM126 35h2v1h-2zM18 36h4v1h-4zM26 36h4v1h-4zM66 36h4v1h-4zM74 36h2v1h-2zM116 36h2v1h-2zM122 36h4v1h-4zM18 37h4v1h-4zM26 37h4v1h-4zM66 37h4v1h-4zM74 37h2v1h-2zM116 37h2v1h-2zM122 37h4v1h-4zM18 38h12v1h-12zM66 38h10v1h-10zM116 38h10v1h-10zM18 39h12v1h-12zM66 39h10v1h-10zM116 39h10v1h-10zM20 40h8v1h-8zM68 40h6v1h-6zM118 40h6v1h-6zM20 41h8v1h-8zM68 41h6v1h-6zM118 41h6v1h-6zM18 84h2v1h-2zM22 84h4v1h-4zM28 84h2v1h-2zM74 84h2v1h-2zM18 85h2v1h-2zM22 85h4v1h-4zM28 85h2v1h-2zM74 85h2v1h-2zM18 86h2v1h-2zM22 86h4v1h-4zM28 86h2v1h-2zM68 86h4v1h-4zM74 86h4v1h-4zM114 86h4v1h-4zM120 86h2v1h-2zM18 87h2v1h-2zM22 87h4v1h-4zM28 87h2v1h-2zM68 87h4v1h-4zM74 87h4v1h-4zM114 87h4v1h-4zM120 87h2v1h-2zM68 88h4v1h-4zM116 88h2v1h-2zM120 88h2v1h-2zM68 89h4v1h-4zM116 89h2v1h-2zM120 89h2v1h-2zM18 132h2v1h-2zM22 132h4v1h-4zM28 132h2v1h-2zM116 132h2v1h-2zM18 133h2v1h-2zM22 133h4v1h-4zM28 133h2v1h-2zM116 133h2v1h-2zM18 134h2v1h-2zM22 134h4v1h-4zM28 134h2v1h-2zM70 134h2v1h-2zM74 134h4v1h-4zM114 134h4v1h-4zM120 134h4v1h-4zM18 135h2v1h-2zM22 135h4v1h-4zM28 135h2v1h-2zM70 135h2v1h-2zM74 135h4v1h-4zM114 135h4v1h-4zM120 135h4v1h-4zM70 136h2v1h-2zM74 136h2v1h-2zM120 136h4v1h-4zM70 137h2v1h-2zM74 137h2v1h-2zM120 137h4v1h-4zM14 176h2v1h-2zM32 176h2v1h-2zM62 176h2v1h-2zM128 176h2v1h-2zM14 177h2v1h-2zM32 177h2v1h-2zM62 177h2v1h-2zM128 177h2v1h-2zM14 178h2v1h-2zM32 178h2v1h-2zM62 178h2v1h-2zM80 178h2v1h-2zM110 178h2v1h-2zM128 178h2v1h-2zM14 179h2v1h-2zM32 179h2v1h-2zM62 179h2v1h-2zM80 179h2v1h-2zM110 179h2v1h-2zM128 179h2v1h-2zM14 180h2v1h-2zM18 180h12v1h-12zM32 180h2v1h-2zM66 180h12v1h-12zM80 180h2v1h-2zM110 180h2v1h-2zM114 180h12v1h-12zM14 181h2v1h-2zM18 181h12v1h-12zM32 181h2v1h-2zM66 181h12v1h-12zM80 181h2v1h-2zM110 181h2v1h-2zM114 181h12v1h-12zM18 182h12v1h-12zM66 182h12v1h-12zM114 182h12v1h-12zM18 183h12v1h-12zM66 183h12v1h-12zM114 183h12v1h-12zM20 184h8v1h-8zM68 184h8v1h-8zM116 184h8v1h-8zM20 185h8v1h-8zM68 185h8v1h-8zM116 185h8v1h-8z"/>
  <path fill="#ca9a65" d="M12 24h2v1h-2zM34 24h2v1h-2zM60 24h2v1h-2zM82 24h2v1h-2zM108 24h2v1h-2zM130 24h2v1h-2zM12 25h2v1h-2zM34 25h2v1h-2zM60 25h2v1h-2zM82 25h2v1h-2zM108 25h2v1h-2zM130 25h2v1h-2zM16 26h2v1h-2zM30 26h2v1h-2zM64 26h2v1h-2zM78 26h2v1h-2zM112 26h2v1h-2zM126 26h2v1h-2zM16 27h2v1h-2zM30 27h2v1h-2zM64 27h2v1h-2zM78 27h2v1h-2zM112 27h2v1h-2zM126 27h2v1h-2zM14 28h4v1h-4zM30 28h4v1h-4zM62 28h4v1h-4zM78 28h4v1h-4zM110 28h4v1h-4zM126 28h4v1h-4zM14 29h4v1h-4zM30 29h4v1h-4zM62 29h4v1h-4zM78 29h4v1h-4zM110 29h4v1h-4zM126 29h4v1h-4zM16 30h4v1h-4zM28 30h4v1h-4zM60 30h2v1h-2zM64 30h4v1h-4zM76 30h4v1h-4zM112 30h4v1h-4zM124 30h4v1h-4zM130 30h2v1h-2zM16 31h4v1h-4zM28 31h4v1h-4zM60 31h2v1h-2zM64 31h4v1h-4zM76 31h4v1h-4zM112 31h4v1h-4zM124 31h4v1h-4zM130 31h2v1h-2zM20 32h8v1h-8zM60 32h2v1h-2zM68 32h8v1h-8zM116 32h8v1h-8zM130 32h2v1h-2zM20 33h8v1h-8zM60 33h2v1h-2zM68 33h8v1h-8zM116 33h8v1h-8zM130 33h2v1h-2zM12 36h4v1h-4zM32 36h4v1h-4zM12 37h4v1h-4zM32 37h4v1h-4zM78 38h4v1h-4zM110 38h4v1h-4zM78 39h4v1h-4zM110 39h4v1h-4zM22 74h2v1h-2zM22 75h2v1h-2zM20 76h4v1h-4zM28 76h2v1h-2zM70 76h2v1h-2zM118 76h2v1h-2zM20 77h4v1h-4zM28 77h2v1h-2zM70 77h2v1h-2zM118 77h2v1h-2zM22 78h4v1h-4zM28 78h2v1h-2zM68 78h4v1h-4zM76 78h2v1h-2zM116 78h4v1h-4zM124 78h2v1h-2zM22 79h4v1h-4zM28 79h2v1h-2zM68 79h4v1h-4zM76 79h2v1h-2zM116 79h4v1h-4zM124 79h2v1h-2zM18 80h8v1h-8zM70 80h4v1h-4zM76 80h2v1h-2zM118 80h4v1h-4zM124 80h2v1h-2zM18 81h8v1h-8zM70 81h4v1h-4zM76 81h2v1h-2zM118 81h4v1h-4zM124 81h2v1h-2zM66 82h8v1h-8zM114 82h8v1h-8zM66 83h8v1h-8zM114 83h8v1h-8zM22 88h4v1h-4zM64 88h4v1h-4zM122 88h4v1h-4zM22 89h4v1h-4zM64 89h4v1h-4zM122 89h4v1h-4zM24 122h2v1h-2zM24 123h2v1h-2zM18 124h2v1h-2zM24 124h4v1h-4zM72 124h2v1h-2zM120 124h2v1h-2zM18 125h2v1h-2zM24 125h4v1h-4zM72 125h2v1h-2zM120 125h2v1h-2zM18 126h2v1h-2zM22 126h4v1h-4zM66 126h2v1h-2zM72 126h4v1h-4zM114 126h2v1h-2zM120 126h4v1h-4zM18 127h2v1h-2zM22 127h4v1h-4zM66 127h2v1h-2zM72 127h4v1h-4zM114 127h2v1h-2zM120 127h4v1h-4zM22 128h8v1h-8zM66 128h2v1h-2zM70 128h4v1h-4zM114 128h2v1h-2zM118 128h4v1h-4zM22 129h8v1h-8zM66 129h2v1h-2zM70 129h4v1h-4zM114 129h2v1h-2zM118 129h4v1h-4zM70 130h8v1h-8zM118 130h8v1h-8zM70 131h8v1h-8zM118 131h8v1h-8zM22 136h4v1h-4zM66 136h4v1h-4zM124 136h4v1h-4zM22 137h4v1h-4zM66 137h4v1h-4zM124 137h4v1h-4zM60 174h2v1h-2zM130 174h2v1h-2zM60 175h2v1h-2zM130 175h2v1h-2zM60 176h2v1h-2zM130 176h2v1h-2zM60 177h2v1h-2zM130 177h2v1h-2zM12 178h2v1h-2zM34 178h2v1h-2zM12 179h2v1h-2zM34 179h2v1h-2zM12 180h2v1h-2zM34 180h2v1h-2zM82 180h2v1h-2zM108 180h2v1h-2zM12 181h2v1h-2zM34 181h2v1h-2zM82 181h2v1h-2zM108 181h2v1h-2zM80 182h4v1h-4zM108 182h4v1h-4zM80 183h4v1h-4zM108 183h4v1h-4z"/>
  <path fill="#e4b887" d="M14 16h2v1h-2zM32 16h2v1h-2zM62 16h2v1h-2zM80 16h2v1h-2zM110 16h2v1h-2zM128 16h2v1h-2zM14 17h2v1h-2zM32 17h2v1h-2zM62 17h2v1h-2zM80 17h2v1h-2zM110 17h2v1h-2zM128 17h2v1h-2zM14 18h6v1h-6zM28 18h6v1h-6zM62 18h6v1h-6zM76 18h6v1h-6zM110 18h6v1h-6zM124 18h6v1h-6zM14 19h6v1h-6zM28 19h6v1h-6zM62 19h6v1h-6zM76 19h6v1h-6zM110 19h6v1h-6zM124 19h6v1h-6zM16 20h2v1h-2zM30 20h2v1h-2zM64 20h2v1h-2zM78 20h2v1h-2zM112 20h2v1h-2zM126 20h2v1h-2zM16 21h2v1h-2zM30 21h2v1h-2zM64 21h2v1h-2zM78 21h2v1h-2zM112 21h2v1h-2zM126 21h2v1h-2zM32 64h2v1h-2zM32 65h2v1h-2zM24 66h2v1h-2zM28 66h6v1h-6zM80 66h2v1h-2zM128 66h2v1h-2zM24 67h2v1h-2zM28 67h6v1h-6zM80 67h2v1h-2zM128 67h2v1h-2zM20 68h12v1h-12zM72 68h2v1h-2zM76 68h6v1h-6zM120 68h2v1h-2zM124 68h6v1h-6zM20 69h12v1h-12zM72 69h2v1h-2zM76 69h6v1h-6zM120 69h2v1h-2zM124 69h6v1h-6zM22 70h4v1h-4zM30 70h2v1h-2zM68 70h12v1h-12zM116 70h12v1h-12zM22 71h4v1h-4zM30 71h2v1h-2zM68 71h12v1h-12zM116 71h12v1h-12zM70 72h4v1h-4zM78 72h2v1h-2zM118 72h4v1h-4zM126 72h2v1h-2zM70 73h4v1h-4zM78 73h2v1h-2zM118 73h4v1h-4zM126 73h2v1h-2zM14 112h2v1h-2zM14 113h2v1h-2zM14 114h6v1h-6zM22 114h2v1h-2zM62 114h2v1h-2zM110 114h2v1h-2zM14 115h6v1h-6zM22 115h2v1h-2zM62 115h2v1h-2zM110 115h2v1h-2zM16 116h12v1h-12zM62 116h6v1h-6zM70 116h2v1h-2zM110 116h6v1h-6zM118 116h2v1h-2zM16 117h12v1h-12zM62 117h6v1h-6zM70 117h2v1h-2zM110 117h6v1h-6zM118 117h2v1h-2zM16 118h2v1h-2zM22 118h4v1h-4zM64 118h12v1h-12zM112 118h12v1h-12zM16 119h2v1h-2zM22 119h4v1h-4zM64 119h12v1h-12zM112 119h12v1h-12zM64 120h2v1h-2zM70 120h4v1h-4zM112 120h2v1h-2zM118 120h4v1h-4zM64 121h2v1h-2zM70 121h4v1h-4zM112 121h2v1h-2zM118 121h4v1h-4zM14 160h2v1h-2zM32 160h2v1h-2zM62 160h2v1h-2zM80 160h2v1h-2zM110 160h2v1h-2zM128 160h2v1h-2zM14 161h2v1h-2zM32 161h2v1h-2zM62 161h2v1h-2zM80 161h2v1h-2zM110 161h2v1h-2zM128 161h2v1h-2zM14 162h6v1h-6zM28 162h6v1h-6zM62 162h6v1h-6zM76 162h6v1h-6zM110 162h6v1h-6zM124 162h6v1h-6zM14 163h6v1h-6zM28 163h6v1h-6zM62 163h6v1h-6zM76 163h6v1h-6zM110 163h6v1h-6zM124 163h6v1h-6zM16 164h16v1h-16zM64 164h16v1h-16zM112 164h16v1h-16zM16 165h16v1h-16zM64 165h16v1h-16zM112 165h16v1h-16zM20 166h8v1h-8zM68 166h8v1h-8zM116 166h8v1h-8zM20 167h8v1h-8zM68 167h8v1h-8zM116 167h8v1h-8z"/>
  <path fill="#f0c595" d="M18 28h2v1h-2zM28 28h2v1h-2zM66 28h2v1h-2zM76 28h2v1h-2zM114 28h2v1h-2zM124 28h2v1h-2zM18 29h2v1h-2zM28 29h2v1h-2zM66 29h2v1h-2zM76 29h2v1h-2zM114 29h2v1h-2zM124 29h2v1h-2zM22 30h4v1h-4zM70 30h4v1h-4zM118 30h4v1h-4zM22 31h4v1h-4zM70 31h4v1h-4zM118 31h4v1h-4zM12 34h2v1h-2zM34 34h2v1h-2zM12 35h2v1h-2zM34 35h2v1h-2zM78 36h4v1h-4zM110 36h4v1h-4zM78 37h4v1h-4zM110 37h4v1h-4zM14 72h2v1h-2zM14 73h2v1h-2zM14 74h6v1h-6zM62 74h2v1h-2zM110 74h2v1h-2zM14 75h6v1h-6zM62 75h2v1h-2zM110 75h2v1h-2zM14 76h4v1h-4zM26 76h2v1h-2zM62 76h6v1h-6zM110 76h6v1h-6zM14 77h4v1h-4zM26 77h2v1h-2zM62 77h6v1h-6zM110 77h6v1h-6zM16 78h2v1h-2zM20 78h2v1h-2zM26 78h2v1h-2zM62 78h4v1h-4zM74 78h2v1h-2zM110 78h4v1h-4zM122 78h2v1h-2zM16 79h2v1h-2zM20 79h2v1h-2zM26 79h2v1h-2zM62 79h4v1h-4zM74 79h2v1h-2zM110 79h4v1h-4zM122 79h2v1h-2zM64 80h2v1h-2zM68 80h2v1h-2zM74 80h2v1h-2zM112 80h2v1h-2zM116 80h2v1h-2zM122 80h2v1h-2zM64 81h2v1h-2zM68 81h2v1h-2zM74 81h2v1h-2zM112 81h2v1h-2zM116 81h2v1h-2zM122 81h2v1h-2zM64 86h4v1h-4zM122 86h4v1h-4zM64 87h4v1h-4zM122 87h4v1h-4zM32 120h2v1h-2zM32 121h2v1h-2zM28 122h6v1h-6zM80 122h2v1h-2zM128 122h2v1h-2zM28 123h6v1h-6zM80 123h2v1h-2zM128 123h2v1h-2zM20 124h2v1h-2zM30 124h4v1h-4zM76 124h6v1h-6zM124 124h6v1h-6zM20 125h2v1h-2zM30 125h4v1h-4zM76 125h6v1h-6zM124 125h6v1h-6zM20 126h2v1h-2zM26 126h2v1h-2zM30 126h2v1h-2zM68 126h2v1h-2zM78 126h4v1h-4zM116 126h2v1h-2zM126 126h4v1h-4zM20 127h2v1h-2zM26 127h2v1h-2zM30 127h2v1h-2zM68 127h2v1h-2zM78 127h4v1h-4zM116 127h2v1h-2zM126 127h4v1h-4zM68 128h2v1h-2zM74 128h2v1h-2zM78 128h2v1h-2zM116 128h2v1h-2zM122 128h2v1h-2zM126 128h2v1h-2zM68 129h2v1h-2zM74 129h2v1h-2zM78 129h2v1h-2zM116 129h2v1h-2zM122 129h2v1h-2zM126 129h2v1h-2zM66 134h4v1h-4zM124 134h4v1h-4zM66 135h4v1h-4zM124 135h4v1h-4z"/>
  <path fill="#f5c99a" d="M20 24h8v1h-8zM68 24h8v1h-8zM116 24h8v1h-8zM20 25h8v1h-8zM68 25h8v1h-8zM116 25h8v1h-8zM20 26h8v1h-8zM68 26h8v1h-8zM116 26h8v1h-8zM20 27h8v1h-8zM68 27h8v1h-8zM116 27h8v1h-8zM22 28h4v1h-4zM70 28h4v1h-4zM118 28h4v1h-4zM22 29h4v1h-4zM70 29h4v1h-4zM118 29h4v1h-4z"/>
</svg>
