<svg width="1024px" height="1024px" inkscape:export-filename="buzzybee-sprite.png" inkscape:export-xdpi="24" inkscape:export-ydpi="24" inkscape:version="1.4.3 (0d15f75042, 2025-12-25)" sodipodi:docname="buzzybee-sprite.svg" version="1.0" viewBox="0 0 1024 1024" xmlns="http://www.w3.org/2000/svg" xmlns:inkscape="http://www.inkscape.org/namespaces/inkscape" xmlns:sodipodi="http://sodipodi.sourceforge.net/DTD/sodipodi-0.dtd"><sodipodi:namedview bordercolor="#000000" borderopacity="0.25" inkscape:current-layer="g173" inkscape:cx="-399.88203" inkscape:cy="799.76406" inkscape:deskcolor="#d1d1d1" inkscape:pagecheckerboard="true" inkscape:pageopacity="0.0" inkscape:showpageshadow="2" inkscape:window-height="795" inkscape:window-maximized="1" inkscape:window-width="1536" inkscape:window-x="0" inkscape:window-y="0" inkscape:zoom="0.21131232" pagecolor="#ffffff"/><g transform="matrix(1.1049724,0,0,1.1049724,-51.535924,221.9691)"><g transform="matrix(1.25,0,0,1.25,-127.5,-181.45948)"><g fill="#ace3fd"><path d="m594 580.1c-12.2-4.1-12-4-12-7.2 0-1.9-0.5-2.9-1.5-2.9-0.8 0-1.5 0.5-1.5 1 0 1.1-5.9 1.4-8.4 0.4-1-0.4-1.6-1.8-1.6-4 0-3 0.3-3.4 2.8-3.5 1.5 0 3.6-0.4 4.7-0.9 1.8-0.8 1.7-0.9-0.8-0.9-2.6-0.1-2.8-0.3-2.5-3.8l0.3-3.8 5.3-0.3 5.2-0.3v3.5c0 3.2 0.3 3.6 2.5 3.6s2.5 0.4 2.5 3.4c0 2.4-0.5 3.6-1.7 3.9s-1 0.5 0.7 0.6c3.7 0.1 19.9-3.4 24.5-5.3l4-1.7-3.3-2c-2.5-1.7-3.2-2.8-3.2-5.4v-3.3l7.3-1.3c3.9-0.7 13.3-1.3 20.7-1.3 11.7 0 14.1 0.3 18.3 2.1 4.6 2.1 4.7 2.3 4.7 6.5 0 5.8-3.3 10.5-11.1 15.7-14.6 9.8-38.8 12.9-55.9 7.2z"/><path d="m498 569.9c0-3.8 2.3-5.8 6.8-5.9 3.1 0 3.2 0.2 3.2 3.9 0 4.3-1 5.1-6.6 5.1-3.1 0-3.4-0.2-3.4-3.1z"/><path d="m392.7 568.3c-1.1-1-0.8-8.3 0.2-8.3 0.6 0 0.6-1.2 0-3.2-0.5-1.8-0.9-7.2-0.9-12v-8.8h7v6.8c0 3.8 0.7 9.1 1.5 11.8 1.7 5.7 1.9 10.4 0.5 10.4-0.5 0-1 0.9-1 2 0 1.6-0.7 2-3.3 2-1.9 0-3.7-0.3-4-0.7z"/><path d="m508 557.5c0-1.4 0.5-4.5 1.2-6.9 1.1-4.2 1.5-4.5 4.7-4.8 3.5-0.3 3.6-0.5 3.9-4.5 0.3-4.2 0.4-4.3 3.8-4.3 3.2 0 3.4 0.2 3.4 3.4 0 1.8-0.3 5.4-0.6 8-0.6 4.4-0.8 4.6-4 4.6-2.8 0-3.4 0.4-4.4 3.5s-1.6 3.5-4.6 3.5-3.4-0.3-3.4-2.5z"/><path d="m369 549.9c-16.5-12.3-28.9-30-34-48.1-2.2-8-3.7-23-2.6-27.2 0.6-2.4 1.1-2.6 5.8-2.6 3.1 0 6.8 0.8 9.3 2 6.1 3 20.1 14.8 27.8 23.7l6.9 7.8-0.9 7.5c-0.4 4.1-0.7 15-0.6 24.3l0.2 16.7h-3.2c-2.2 0-4.9-1.3-8.7-4.1z"/><path d="m611.8 542.3-5.8-0.4v-3.9c0-3 0.9-5.1 3.6-8.6 3.3-4.4 7.4-11.5 7.4-13 0-0.3-2.1 0.6-4.7 2.2-7.5 4.3-22.3 14.6-22.3 15.6 0 0.4-1.5 0.8-3.2 0.8-2.7 0-3.7-0.7-5.5-3.5-2.3-3.5-3-9.3-1.4-11 0.5-0.6 3-5 5.6-10 15.8-30.3 43.6-63.1 66.2-78.2 10.8-7.2 18.5-10.3 25.7-10.3 8.4 0 9.1 1.4 9 16.9-0.4 30.9-13.1 60.9-35.4 83.1-10.7 10.8-25.8 21.1-30.3 20.8-1.8-0.1-5.8-0.3-8.9-0.5z"/><path d="m391 527.6c0-4.8 3.3-8.6 7.6-8.6 3.1 0 3.4 0.2 3.4 3 0 4.7-3.7 9-7.7 9-3.1 0-3.3-0.2-3.3-3.4z"/><path d="m515 527.5c0-2.8-0.4-3.5-2-3.5s-2-0.7-2-3.5c0-3.3 0.2-3.5 3.5-3.5s3.5 0.2 3.5 3.5c0 2.8 0.4 3.5 2 3.5s2 0.7 2 3.5c0 3.3-0.2 3.5-3.5 3.5s-3.5-0.2-3.5-3.5z"/><path d="m499.2 516.8c-0.7-0.7-1.2-2.7-1.2-4.5 0-3.1 0.2-3.3 3.3-3.3 6.2 0 7.7 0.9 7.7 4.5 0 2.1-0.6 3.5-1.6 3.9-2.6 1-6.9 0.7-8.2-0.6z"/></g><g fill="#89dcfa"><path d="m398.2 574c-1.8-1.1-3.7-3.2-4.2-4.6-0.6-1.4-1.6-3.2-2.4-4-2.2-2.1-3.6-10.5-3.6-21.2 0-11.5 1.1-16.1 5.3-21.9 2.9-3.9 3.5-4.3 7.2-4 3.7 0.2 4 0.4 4.3 3.4 0.2 2-0.7 5.1-2.5 8.5-2.5 4.8-2.8 6.3-2.8 15.3 0 9.5 0.2 10.3 3.3 15.7 1.9 3.2 3.8 6.1 4.3 6.4s0.9 2.3 0.9 4.5c0 3.7-0.1 3.9-3.2 3.9-1.8 0-4.8-0.9-6.6-2zm-1.2-49.2c1.5-2.1 1.7-2.8 0.6-1.9-1.6 1.3-4.1 5.1-3.3 5.1 0.2 0 1.4-1.5 2.7-3.2z"/><path d="m591 570c0-1.6 0.7-2 3.5-2 4 0 4.9 2.4 1.3 3.4-3.8 1-4.8 0.7-4.8-1.4z"/><path d="m502.2 567.6c-0.2-2.5 0.9-5.2 4-10.2 4.1-6.6 4.3-7.2 4.2-14.4-0.2-8.4-1.9-14-6.4-20.6-3.2-4.8-4.3-10.7-1.5-8.4 1.1 0.9 1.5 0.9 1.5 0.1 0-0.6-0.7-1.4-1.5-1.7-2.6-1-1.7-2.4 1.5-2.4 7.3 0 13.2 5.1 18.1 15.5 2 4.3 2.3 6.6 2.4 16 0 10.1-0.2 11.5-2.8 16.7-3.8 7.8-9.7 12.8-15.2 12.8-3.9 0-4.1-0.1-4.3-3.4z"/><path d="m612 565.5c0-1.6 0.6-2.5 1.6-2.5 0.8 0 2.2-0.7 3-1.5 1.4-1.3 1.2-1.5-1.5-1.5-2.9 0-3.1-0.3-3.1-3.5s0.3-3.5 2.8-3.4c2.7 0.1 2.7 0.1 0.2 0.8-2.4 0.7-2.4 0.7 1.3 3 6.9 4.3 6.8 6.5-0.6 9.6-3.7 1.5-3.7 1.5-3.7-1z"/><path d="m613 526.5c0-3.1 0.3-3.5 2.5-3.5 3 0 3 0.3 0.8 4.1-2.3 3.8-3.3 3.7-3.3-0.6z"/><path d="m614 514c0-1.2 3.3-3 5.4-3 0.9 0 1.6 0.9 1.6 2 0 1.6-0.7 2-3.5 2-1.9 0-3.5-0.4-3.5-1z"/></g><g fill="#88bed5"><path d="m574.8 725.3c-1-0.2-1.8-1.1-1.8-1.9 0-1 1.3-1.4 4.5-1.4 3.8 0 4.5-0.3 4.5-2 0-1.3 0.7-2 2-2 2.9 0 2.5 3.4-0.6 5.9-2.6 2-4.9 2.4-8.6 1.4z"/><path d="m556.4 710c-2-2.7-4.2-5-5-5s-1.4-0.7-1.4-1.5c0-1 1.1-1.5 3.5-1.5 3.2 0 3.5 0.2 3.5 3 0 2.3 0.4 3 2 3s2 0.7 2 3.5c0 1.9-0.2 3.5-0.5 3.5s-2.1-2.2-4.1-5z"/><path d="m513 710c0-1.6 0.7-2 3.5-2 3.9 0 4.6 1.4 1.6 3-3.1 1.6-5.1 1.2-5.1-1z"/><path d="m504.6 708.4-2.9-2.9 2.8-0.3c3.4-0.4 3.7-0.1 3.3 3.3l-0.3 2.8z"/><path d="m583 706.6c0-3 0.4-3.4 3.1-4 5.2-1 7.9-0.7 7.9 0.9 0 0.8-1.4 1.7-3.5 2.1-2.5 0.4-3.5 1.1-3.5 2.5 0 1.2-0.7 1.9-2 1.9-1.6 0-2-0.7-2-3.4z"/><path d="m523.2 704.9c0.2-2.9 0.7-3.5 3.1-3.7 2.1-0.3 2.7-0.9 2.7-2.8 0-2.1 0.5-2.4 3.5-2.4s3.5 0.3 3.5 2.4c0 1.9-0.4 2.2-2.4 1.9-1.7-0.4-2.9 0.3-4.5 2.3-1.2 1.5-3.1 3.4-4.2 4.2-1.9 1.3-2 1.3-1.7-1.9z"/><path d="m476.8 705.3c-3.6-0.9-2-3.3 2.2-3.3 2.9 0 4 0.4 4 1.5 0 0.8-0.4 1.5-0.9 1.5s-1.5 0.2-2.3 0.4c-0.7 0.2-2.1 0.2-3-0.1z"/><path d="m541.8 703.3c-3.3-0.8-2-3.3 1.7-3.3 2.8 0 3.5 0.4 3.5 2 0 2-1.4 2.3-5.2 1.3z"/><path d="m595 702c0-1.6 0.7-2 3.5-2 3.9 0 4.6 1.4 1.6 3-3.1 1.6-5.1 1.2-5.1-1z"/><path d="m486 698.5c0-2.4 0.5-3.5 1.5-3.5 0.8 0 1.5-0.9 1.5-2s0.5-2 1-2c0.6 0 1-0.7 1-1.5s0.9-1.5 2-1.5 2-0.7 2-1.5c0-1 1.1-1.5 3.5-1.5 3.3 0 3.5 0.2 3.5 3.5 0 1.9-0.4 3.5-1 3.5-0.5 0-1-0.6-1-1.4 0-1.7-3.3-3.1-3.8-1.7-0.5 1.5-9.1 13.1-9.7 13.1-0.3 0-0.5-1.6-0.5-3.5z"/><path d="m471.4 696.6c-0.8-4.4 0.4-9.6 2.2-9.6 1.1 0 1.4 1.6 1.4 6.5 0 5-0.3 6.5-1.5 6.5-0.8 0-1.7-1.4-2.1-3.4z"/><path d="m609 695.5c0-1.8 0.5-2.5 2-2.5 1.1 0 2-0.7 2-1.5 0-1 1.1-1.5 3.5-1.5 3.3 0 3.5-0.2 3.5-3.5s0.2-3.5 3.1-3.5h3.2l-2.5 3.3c-2.8 3.6-12.3 11.7-13.8 11.7-0.6 0-1-1.1-1-2.5z"/><path d="m422 693c0-1.6 0.7-2 3.5-2 4 0 4.9 2.4 1.3 3.4-3.8 1-4.8 0.7-4.8-1.4z"/><path d="m411.6 690.8c-3.7-5.7-2.8-14.4 2.5-25.5 3.3-6.9 4.9-8 4.9-3.3 0 3-1.8 8-3 8-0.3 0-1.2 2.8-1.9 6.1-1.1 4.8-1.1 6.9-0.3 9.4 2.4 6.4 0.8 10-2.2 5.3z"/><path d="m440 685.1c0-2.6 0.4-3.1 2.4-3.1 1.8 0 2.5-0.6 2.8-2.2 0.2-1.8 1-2.4 4-2.6 3.5-0.3 3.7-0.5 4-4 0.2-3 0.8-3.8 2.6-4 1.4-0.2 2.2-1 2.2-2.3 0-2.8 2.4-4.9 5.5-4.9 3.5 0 5.7 2.4 5.3 5.6l-0.3 2.5-2.2-2c-1.2-1.2-2.6-2.1-3-2.1s-2.1 1.9-3.8 4.1c-3.1 4.3-11.5 12.3-16.5 15.9l-3 2.1z"/><path d="m474.1 677.8c0.2-1.3 0-2.9-0.4-3.5-0.6-0.9-0.1-1.3 1.7-1.3 2.3 0 2.6 0.4 2.6 3.5 0 2.9-0.4 3.5-2.1 3.5-1.5 0-2-0.5-1.8-2.2z"/><path d="m627 676.5c0-3.3 0.2-3.5 3.5-3.5 1.9 0 3.5 0.3 3.5 0.6 0 0.6-5.9 6.4-6.6 6.4-0.2 0-0.4-1.6-0.4-3.5z"/><path d="m635 671.5c0-2.1 0.5-2.5 3-2.5s3-0.4 3-2.3c0-2.7 2.8-5.7 5.2-5.7 1.7 0 3.2-6.2 1.7-6.8-0.5-0.2-0.9-1.2-0.9-2.3 0-1.4-0.7-1.9-2.8-1.9-3.8 0-8.2-4.9-8.2-9 0-1.6 0.5-3 1-3 0.6 0 1 0.4 1 0.9 0 1.3 8.1 8.9 11.9 11.2 5.9 3.6 2.9 10.6-8.3 19.9-5.6 4.7-6.6 4.9-6.6 1.5z"/><path d="m424 650c3.1-4.4 4-4.5 4-0.6 0 3.3-0.2 3.6-3.1 3.6h-3z"/><path d="m433.5 640c0.3-0.5 1.9-1.9 3.5-3l3-2.1v3c0 2.9-0.3 3.1-3.6 3.1-2 0-3.3-0.4-2.9-1z"/><path d="m633.2 630.2c-1.6-7.6-1.5-10.2 0.2-10.2 1 0 2 2.4 3 6.9 2 8.8 2 9.1-0.2 9.1-1.4 0-2.1-1.3-3-5.8z"/><path d="m428.6 623.2c-6.1-2.1-7.2-4.2-2.2-4.2 2 0 3.6 0.5 3.6 1 0 0.6 1.6 1 3.5 1 2.8 0 3.5 0.4 3.5 2 0 2.4-1.7 2.5-8.4 0.2z"/><path d="m629 614.4c0-4.4 1.8-4.2 3.7 0.4 1.3 3.1 1.2 3.2-1.2 3.2-2.2 0-2.5-0.4-2.5-3.6z"/><path d="m399 608-3.5-2.9 3.8-0.1c3.5 0 3.7 0.2 3.7 3 0 1.7-0.1 3-0.3 3-0.1 0-1.8-1.3-3.7-3z"/><path d="m621 599.3 0.1-3.8 2.4 2.8c3.2 3.6 3.1 4.7 0 4.7-2.2 0-2.5-0.4-2.5-3.7z"/><path d="m615 591.4c0-3.9 0.9-3.8 4 0.6l2.1 3h-3c-2.9 0-3.1-0.3-3.1-3.6z"/><path d="m381.5 585.8c-0.7-1.8-1.6-5-2-7-0.6-3.3-0.5-3.8 1.2-3.8 1.4 0 2.2 1.2 3.1 4.5 2.3 8.6 0.6 13.2-2.3 6.3z"/><path d="m620 584.5c0-0.9-0.9-1.5-2.5-1.5-4.1 0-3.1-2.8 1.3-3.5 7.3-1.2 16.8-3.7 21-5.6 8.9-3.9 18.2-12.5 18.2-16.8 0-1.6-7.8-5-11.5-5.1-4.6 0-7.5-1.1-7.5-2.6 0-0.8 1-1.4 2.5-1.4 1.6 0 2.5-0.6 2.5-1.5 0-1.8 0.4-1.8 7-0.4 3.2 0.7 5 1.6 5 2.5 0 0.8 0.7 1.7 1.5 2 0.8 0.4 1.5 1.7 1.5 2.9 0 1.3 0.4 2.5 0.9 2.7 0.4 0.2 1.1 2.3 1.4 4.8 0.6 4.4 0.5 4.6-4.6 9.5-6.1 5.8-15.9 10.9-26.5 13.6-9.1 2.3-10.2 2.3-10.2 0.4zm37-17c0-0.8-0.7-1.5-1.5-1.5s-1.5 0.7-1.5 1.5 0.7 1.5 1.5 1.5 1.5-0.7 1.5-1.5z"/><path d="m588 578.4c-6.9-2.5-14-5.1-15.7-5.7-2.7-0.8-3.3-1.6-3.3-3.8 0-3.8 0.9-5.9 2.6-5.9 1 0 1.4-1.3 1.4-4.3 0-3.3 0.6-4.8 2.4-6.4 2.2-1.9 2.3-2.6 1.5-6-0.5-2.1-0.9-5.2-0.9-6.9 0-2.7 0.4-3.2 3-3.7 3.3-0.7 4.2-4 1.5-5.1-1.5-0.6-2.2-7.6-0.7-7.6 0.4 0 1.2-2 1.8-4.5 1-4.5 1-4.5-1.7-4.5-2.9 0-3.9-1.5-3.9-6.1 0-3.9 1.3-3.7 3.6 0.6l1.8 3.4 2.5-4.5c1.4-2.4 2.9-4.3 3.5-4.1s1.6-0.1 2.1-0.7c1.8-1.8 2.5-4.4 1.2-4.9-1.3-0.4 4.3-9.7 5.8-9.6 2.4 0.3 3.5-0.2 3.5-1.6 0-0.8 0.5-1.5 1-1.5 1.6 0 1.2-1.8-0.5-2.2-1.2-0.2-0.9-1.1 1.4-3.8 1.7-1.9 3-2.9 3.1-2.2 0 1.8 2 1.5 2-0.3 0-0.9 0.7-1.8 1.5-2.1 0.8-0.4 1.5-1.2 1.5-2 0-0.7 0.8-1.9 1.8-2.6 2.4-1.8 4.4-5.6 3.1-6-0.5-0.2 0.4-1.9 2-3.8l3-3.5 0.2 3.5c0.1 2.8 0.3 3 0.6 1 0.6-3.2 15.1-18 17.8-18.1 1.3-0.1 1-0.4-0.9-0.8l-2.9-0.6 4.4-3.6c6.3-5.1 16.1-11.9 17.1-11.9 0.4 0 0.8 0.7 0.8 1.6 0 1.4 0.2 1.4 1.5 0 0.9-0.9 3.8-2.3 6.5-3.3 3.3-1.2 5-2.3 5-3.4 0-0.9 1-1.9 2.3-2.3 3.5-0.9 4.7-0.7 4.7 0.9 0 0.8 0.5 1.5 1 1.5 0.6 0 1-0.7 1-1.5 0-2 3.1-1.9 5.6 0.1 1.3 1.1 1.5 1.7 0.6 2-1.7 0.8-0.5 2.4 1.3 1.8 1.7-0.7 3.1 1.9 3.9 7.7 0.7 4.6 0.7 4.6-2.5 5.3-1.8 0.3-3.4 0.4-3.6 0.2s-0.7-2.1-1-4.2c-0.7-4.7-2.8-7.4-5.9-7.4-4.3 0-13.6 4.2-22.7 10.3-22.6 15.1-50.3 47.8-66.2 78.2-2.6 5-5.1 9.5-5.7 10.2-0.6 0.8-0.1 2.4 1.6 5 1.4 2.1 2.6 3.3 2.6 2.6 0-1.4 20.8-15.4 27-18.2 6.1-2.8 8-2.7 8 0.3s-6 14.7-10 19.8c-4.1 5.1-3.9 6.2 1.2 5.5 2.3-0.3 5-0.2 5.9 0.4 1.3 0.6 3.5-0.3 9.1-4 4-2.6 8.9-6.1 10.8-7.7 7.6-6.4 7.3-6.3 6.8-2.1-0.2 2.2 0 3.7 0.7 3.7 0.5 0.1-0.6 1.4-2.4 3-1.9 1.7-3.7 2.6-4 2.1-0.4-0.4-1.5-0.5-2.6 0-1.8 0.7-1.8 0.8-0.2 0.8 2.7 0.1 1.2 1.8-5.6 6.2l-6 3.9 3.9 0.1c2.1 0.1 3.1 0.3 2.2 0.6-3.1 0.8-1.9 2.3 1.7 2.3 2.4 0 3.5 0.5 3.5 1.5 0 1.5-2.1 2-12.5 3-3.3 0.3-7.4 0.9-9 1.3l-3 0.9 4.3 2.6c2.5 1.6 4.2 3.5 4.2 4.6 0 3.7-13.9 8.3-28.9 9.7-6.7 0.6-7.1 0.8-5 2 1.3 0.7 6.6 2.5 11.7 4 5.4 1.7 9.2 3.4 9.2 4.1 0 2.5-7.4 1.2-20-3.3zm-12-10.4c0-0.5-1-1-2.2-1-1.9 0-2 0.2-0.8 1 1.9 1.3 3 1.3 3 0zm3.5-10c1.9-0.8 1.9-0.9-0.2-0.9-1.2-0.1-2.5 0.4-2.8 0.9-0.7 1.2 0.2 1.2 3 0zm41.1-9c0.8 0 1.4-1 1.4-2.4v-2.5l-4.5 2.6c-5.3 2.9-5.7 3.8-1.4 2.9 1.7-0.3 3.8-0.6 4.5-0.6z"/><path d="m400.3 576c-1.3-0.5-2.3-1.4-2.3-2 0-0.5-0.7-1-1.5-1s-1.5-0.6-1.5-1.4-0.6-1.6-1.4-1.9-2.4-3.2-3.7-6.4c-1.8-4.8-2.2-7.8-2.3-17.8-0.1-12.8 1-18.1 4.7-23.6 2.1-3.2 2.6-3.4 7.7-3.4 5.5 0 5.5 0 5.8 3.3 0.2 1.8-0.2 4-0.9 4.8-0.6 0.8-0.9 1.7-0.5 2.1 0.3 0.3 0.6 0.1 0.6-0.6 0-0.8 1.3-1.1 3.7-0.9 2.9 0.2 3.9 0.8 4.2 2.3 0.2 1.1 0.8 2.3 1.4 2.7s1.3 3.9 1.5 7.7c0.4 6 0.2 7.1-1.2 7.1-0.9 0-1.6 0.5-1.6 1 0 0.6-1.8 1-4 1-3.3 0-4-0.3-4-2 0-1.5-0.7-2-2.5-2-1.6 0-2.5-0.6-2.5-1.5s-0.9-1.5-2.1-1.5c-2 0-2.1-0.4-1.6-4.9 0.3-2.7 1.7-7.2 3.1-10 3.2-6.1 1.7-8-2.5-3.3-6.8 7.6-8 27.8-2.3 39 1.7 3.3 4.4 6.6 6.3 7.9 3.8 2.6 5.3 2.3 2.8-0.5-2.6-2.9-6.6-12.5-7.3-17.5-0.6-4.3-0.5-4.7 1.3-4.7 1.6 0 2.2 0.9 2.7 3.8 0.7 4.4 6.3 16.3 8.3 17.5 0.7 0.4 1.3 2.4 1.3 4.2 0 3.4-0.1 3.5-3.7 3.4-2.1 0-4.8-0.4-6-0.9zm12.2-33c1.3-4-3-13-6.2-13-2.3 0-4.5 6.4-3.2 9.7 1.5 4.1 2.9 5.3 6 5.3 1.9 0 3-0.6 3.4-2z"/><path d="m379 572.8c0-3 1.3-5.8 2.6-5.8 0.9 0 1.4 1.2 1.4 3.5 0 2.8-0.4 3.5-2 3.5-1.1 0-2-0.6-2-1.2z"/><path d="m497 570.3c0.1-3.2 0.7-4.3 3.8-6.8 8.8-6.9 11.5-23 5.9-35.1-1.6-3.4-4.4-7.7-6.3-9.5-2.5-2.4-3.4-4.1-3.4-6.6v-3.3h5.3c6.7 0 11.2 2.4 15.8 8.5 4.3 5.5 6.9 12.9 6.9 19.1 0 5.7-2.6 6.2-3.5 0.7-2-12.5-9.2-22.1-18.5-24.8-2.4-0.7-2.4-0.6 0.7 2.6 7.1 7.6 10.9 19.3 10 30.7-0.6 7.5-5.2 17.8-9.8 21.6-3.7 3.2-3.2 3.2 2.6 0.5 7.8-3.7 13.3-11.8 15-22.1 0.9-5.6 3.5-5.1 3.5 0.7 0 5-3.5 15.4-5.5 16.1-0.7 0.3-1.5 1.4-1.8 2.5-0.3 1-1.3 2.2-2.4 2.6-1 0.4-2.2 1.2-2.8 1.8-1.5 1.8-9.1 4.5-12.5 4.5-2.8 0-3-0.2-3-3.7z"/><path d="m380 562.5c0-0.8-0.9-2.4-2-3.5l-2-2h3.5c3.3 0 3.5 0.2 3.5 3.5 0 2.4-0.5 3.5-1.5 3.5-0.8 0-1.5-0.7-1.5-1.5z"/><path d="m372.3 552.9c-1.8-1.2-3.3-2.4-3.3-2.9 0-0.4-0.9-1-2.1-1.3-1.1-0.3-2.3-1.5-2.6-2.6-0.3-1.2-1.3-2.1-2.3-2.1-2.4 0-5-3.2-5-6.3 0-3.3-2.7-3.7-3.2-0.5-0.3 1.9-1 1.4-5-3.7-4.1-5.1-4.5-6.1-3-6.7 0.9-0.4 1.1-0.7 0.5-0.7-0.7-0.1-1.3-0.8-1.3-1.6s-0.4-1.5-0.8-1.5c-0.5 0-1.7-1.8-2.7-4s-2.4-4-3.2-4c-2.4 0-7.5-13.7-5.5-14.9 1.4-0.8 0.3-6.1-1.3-6.1-0.7 0-1.5-1-1.9-2.2-0.9-3.6-0.7-4.8 0.9-4.8 0.8 0 1.5-0.9 1.5-2 0-3.6 2.9-2.2 3.5 1.8 4.1 25.4 17.7 47.1 38.3 61.4l4.3 3-0.7-7.1c-0.6-6.6-0.5-7.1 1.3-7.1 1.7 0 2.1 0.9 2.6 6.8 1.1 11.3 1.1 11.2-2.5 11.2-1.8 0-4.8-1-6.5-2.1z"/><path d="m479 542.5c0-0.8-0.6-1.5-1.4-1.5-2 0-2.6-2.3-2.6-9.1 0-4.6 0.3-5.9 1.5-5.9 1 0 1.5-1 1.5-2.8 0-1.5 0.5-3.3 1.2-4 1.2-1.2 7.8-1.7 7.8-0.7 0 0.3-1.6 1.9-3.5 3.6-4.8 4.2-6.4 9.8-4.2 14.4 1 2.1 2.6 3.7 4.2 4.1 3.9 1 3.2 3.4-1 3.4-2.4 0-3.5-0.5-3.5-1.5z"/><path d="m492.4 534.5c2.4-5.1 4.6-5.9 4.6-1.6 0 4.6-1 6.1-4 6.1h-2.7z"/><path d="m494 526.4c0-0.8-1.3-2.9-3-4.6-1.6-1.6-3-3.1-3-3.4 0-0.2 1.6-0.4 3.5-0.4 3.9 0 5.5 2 5.5 6.9 0 2.1-0.5 3.1-1.5 3.1-0.8 0-1.5-0.7-1.5-1.6z"/><path d="m648 525.2c0-3.6 1.6-5.2 5.2-5.2 2.8 0 2.8 0.1 1.3 2.4-0.9 1.4-2.7 3.2-4.1 4.1-2.3 1.5-2.4 1.5-2.4-1.3z"/><path d="m377.3 520.8c0.4-2.9 0.9-6.9 1.2-8.8 0.5-3.2 0.1-4.1-5-10l-5.6-6.5 2.8-0.3c1.5-0.2 3.1-0.8 3.4-1.4 0.3-0.5 2.1 0.9 3.9 3.2l3.3 4.2 1.4-2.6c1.9-3.6 3.3-3.2 3.3 0.9 0 3-0.3 3.5-2.4 3.5-2.3 0-2.4 0.2-1.3 3 0.8 2.2 0.8 4.4-0.1 8.8-0.7 3.2-1.2 7-1.2 8.5 0 2.1-0.5 2.7-2.1 2.7-2 0-2.1-0.4-1.6-5.2z"/><path d="m657 518.3c0-0.6-1.3-1.3-3-1.5l-3-0.3 5.5-6.8c13.4-16.7 24-41 26-59.7 1.3-12.2 1.2-12 5-12 2.7 0 3.5 0.4 3.5 1.8 0 3.3-1.2 6.2-2.6 6.2-0.8 0-1.4 0.5-1.4 1 0 0.6 0.7 1 1.6 1 1.3 0 1.5 0.7 0.9 3.8-2 10.8-2.7 13-4.4 13.5-1.9 0.5-3.6 6-2 6.5 1.4 0.5 1.1 2.6-1.1 7.6-1.1 2.6-2.6 4.6-3.5 4.6-0.8 0-1.5 0.5-1.5 1 0 0.6 0.4 1 1 1 1.3 0 0.4 2.3-3.9 9.7-2.7 4.9-3.9 6.2-5.3 5.7-1.2-0.3-1.8 0-1.8 1 0 0.9-0.4 1.6-1 1.6-0.5 0-1 0.7-1 1.5s0.5 1.5 1.1 1.5c1.1 0-1.1 3.4-6 9-1.7 1.9-3 3-3.1 2.3z"/><path d="m576.3 493.5c-0.7-0.8-1.3-2.6-1.3-4v-2.6l3 2.1c3.3 2.4 4.1 6 1.3 6-1-0.1-2.4-0.7-3-1.5z"/><path d="m357.1 486c-12.9-10.7-20.4-13.6-21.7-8.5-0.9 3.6-3.4 3.2-3.4-0.5 0-1.6-0.4-3-1-3-1.6 0-1.2-1.8 1-4 2.3-2.3 6-2.7 6-0.6 0 0.8 1.6 1.6 3.9 2 2.2 0.3 4.6 1.3 5.5 2.1 1.7 1.7 3.3 1.9 3.8 0.5 0.2-0.5 2.7 0.9 5.7 3.2 4.7 3.6 5.2 4.3 3.5 4.9-1.4 0.6-1.5 0.8-0.3 0.8 2.6 0.1 6.1 4.6 5.7 7.5-0.3 2.5-0.5 2.4-8.7-4.4z"/><path d="m386.2 490.3c3.5-7.4 4.8-8.1 4.8-2.8 0 3.1-0.3 3.5-2.6 3.5-1.4 0-2.4-0.3-2.2-0.7z"/><path d="m391 481.1c0-0.6 1.1-2.3 2.5-3.8l2.4-2.8 0.1 3.8c0 3.3-0.3 3.7-2.5 3.7-1.4 0-2.5-0.4-2.5-0.9z"/><path d="m567 474.7c0-2.5 0.5-3.7 1.4-3.7 2.4 0 2.8 3.2 0.6 5.4l-2 2z"/><path d="m557 467.5c0-2.4 0.1-2.5 3.2-1.2 4.6 1.9 4.8 3.7 0.4 3.7-3.2 0-3.6-0.3-3.6-2.5z"/><path d="m552 456c0-2.2 2-2.6 5.1-1 3 1.6 2.3 3-1.6 3-2.8 0-3.5-0.4-3.5-2z"/><path d="m536 450.5c0-3.4 0.1-3.5 3.8-3.5 3.3 0.1 3.5 0.2 2 1.4-2.2 1.6-2.3 2.6-0.3 2.6 0.8 0 1.5 0.7 1.5 1.5 0 1-1.1 1.5-3.5 1.5-3.3 0-3.5-0.2-3.5-3.5z"/><path d="m396.6 450.8c-1-3.8-0.7-4.8 1.4-4.8 1.6 0 2 0.7 2 3.5 0 4-2.4 4.9-3.4 1.3z"/><path d="m416 448.5c0-3.9 0.3-4.5 2.1-4.5 1.7 0 2 0.5 1.7 2.5-0.3 1.4-0.1 2.5 0.3 2.5 0.5 0 0.9-0.3 0.9-0.7 0-0.5 1.6-2.6 3.5-4.8l3.4-4 0.1 3.8c0 2.6-0.4 3.7-1.5 3.7-0.8 0-1.5 0.7-1.5 1.6 0 2.5-2.6 4.4-5.9 4.4-3 0-3.1-0.1-3.1-4.5z"/><path d="m536 444c0-2.1 1-2.4 4.8-1.4 3.6 1 2.7 3.4-1.3 3.4-2.8 0-3.5-0.4-3.5-2z"/><path d="m431 441c0-3.2 0.9-3.7 2.7-1.9 0.9 0.9 1.8 0.4 3.7-1.7l2.5-2.9 0.1 3.3c0 4.2-1.9 6.2-5.9 6.2-2.8 0-3.1-0.3-3.1-3z"/><path d="m532 435.7c0-4 1.2-5.1 5-4.5 2 0.3 2 0.5-1.4 4.3l-3.5 4z"/><path d="m453 430.5c0-2.4-0.5-3.5-1.5-3.5-2.1 0-1.9-1.7 0.4-2.9 2.9-1.6 5.5 0.9 4.9 4.7-0.2 1.8-0.3 3.2-0.1 3.2s2.1-1.1 4.1-2.5 4-2.5 4.4-2.5c0.5 0 0.8 1.1 0.8 2.5 0 2.1-0.5 2.5-3 2.5-1.6 0-3 0.5-3 1 0 0.6-1.6 1-3.5 1-3.3 0-3.5-0.2-3.5-3.5z"/><path d="m443.1 431.1c0.7-1 2-2.3 3-3 1.7-1 1.9-0.8 1.9 1.9s-0.3 3-3 3-2.9-0.2-1.9-1.9z"/><path d="m495 430.6c0-1.3 2.8-2.6 5.8-2.6 0.6 0 1.2 0.9 1.2 2 0 1.6-0.7 2-3.5 2-2.3 0-3.5-0.5-3.5-1.4z"/><path d="m420 427.5c0-2.8 0.4-3.5 2-3.5 2.1 0 2.4 1 1.4 4.8-1 3.6-3.4 2.7-3.4-1.3z"/><path d="m467 427c0-0.9 4.4-3.2 11.8-6.1 1.9-0.7 2.2-0.5 2.2 1.6 0 2.2-0.4 2.5-3.5 2.5-2.4 0-3.5 0.5-3.5 1.5s-1.1 1.5-3.5 1.5c-1.9 0-3.5-0.5-3.5-1z"/><path d="m489 423.5c0-2.8 0.4-3.5 2-3.5 2.3 0 2.6 2.6 0.6 5.3-2 2.5-2.6 2.1-2.6-1.8z"/><path d="m397 423.8c0-3 1.3-5.8 2.6-5.8 0.9 0 1.4 1.2 1.4 3.5 0 2.8-0.4 3.5-2 3.5-1.1 0-2-0.6-2-1.2z"/><path d="m549 417.9c0-4.6 3.5-8.2 7.6-7.7l2.8 0.3-5.2 5.5-5.1 5.5z"/><path d="m400 411.8c0-3 1.3-5.8 2.6-5.8 0.9 0 1.4 1.2 1.4 3.5 0 2.8-0.4 3.5-2 3.5-1.1 0-2-0.6-2-1.2z"/><path d="m426 409.6c0-3.2 0.3-3.6 2.5-3.6 2.4 0 2.5 0.1 1.2 3.2-1.9 4.6-3.7 4.8-3.7 0.4z"/><path d="m391 403.2-2.4-1.9 2.1-6.4c4.9-14.7 8.3-19.8 8.3-12.4 0 1.9-0.4 3.5-1 3.5-0.5 0-1 1.1-1 2.5s-0.4 2.5-0.9 2.5c-0.4 0-1.1 1.5-1.4 3.3-0.3 1.7-0.8 3.9-1.2 4.8-0.5 1.3 0 1.5 2.5 1.1 1.7-0.2 3-1 3-1.8 0-0.9 1.2-1.4 3.5-1.4 3.3 0 3.5 0.2 3.5 3.5 0 2.8-0.4 3.5-2 3.5-1.3 0-1.8-0.5-1.4-1.5 0.8-1.9-0.5-1.9-3.1-0.1-3.7 2.5-6.1 2.7-8.5 0.8z"/><path d="m429 401.6c0-2 0.5-3.6 1-3.6 0.6 0 1-1 1-2.2 0-3.3 1.4-5 3.8-4.6 2 0.3 2 0.4-0.7 6.7-3.2 7.6-5.1 8.9-5.1 3.7z"/><path d="m564 402.2c0-3.9 3.7-7.2 8-7.2h3.4l-3 3.1c-1.6 1.7-4.1 4-5.6 5.1l-2.8 1.9z"/><path d="m513 400.8c0-3 1.3-5.8 2.6-5.8 0.9 0 1.4 1.2 1.4 3.5 0 2.8-0.4 3.5-2 3.5-1.1 0-2-0.6-2-1.2z"/><path d="m517 386.5c0-2.3 3.9-10.1 6.1-12.1 1.8-1.7 1.9-1.6 1.9 1.9 0 2.1-0.4 3.7-1 3.7-0.5 0-1 0.7-1 1.5s-0.4 1.5-1 1.5c-0.5 0-1 1.1-1 2.5 0 1.8-0.5 2.5-2 2.5-1.1 0-2-0.7-2-1.5z"/><path d="m584.3 379.5c-1.9-2.1-1.6-4.5 0.5-4.5 2.3 0 4.2 1.9 4.2 4.2 0 2.2-3 2.3-4.7 0.3z"/><path d="m565 374.5c0-3.2 0.2-3.5 2.9-3.5 2.6 0 3-0.4 3.3-3.2 0.3-3.1 0.6-3.3 4.3-3.6l4-0.2-5.3 4.7c-5.5 5-6.2 6.3-3.7 6.3 0.8 0 1.5 0.7 1.5 1.5 0 1-1.1 1.5-3.5 1.5-3.3 0-3.5-0.2-3.5-3.5z"/><path d="m399.1 374.3c2-5.2 9.1-18.3 10-18.3 2 0 0.7 6.4-2.8 13.5-3 6-4.2 7.5-6 7.5-2 0-2.2-0.3-1.2-2.7z"/><path d="m441.3 370.8c0.2-2.4 0.8-5.2 1.3-6.2 0.6-1.6 0.4-1.8-1.2-1.1-1 0.4-3.1 1-4.6 1.3-1.6 0.2-2.8 1.1-2.8 1.8 0 0.9-1.2 1.4-3.5 1.4h-3.5v-5c0-4.4 0.2-5 2.1-5s2.1 0.4 1.6 3c-0.4 1.7-0.5 3-0.3 3s3-1.4 6.2-3.1c5.7-3 5.9-3 6.2-1 0.2 1.3 1.1 2.1 2.4 2.1 1.7 0 2 0.4 1.5 2.9-1.8 9-6.4 13.9-5.4 5.9z"/><path d="m541 356.9c2.5-2.2 5.7-4.9 7.3-6l2.7-2v3c0 2.8-0.3 3.1-2.9 3.1-2.5 0-3 0.4-3.3 2.8s-0.8 2.7-4.3 3l-4 0.2z"/><path d="m583.2 356.9c0.3-3.2 0.6-3.4 4.2-3.7s3.8-0.2 2.6 1.3c-0.7 0.9-2.6 2.5-4.2 3.7l-2.9 2z"/><path d="m429 353.6c0-1.4 0.5-4.7 1.2-7.5 0.9-3.8 1.6-5.1 3-5.1 2.2 0 2.2 0.4 0.2 8.5-1 4.1-2.2 6.5-3 6.5s-1.4-1-1.4-2.4z"/><path d="m411 351.4c0-1.2 3.4-6.4 4.2-6.4 0.4 0 0.8 1.6 0.8 3.5 0 3.1-0.3 3.5-2.5 3.5-1.4 0-2.5-0.3-2.5-0.6z"/><path d="m595 346.2c0-2.9 2.6-6.2 4.8-6.2 0.7 0 1.2-0.7 1.2-1.5s0.5-1.5 1-1.5c0.6 0 1-0.7 1-1.5 0-1-1-1.5-3-1.5-2.4 0-3-0.4-3-2.1 0-1.9 0.4-2.1 3.2-1.5 4.4 0.9 7.2 3.8 6.3 6.5-0.8 2.7-4.9 7.5-8.6 10.2l-2.9 2z"/><path d="m553.9 345.6 2.3-2.4-5.1-0.7c-2.9-0.4-5.8-1.4-6.6-2.2-2.1-2-1.9-5.7 0.5-7.8 2-1.8 2-1.7 2 0.8 0 4.5 1 5.7 4.6 5.7 1.9 0 3.4 0.5 3.4 1 0 0.6 0.9 1 2 1 1.6 0 2 0.7 2 3.5 0 3.4-0.1 3.5-3.7 3.5h-3.6z"/><path d="m420.4 335.4c0.8-2 9.5-14.2 10.7-15 0.5-0.3 0.9 1.1 0.9 3 0 3.2-0.3 3.6-2.5 3.6s-2.5 0.4-2.5 3.5c0 1.9-0.4 3.5-1 3.5-0.5 0-1 0.7-1 1.5 0 0.9-1 1.5-2.6 1.5-2 0-2.5-0.4-2-1.6z"/><path d="m434.6 325.4c-0.7-6.3-0.6-6.7 1.7-5.8 2.2 0.8 3 3.8 2.2 8-1 5.4-3.1 4.2-3.9-2.2z"/><path d="m552 328.2c0-0.8 5.2-4.2 6.4-4.2 0.3 0 0.6 1.1 0.6 2.5 0 2.2-0.4 2.5-3.5 2.5-1.9 0-3.5-0.4-3.5-0.8z"/><path d="m600.2 320.9c0.3-3.2 0.6-3.4 4.2-3.7s3.8-0.2 2.6 1.3c-0.7 0.9-2.6 2.5-4.2 3.7l-2.9 2z"/><path d="m565 320.2c0-0.7 27.1-17.2 28.4-17.2 0.3 0 0.6 1.1 0.6 2.5 0 2.2-0.4 2.5-3.5 2.5-2.8 0-3.5 0.4-3.5 2 0 1.5-0.7 2-2.5 2-1.6 0-2.5 0.6-2.5 1.5s-0.9 1.5-2.5 1.5-2.5 0.6-2.5 1.5-0.9 1.5-2.5 1.5-2.5 0.6-2.5 1.5c0 1-1.1 1.5-3.5 1.5-1.9 0-3.5-0.4-3.5-0.8z"/><path d="m610.2 311.9c0.3-3.2 0.6-3.4 4.2-3.7s3.8-0.2 2.6 1.3c-0.7 0.9-2.6 2.5-4.2 3.7l-2.9 2z"/><path d="m598 301.2c0-0.8 5.2-4.2 6.4-4.2 0.3 0 0.6 1.1 0.6 2.5 0 2.2-0.4 2.5-3.5 2.5-1.9 0-3.5-0.4-3.5-0.8z"/><path d="m626.2 296.8c0.2-2.3 1-3.6 2.6-4.3 1.5-0.7 2.2-1.8 2.2-3.7 0-3.3 1.5-3.6 3-0.8 1.3 2.5-1.5 7.8-5.6 10.5l-2.5 1.6z"/><path d="m618.2 290.8c0.3-0.7 1.9-1.8 3.6-2.5 3.1-1.3 3.2-1.2 3.2 1.2 0 2.2-0.4 2.5-3.6 2.5-2.3 0-3.4-0.4-3.2-1.2z"/></g><g fill="#f0737d"><path d="m442.7 609.9c-5.7-4.4-5.9-14.3-0.5-20.4l3-3.5h17.8v7.9c0 8.7-1 12.4-4.2 15.9-3 3.1-12.3 3.2-16.1 0.1z"/></g><g fill="#fecb03"><path d="m572 698.8c0-3.2 0.3-3.6 4.3-4.8 2.3-0.7 5.9-2.1 7.9-3.1 2.1-1.1 5.1-1.9 6.7-1.9 2.8 0 3 0.2 3.6 5.5 0.4 3.1 0.5 5.9 0.1 6.2-0.3 0.4-5.6 0.9-11.6 1.1l-11 0.5z"/><path d="m599 693.6c0-3.7 1.2-4.6 6.1-4.6 2.6 0 2.9 0.3 2.9 3.4 0 3.7-1.2 4.6-6.1 4.6-2.6 0-2.9-0.3-2.9-3.4z"/><path d="m492.8 679.9c-2.1-1.1-3.8-2.2-3.8-2.4 0-0.3 1.7 0.3 3.8 1.3 2 1.1 4.4 2.2 5.2 2.5 1.3 0.5 1.3 0.5 0 0.6-0.8 0-3.2-0.9-5.2-2z"/><path d="m501 680.6c0-0.8 1.7 3.7 0.5 3.4-4.4-1.4-25.9-14.5-32.5-21.1-7.3-7.3-22.5-25.1-27-33.9-1.5-2.8 7.3-2.1 6.7-2.4-0.7-0.2 0.4-0.5 2.3-0.5 3.3-0.1 3.7 0.2 7 6.7 1.9 3.7 2.85425 8.36161 3.15425 8.66161 1.1 0.9 10.84575 10.53839 10.84575 10.93839 0 0.6 6 6.6 6.6 6.6 0.5 0 11.5 8.9 12.4 9.9 0.3 0.3 3.3 2 6.7 3.6 5.7 2.8 6.2 3.3 6.2 6.3 0.1 2.2-0.4 3.2-1.4 3.2-0.8 0-1.5-0.6-1.5-1.4z" sodipodi:nodetypes="scscccccsscccss"/><path d="m575.2 674.1c-2.4-0.9-6.5-3.4-9.2-5.6-3.9-3.2-4.9-4.6-4.9-7 0-2.6 1-3.7 7-8 12.4-8.8 22.4-22.3 27.6-37.2 2.5-7.1 2.8-8.9 2.6-21l-0.2-13.3h3.2c5.1 0 11.8 5.8 16.5 14.2 1.9 3.5 2.2 5.6 2.2 14.8 0 13.2-2.4 23.3-8.1 34.7-7.2 14.5-22.9 30.4-29.5 30.2-1.6-0.1-4.8-0.8-7.2-1.8z"/><path d="m623.2 666c0.2-2.2 0-4-0.4-4-1.6 0-0.7-6 1.7-11.2 1.4-2.9 2.5-6.1 2.5-7 0-1.4 0.8-1.8 3.5-1.8 3.4 0 3.5 0.1 3.6 4.3 0.1 2.3 0.3 3.4 0.6 2.5 0.7-2.8 5.8-2.3 9.9 1 2.7 2.2 3.4 3.4 3.4 6.2 0 4.9-8 13-12.8 13-2.6 0-3.2-0.4-3.3-2.2-0.1-2.1-0.2-2-1.1 0.5-0.8 2.2-1.6 2.7-4.5 2.7-3.5 0-3.5 0-3.1-4z"/><path d="m549.5 646.8c-0.2-0.7-0.6-3-1-5-0.7-4.5-4.3-9.1-8.5-10.8-2.6-1.1-3.7-1-8.1 0.9-2.9 1.1-6.6 2.1-8.4 2.1-2.8 0-3.3-0.4-3.9-3.1-1.5-7.8-1.1-8.6 5.9-11.8 21.3-9.7 41-31 39.7-43l-0.4-4.4 5.3 0.6c6.4 0.8 8.3 2.5 10.9 9.9 1.5 4.3 2 8.3 2 16.1 0 17.5-4.5 28.1-17.6 41.5-7.2 7.3-8.5 8.2-11.8 8.2-2.1 0-3.8-0.5-4.1-1.2z"/><path d="m445.5 623.1c-0.6-0.5-5.5-2.1-11-3.6-12.6-3.3-24.5-9-32.7-15.5-11.1-9-16.4-12.4-18-24.5-0.5-3.7-0.2-12.7-0.7-16-1.4-8.9-1.3-11.5 0.3-11.5 0.8 0 1.7 0.8 1.9 1.8 0.4 1.6-2.4-3.38185-2.3-4.98185 0.2-2.9 6 2.78185 6 5.68185 0 1.4 0.3 2.5 0.8 2.5 0.4 0 1.5 1.9 2.5 4.3 2.3 5.8 6.9 11.1 11.2 13.1 3.4 1.6 3.7 1.6 6.7-0.1 4.6-2.7 7.8-9.4 7.8-16.3 0-15.4-11.4-40-18.5-40-3.3 0-10.5 13.3-10.5 19.5 0 1.8-3.69544 9.61061-5.09544 9.61061-6.5 0-0.80456-39.11061 9.89544-62.41061 4.7-10.1 2.9-8-2.8 2.8-6.5 12.5-13 34.4-12.1 46.5 0.2 3.5 5.80456 13.11061 5.00456 13.11061-2.9 0-5.60456-32.96061-1.30456-46.56061 1.7-5.3 8.7-10.45 11.2-15.85l4.5-9.7h3.9c3.3 0 3.8-0.3 3.4-1.7-4-13.9-6.1-29.9-5.1-41.2 0.9-11.6 2.1-17.4 5.9-29.5l3.3-10.4-3.1 1.9c-1.7 1-4.8 1.9-6.8 1.9-3.5 0-3.8-0.2-3.8-3 0-5.1 14.8-36.4 25.1-52.8 4-6.4 4.7-7.1 7.7-7.2 2.9 0 3.2 0.3 3.2 2.9 0 1.6-1.3 8.7-2.9 15.7-1.6 7.1-3.2 14.6-3.5 16.7l-0.7 3.9 4.4-2.6c2.4-1.4 5.8-2.6 7.5-2.6 2.9 0 3.2 0.3 3.2 3 0 1.6-2.1 8.2-4.6 14.5-4.3 10.8-4.8 11.5-7.4 11.5-1.6 0-3 0.7-3.4 1.6-0.9 2.2-0.8 2.4 0.9 2.4 2.5 0 1.8 4.1-3.5 19.9-2.8 8.2-5 15.7-5 16.5 0 1-0.9 1.6-2.5 1.6-2.2 0-2.5 0.4-2.5 3.5 0 2.4 0.5 3.5 1.5 3.5 1.3 0 1.4 1.6 1.1 10.3-0.3 5.6-0.2 8.9 0.1 7.2 0.2-1.6 1.7-4.4 3.1-6.1 1.5-1.7 4-4.8 5.5-6.8 2.3-2.9 3.4-3.6 6.2-3.6 2.1 0 3.5 0.5 3.5 1.2s0.7 0.1 1.7-1.2c0.9-1.4 3.4-4.9 5.6-7.7 3.6-4.8 4.3-5.3 7.8-5.3s3.9 0.2 3.9 2.6v2.6l3.3-2.2c7.7-5.1 23.1-12 26.9-12 3.6 0 3.8 0.2 3.8 3 0 1.7-0.7 4.1-1.5 5.3l-1.5 2.3 7.3-1.2c3.9-0.7 9.3-1.3 11.8-1.4h4.7l0.7 6.8c0.4 4 0.2 7.8-0.4 9.5-1.5 3.8-1.5 3.7 1.8 3.7 2.8 0 3 0.2 3.3 4.8l0.3 4.7 2.4-4.2c1.4-2.4 2.8-4.3 3.3-4.3 0.4 0 0.8-0.7 0.8-1.5s0.4-1.5 0.9-1.5 1.1-0.9 1.4-2c0.4-1.7 1.4-2 5.6-2h5.1v6.8l19 3.4v3.2c0 1.8-0.5 3.7-1.1 4.3-0.7 0.7 0.8 1.8 5.3 3.6 5.8 2.3 6.3 2.8 6.6 5.7 0.2 1.8-0.1 3.6-0.7 3.9-0.6 0.4 2 3.2 5.9 6.4 6.2 5.1 7 6.1 7 9.2 0 2.7-0.4 3.5-1.8 3.5-2.5 0-3.4 1.1-2.2 2.5 3.2 3.8 9 16.2 9 19.1 0 3.3-0.1 3.4-3.9 3.4-3.4 0-3.9-0.3-4.4-2.7-0.3-1.6-1.3-3.7-2.1-4.8-1.4-1.8-1.5-1.3-1.6 7.2-0.1 29-16 57.7-41.8 75.2-16.6 11.3-42.7 20.5-63.4 22.6-6.3 0.6-6.8 0.8-6.8 3.1 0 2.2-0.4 2.4-4.3 2.4-2.4 0-4.7-0.4-5.2-0.9zm0 0c-0.6-0.5-5.5-2.1-11-3.6-12.6-3.3-28.8-11-37-17.5-11.1-9-12.95431-19.10081-11.5-30.3-0.8-9.2-2.44098-8.28852-2.54098 0.21148 0 11.4 5.14098 16.88852 14.94098 26.58852 4.6 9.5 10.9 12.2 18.6 16 10.4 5.1 22.6 5.8 30.5 6.4 1.1 0-1.5 2.7-2 2.2zm10.3-16.1c4.1-4 5.8-9.6 5.4-17.2-0.2-2.8-0.2-2.8-7.5-2.8-3.9 0-8.6-0.4-10.3-0.9-2.5-0.7-3.8-0.5-6.3 1.1-1.7 1.1-3.1 2.2-3.1 2.4 0 1.2 4.6 9.3 7.4 13 3.3 4.5 7.1 7.3 9.8 7.4 0.9 0 3-1.3 4.6-3zm45.8-35.5c11.4-3.4 19.7-12.1 23-24.3 1.5-5.5 1.6-7.1 0.5-12.5-3-14.8-14.5-27-25.2-26.9-11.3 0.2-24.2 13.6-27.9 29.1-3.6 15.3 5.5 31.8 19.5 35.2 4.4 1 4.7 1 10.1-0.6zm-85.9-100.2c-0.2-1.6-0.4-0.5-0.4 2.2 0 2.8 0.2 4 0.4 2.8 0.2-1.3 0.2-3.5 0-5zm88.8 0.7c0.3-0.5-0.3-1-1.4-1-1.5 0-2.1-0.7-2.2-2.2-0.1-1.8-0.2-1.9-0.6-0.5-0.9 3.6 2.4 6.6 4.2 3.7z" sodipodi:nodetypes="cccccsccsscccsssscccscccscccccssccsccccsscscscssssccccssccssccsscccccccscccssscscccccssccccsscsscccccssccccccccccccsccscccccccccccscccsccc"/><path d="m574 531.5c0-3.3 0.2-3.5 3.5-3.5s3.5 0.2 3.5 3.5-0.2 3.5-3.5 3.5-3.5-0.2-3.5-3.5z"/><path d="m511 439.5c0-2.3 2.6-8.9 7.5-19.3 4.2-8.6 7-15.1 6.3-14.4-0.6 0.6-2.7 1.2-4.6 1.2h-3.5l0.6-5.2c0.3-2.9 1.8-9.1 3.3-13.8 2.6-7.8 3.4-9.1 10.7-16.7 4.4-4.5 13.5-13.1 20.3-19s12.4-11 12.4-11.4c0-0.3-2.4-1-5.2-1.5l-5.3-0.9v-7.7l14-8.5c24.7-15.1 43.7-25.3 47.3-25.3 3 0 3.2 0.2 3.2 3.3 0 3-1.5 4.7-15.5 17.6-8.5 7.9-15.2 14.7-14.9 15.2s1.7 0.9 3.2 0.9c5.7 0 7.2 1 7.2 4.6 0 4-4.2 8.4-8 8.4-2.8 0.1-25.8 19.2-30.5 25.4-4.4 5.8-3.3 6.6 9.5 6.6h11v3.4c0 2.7-1 4.2-5.4 8.5-4.6 4.2-6.1 5.1-9.2 5.1-3.5 0-4.9 1.2-24.5 20.6-11.4 11.4-21.3 22-22 23.5-0.9 2.4-1.7 2.9-4.5 2.9-3.2 0-3.4-0.2-3.4-3.5z"/></g><g fill="#e1a204"><path d="m570.2 699.5c0.3-3.5 0.6-3.7 8.7-7 12.7-5.2 18.6-9.1 28.2-18.5 9.5-9.4 15.5-18.7 19-29.2 2.1-6.6 2.3-6.8 5.5-6.8 3.4 0 3.4 0.1 3.4 4.5 0 4.3 0.1 4.5 3 4.5 1.7 0 3 0.4 3 0.9s1 1.1 2.3 1.3c1.4 0.2 2.3 1.1 2.5 2.6 0.2 1.2 0.8 2.2 1.3 2.2s0.9 1.5 0.9 3.3c0 5-6.3 10.8-12.5 11.4-4.5 0.6-4.7 0.7-7.7 6.7-4 7.9-13.6 17.5-21.7 21.5-7.4 3.8-18.3 6.1-28.7 6.1h-7.5zm14.5-1.2c-1.5-0.2-2.5-0.9-2.2-1.4 0.8-1.2-0.2-1.1-4.5 0.6-3.5 1.3-3.5 1.3 3 1.3 3.6-0.1 5.3-0.3 3.7-0.5zm57.3-45.2c-1.9-1.6-3.6-2.8-3.8-2.7-0.1 0.2-0.7 2.9-1.3 6.2-0.5 3.2-1.3 6.8-1.6 7.9-0.3 1.3 1.4 0.2 4.8-3.2l5.4-5.3zm-13.1 6.9c0-0.9-0.4-0.8-0.9 0.5-0.5 1.1-0.9 2.7-0.9 3.5 0 0.9 0.4 0.8 0.9-0.5 0.5-1.1 0.9-2.7 0.9-3.5zm2-11.2c-0.1-4-0.1-4.1-0.9-1.5s-0.4 5.7 0.6 5.7c0.2 0 0.4-1.9 0.3-4.2z"/><path d="m535 691.1c0-1.7 1.7-6.4 3.8-10.4s4.5-9 5.3-11.2c1.4-3.6 2.4-4.3 9.4-7.4 4.3-1.9 8.9-4.5 10.3-5.8s3.1-2.3 3.7-2.3c0.7 0 1.5-0.7 1.9-1.5 0.3-0.8 1.5-1.5 2.6-1.5s2-0.6 2-1.3c0-1.9 5.3-6.7 7.3-6.7 1.2 0 1.7-0.8 1.7-2.5 0-1.4 0.7-2.8 1.5-3.1 0.8-0.4 1.5-1.2 1.5-2s0.4-1.4 0.9-1.4 1.2-1.1 1.5-2.4c0.3-1.4 1.2-3.1 1.9-3.8 2-2 6.5-15 7.3-20.7 0.5-4.2 1-5.1 2.7-5.1 1.8 0 1.9 0.4 1.3 5.3-2.4 18-13.8 36.6-29.6 48.6l-7.6 5.7 4.7 3.9c2.6 2.2 6.7 4.7 9.1 5.6l4.3 1.6 4.8-3.5 4.7-3.4v3.1c0 2-0.6 3.4-1.6 3.8-0.9 0.3-2.6 1.5-3.9 2.7-7.9 7.3-32.2 17.3-44.7 18.3l-6.8 0.6z"/><path d="m498 682.5c0-0.9 0.6-1.2 1.5-0.9 1 0.4 1.5 0 1.4-1.2 0-1.3-1.9-2.8-5.7-4.7-13.9-6.8-31.5-24.5-40.7-41-2.9-5.1-4.7-7.3-6.3-7.5-2.5-0.4-2.6-0.3-1.2 3.2 0.9 2.4 0.7 2.6-1.5 2.6s-2.5-0.4-2.5-3.5c0-2.8 0.4-3.5 2-3.5 1.1 0 2-0.4 2-1 0-0.5-1.3-1-3-1-2.3 0-3-0.4-3-2 0-1.9 0.5-2 5.8-1.5l5.7 0.6-8.8-4.8 10.9-0.6c22.5-1.4 49.4-10.5 67.6-22.8 26.4-18 43-48.6 41.6-76.6-0.3-5.1-0.4-9.3-0.3-9.3s2.1 0.7 4.4 1.5c4.1 1.4 4.1 1.4 3-0.8-0.7-1.2-2.5-4.1-4.1-6.5-3.4-5-3.1-7 1.2-7.8 2.4-0.5 2.8-0.9 1.9-2s-0.8-1.4 0.5-1.4c1.2 0 1.6 0.9 1.6 3.5 0 1.9-0.4 3.5-1 3.5-0.9 0 0.8 4.9 2.1 6 0.3 0.3 1.8 2.6 3.2 5.1 2.7 4.6 3.5 10.3 1.7 11.4-0.6 0.4-0.2 2.1 1 4.5 1.1 2.2 2 5.7 2 8 0 3.3-0.3 4-2 4-1.9 0-2 0.4-1.4 8.5l0.7 8.5h-2.6c-2.2 0-2.7 0.6-3.6 5-0.6 2.8-2 6.8-3.1 9s-2 4.2-2 4.5 1.8 0.5 3.9 0.5c2.2 0 4.8 0.7 5.9 1.8 5.2 4.3 8.6 22.5 6.4 34.2-1.3 6.8-4.9 16.5-6.8 18.4-0.8 0.8-1.4 1.9-1.4 2.5s-0.4 1.1-0.9 1.1-1.1 0.9-1.4 2c-0.3 1.2-1.4 2-2.6 2-1.5 0-2.1 0.6-2.1 2.3 0 2.9-3.9 6.7-6.8 6.7-1.5 0-2.2 0.6-2.2 2 0 2.3-2.8 4-6.8 4-2.8 0-3-0.3-3.6-5.2-0.6-4.2-1.4-5.9-4.7-9.1-4.1-4.1-4-4.1-13.4-2.2-3.9 0.8-9.2 8-15 20-5.1 10.7-10.5 25.7-10.5 29.1 0 2.1-0.5 2.4-3.5 2.4-2.4 0-3.5-0.5-3.5-1.5zm66.4-47.6c10.5-11.3 15.6-23.3 15.6-36.5 0-10.8-4.5-22.4-8.7-22.4-0.7 0-1.3 1-1.3 2.3 0 1.2-1.5 5.5-3.4 9.4-6.1 12.6-22.2 27.1-38.1 34.4-6.2 2.8-6.5 3.1-5.9 5.7 0.4 1.5 0.8 2.8 0.9 3 0.1 0.1 2.3-0.7 4.9-1.8 11.1-4.7 21.5-0.3 23.2 9.9 1 6.3 1.1 6.4 4.3 4.2 1.5-1.1 5.4-4.8 8.5-8.2z"/><path d="m483 676.5c0-3 0.3-3 4.1-0.8 3.8 2.3 3.7 3.3-0.6 3.3-3.1 0-3.5-0.3-3.5-2.5z"/><path d="m469 665.9v-3l3 2.1c4.4 3.1 4.5 4 0.6 4-3.3 0-3.6-0.2-3.6-3.1z"/><path d="m598.4 658.8c11.9-14.6 18.6-31.8 18.6-47.8 0-6.1-0.5-8.5-2.2-11.8-2.7-4.9-7.5-10.3-11.3-12.8l-2.7-1.8 0.7 5.7c0.7 5.3 0.6 5.7-1.2 5.7-1.6 0-2.2-0.9-2.7-4.6-1.2-9.2-1.1-9.4 3.8-9.4 3.7 0 5.1 0.6 8.5 3.7 2.3 2 4.1 4.5 4.1 5.5s0.7 1.8 1.5 1.8 1.5 0.5 1.5 1.1 0.6 1.7 1.4 2.5c2 2 3 10.9 2.2 20.2-0.8 8.2-4.3 22.2-5.7 22.2-0.5 0-0.9 1-0.9 2.1 0 2.4-4.9 11.9-6.2 11.9-0.4 0-0.8 0.7-0.8 1.5s-0.7 1.5-1.5 1.5-1.5 0.8-1.5 1.8c0 2.6-2 4.2-5.3 4.2h-3z"/><path d="m460 657.5c0-1.8-0.5-2.5-2-2.5-1.3 0-2-0.7-2-2 0-1.1-0.7-2-1.5-2s-1.5-0.7-1.5-1.5-0.4-1.5-1-1.5c-0.5 0-1-1.6-1-3.5 0-2.8-0.4-3.5-2-3.5s-2-0.7-2-3.5c0-1.9 0.4-3.5 0.8-3.5 0.5 0 2.1 2.3 3.7 5.1 2.2 4.2 8.6 13.2 13.7 19.7 0.8 0.9 0.3 1.2-2.1 1.2-2.6 0-3.1-0.4-3.1-2.5z"/><path d="m428 619c0-2.1 1-2.4 4.8-1.4 3.6 1 2.7 3.4-1.3 3.4-2.8 0-3.5-0.4-3.5-2z"/><path d="m417 614.5c0-2.4 0.1-2.5 3.2-1.2 4.6 1.9 4.8 3.7 0.4 3.7-3.2 0-3.6-0.3-3.6-2.5z"/><path d="m445.5 612c-4.3-2.2-9.1-8.1-12.7-15.4-1.4-2.9-3.1-4.9-4.9-5.5-3.3-1.1-6.9-4.9-6.9-7.3s2.2-2.3 4.5 0.2c2.3 2.6 4.7 2.5 9.5-0.2 3.5-2.1 4.2-2.2 9.7-1 10.6 2.2 16.1 1.3 19.1-3 0.7-1 2-1.8 2.8-1.8 1.9 0 1.8 4-0.2 6.9-1.1 1.5-1.7 4.7-1.9 9-0.4 14.9-9.1 23.1-19 18.1zm10.5-5c2.5-2.5 5-10.1 5-15.4v-4.3h-5.2c-2.9 0.1-8.2-0.1-11.8-0.4-4.9-0.3-7 0-8.2 1.1-1.5 1.4-1.4 2 1.5 7.5 1.8 3.3 3.5 6.2 3.9 6.3 0.5 0.2 0.8 1.2 0.8 2.3 0 1 0.7 1.9 1.5 1.9s1.5 0.4 1.5 0.8c0 1.2 5.3 3 7.3 2.5 1.1-0.3 2.7-1.3 3.7-2.3z"/><path d="m407 610c0-1.6-0.7-2-3-2-2.7 0-3-0.3-3-3 0-2.8-0.3-3-3.5-3-3.4 0-3.5-0.2-3.5-3.6v-3.6l6 5.5c3.3 3.1 7.8 6.6 10 7.8 4.9 2.8 5.1 3.9 0.5 3.9-2.8 0-3.5-0.4-3.5-2z"/><path d="m383.6 584.8c-0.3-1.3-0.6-3.5-0.6-5 0-4.6 2.5-3.2 4.2 2.2l1.6 5h-2.3c-1.5 0-2.5-0.7-2.9-2.2z"/><path d="m400.5 577.4c-6.7-3.5-11.7-11.2-14-21.7l-1.4-6.2 0.5 8.5c0.2 4.7 0.1 7.8-0.2 7-0.4-0.8-1.3-2-2-2.6-1-0.8-1.5-3.8-1.7-9.3-0.1-4.4-0.5-8.1-0.9-8.1-1.4 0-0.8-8.1 0.6-9.5 1.1-1.2 1.4-0.8 2 2.3 0.3 2 0.6 5.5 0.7 7.7s0.5 0.1 1-4.6c1-10.6 4.2-19.3 8.5-23.6 3.5-3.6 6-4.1 10.4-1.8 5.6 2.9 11.9 13.8 15.1 26.3 2.5 9.8 2.5 12.2-0.1 12.2-1.6 0-2-0.7-2-3 0-3.7-4.9-19-6.6-20.8-0.7-0.6-1.5-2.1-1.9-3.2-0.3-1-2.2-3.5-4.1-5.4-5.1-5.1-7.1-4.3-11.3 4.5-5.5 11.5-5.5 23.9 0.1 36.3 2.8 6 8.1 11.5 12 12.3 4.3 0.8 9.4-3.1 11-8.4 0.8-3 1.8-4.3 3-4.3 2.5 0 2.3 3.3-0.3 8.8-3.6 7.4-11.4 10.3-18.4 6.6z"/><path d="m488.5 575.1c-10.3-2.5-18.5-12.5-20.1-24.5-0.6-4.2-0.5-4.6 1.5-4.6 1.6 0 2.1 0.6 2.1 2.6 0 3.1 3.9 12.6 5.7 13.7 0.7 0.4 1.3 1.7 1.3 2.7 0 1.1 0.6 2 1.3 2 0.6 0 3.4 1.1 6.1 2.5 6.4 3.3 12.4 3.3 19.4 0 3-1.4 6-2.5 6.8-2.5s1.4-0.6 1.4-1.4 1.1-2.3 2.5-3.4 2.5-2.5 2.5-3.1 0.4-1.1 0.8-1.1c1 0 5.2-11.7 5.2-14.2 0-1.1 0.8-1.8 2-1.8 1.3 0 2 0.7 2 1.9 0 3.8-3.8 13.9-6.8 18.3-7 10.2-21.7 15.8-33.7 12.9z"/><path d="m426.5 572.4c-2.3-2.3-1.5-4.8 1.8-5.2 2-0.3 2.7 0.1 2.7 1.4 0 1.6 0.2 1.6 2-0.1 1.9-1.7 2.2-1.7 3.6-0.3 1.5 1.4 1.4 1.8-0.5 3.7-2.5 2.5-7.3 2.8-9.6 0.5z"/><path d="m468 539.8c0-1.3 0.6-4.5 1.4-7.3 4-15 15-26.1 27.7-28 14.7-2.2 29 11.4 31.6 30.1 0.5 4 0.4 4.4-1.6 4.4-1.6 0-2.1-0.6-2.1-2.6 0-2.9-4.9-15.7-6.2-16.2-0.4-0.2-0.8-0.9-0.8-1.5 0-0.7-0.9-1.8-2-2.5s-2-1.9-2-2.7-0.9-1.5-2-1.5-2-0.6-2-1.4c0-0.9-1.8-1.6-5.4-2-6.1-0.8-12.9 0.8-16 3.6-1.1 1-3.5 1.8-5.3 1.8-3.1 0-3.3 0.2-3.3 3.4 0 1.9-0.4 3.6-0.8 3.8-1.3 0.5-6.4 12.9-6.9 16.9-0.4 3-1 3.9-2.4 3.9-1.3 0-1.9-0.7-1.9-2.2z"/><path d="m380 525.5c0-4.8 2.3-17.5 3.1-17.5 0.5 0 0.9-1.2 0.9-2.7 0-5.2 1.1-7.3 3.6-7.3h2.3l-1.9 5.5c-1.7 5.1-2.9 10.3-4.5 20.8-0.7 4.2-3.5 5.3-3.5 1.2z"/><path d="m340.7 522.1c-2.2-3.8-2.2-4.1 0.8-4.1 2.2 0 2.5 0.4 2.5 3.5 0 4.3-1 4.4-3.3 0.6z"/><path d="m560.8 483.7c-3.7-2.8-6.9-5.8-7.2-6.5-0.4-0.8 0.7-1.8 2.7-2.7l3.2-1.3-3-1.2c-8.2-3.1-14.5-6.4-14.5-7.6 0-0.7 1.5-2.1 3.3-3 1.7-1 2.8-1.9 2.2-2-2.6-0.9-20.9-4.3-21.2-4-0.2 0.2 0.8 0.6 2.2 1s2.5 1 2.5 1.4c0 0.8-13.9 9.2-15.2 9.2-0.4 0 0.5-2 1.9-4.5 3.9-7.1 2-5.2-2.6 2.4-6.9 11.6-13.9 15.4-17.7 9.5-1.6-2.4-1.6-3-0.1-9.6 1-3.9 3.1-10.4 4.7-14.5 1.7-4.1 3-7.6 3-7.9 0-0.2-1.1-0.4-2.4-0.4-3.4 0-4-1.4-1.5-3.6 1.9-1.7 2-1.7 2.6 0.4 0.8 3.3 4.8 2.9 6.1-0.5 2.7-7.8 14.7-31.3 15.9-31.3 0.7 0 1.3-0.4 1.3-0.9s-0.9-0.7-2-0.4-2 0.9-2 1.4-1.6 0.9-3.5 0.9c-3.2 0-3.5-0.3-3.5-2.7 0-4.5 6.2-24.5 8.2-26.5 1-1 1.8-2.2 1.8-2.6s2.8-3.6 6.3-7c4.6-4.5 7-6.2 9-6.2 2.2 0 2.7-0.5 2.7-2.3 0-2.9 3.9-6.7 6.8-6.7 1.5 0 2.2-0.6 2.2-1.8 0-2.4 1.9-4.2 4.6-4.2 1.6 0 2.4-0.7 2.6-2.2 0.2-1.6 1.2-2.5 3.3-2.9l3-0.6-2.6-1.1c-1.4-0.5-4.7-1.3-7.2-1.7-4.7-0.7-4.7-0.8-4.7-4.6 0-2.8 0.4-3.9 1.5-3.9 0.8 0 1.5-0.4 1.5-1 0-0.5 0.7-1 1.5-1s1.5-0.4 1.5-0.8c0-0.5 1.7-1.7 3.7-2.8 2.1-1 4.4-2.5 5.1-3.2 0.7-0.6 2-1.2 2.8-1.2s1.4-0.3 1.4-0.8c0-0.4 2.1-1.9 4.7-3.2 2.6-1.4 5.4-3.1 6.1-3.7 0.7-0.7 2-1.3 2.8-1.3s1.4-0.4 1.4-0.9 1.5-1.4 3.3-2.2c1.7-0.7 3.4-1.6 3.7-2 1-1.3 9-4.9 11-4.9 1.1 0 2-0.6 2-1.3 0-1.8 8.3-5.7 12.1-5.7 2.9 0 3 0.2 2.7 3.6-0.3 3.8-0.9 4.3-6.5 6.4-2.3 0.9-3.3 1.9-3.3 3.4 0 2.9-8.9 11.6-11.8 11.6-1.5 0-2.2 0.6-2.2 1.8 0 2.9-4.2 6.2-7.8 6.2-2.7 0-3.2 0.4-3.2 2.4 0 2.1 0.6 2.5 4.8 3 7.6 1.1 8.2 1.4 8.2 4.8 0 3.7-1.4 5.2-23.2 25.5-9.3 8.6-16.8 16.2-16.8 17 0 0.7-0.8 1.3-1.8 1.3-2.1 0-5.2-3.4-5.2-5.6 0-2.8 7.8-11.1 20.4-21.8 13.1-11.2 18.2-14.7 20.1-14 0.7 0.3 1.5-0.2 1.8-1 0.5-1.1-0.3-1.7-3.1-2.1-9.9-1.6-11.1-2.4-9-5.7 0.9-1.3 8.6-8.9 17.2-16.8s15.6-14.6 15.6-14.8c0-0.7-20.3 10.6-39 21.8-10.7 6.5-19.4 12.2-19.3 12.6 0.1 0.5 2.6 1.4 5.6 2 6.1 1.2 7.7 2 7.7 3.9 0 0.7-6.6 7.1-14.7 14.3-8.2 7.1-18 16.3-21.9 20.4-6.4 6.8-7.3 8.2-9.7 15.9-4.4 14.4-4.6 13.6 1.8 8.4 5.9-4.8 8.2-5.3 7.8-1.7-0.2 1.2-4.6 11-9.9 21.8-5.3 10.7-9.4 19.7-9.1 20 0.2 0.3 1-0.9 1.7-2.5 0.6-1.7 11.2-12.8 23.4-24.8 20.2-19.9 29.9-28.4 31.1-27.1 0.2 0.2-0.9 2.1-2.6 4.1-4.3 5.2-2.7 4.6 3.7-1.4l5.4-5.2v3.7c0 3.1-0.3 3.6-2.3 3.6-1.6 0-2.8 0.9-3.8 2.8-0.7 1.5-7.7 9.3-15.5 17.4-7.8 8-17.9 19-22.4 24.5l-8.1 9.8 4.6 0.3 4.7 0.3-0.4 3.8-0.3 3.8 7.4 1.2c8.7 1.5 10.5 2.8 9.9 7.6-0.4 3.4-0.3 3.5 5.4 5.7 5.4 2.1 5.8 2.5 5.8 5.5 0 1.7-0.5 3.3-1.2 3.5-1.2 0.4 2.5 4.8 4.1 4.8 1.7 0 3.2 2.9 2.9 5.4s-0.4 2.5-7-2.7zm-53.8-19.7c1.6-3.1 1.7-3.8 0.5-3.4-0.8 0.4-1.5 0.7-1.5 0.8 0 0-0.4 1.6-0.9 3.4-1.3 4.3-0.6 4 1.9-0.8zm20.9-14.8c-2-0.8-3.7 0.7-3.2 2.7s0.5 2 2.3-0.2c1-1.2 1.4-2.4 0.9-2.5z"/><path d="m393 484.5c0-1.9 0.5-3.5 1-3.5 0.6 0 1-0.7 1-1.5s0.7-1.5 1.5-1.5 1.5-0.9 1.5-2c0-1.6 0.7-2 3.5-2 1.9 0 3.5-0.2 3.5-0.4 0-0.3-0.9-4.2-2-8.7-1-4.5-2.2-11.9-2.6-16.5-0.6-7.3-0.5-8.4 0.9-8.4 1.6 0 2 1.1 3.2 11.5 0.8 6.5 4 19.3 6 23.6 1.4 3.2 1.5 2.7 1-8.6-0.4-6.6-0.9-13.1-1.3-14.5-0.5-2.1-0.7-1.8-1.2 2-0.7 4.3-0.7 4.2-0.8-2-0.3-10.1 1.5-21.9 5.4-35.3 3.6-12.6 11.4-30.3 15.3-34.7l2.2-2.5-0.5 2.5c-0.3 1.4-0.8 3.6-1.1 5-0.6 2.5 1.6-2.1 5.4-11.8l2.1-5.2-2.8 1.4c-1.5 0.8-4 2.4-5.7 3.5-3.5 2.4-6.3 2.7-7.1 0.7-0.6-1.7 4.4-28.2 7.2-38.1 1-3.2-7.4 10.1-13.3 21.3-3 5.6-5.9 10.2-6.4 10.2-1.7 0-0.9-5.9 1.3-10.5 1.2-2.5 2.8-4.5 3.5-4.5s1.3-0.9 1.3-2c0-2.4 2.1-7 3.2-7 0.4 0 0.8-0.6 0.8-1.4s0.3-1.6 0.8-1.8c0.4-0.1 1.6-2 2.6-4.1 1.8-3.5 2.3-3.8 5.5-3.5 4.8 0.4 5 2.2 1.2 19.2-3.7 16.1-3.8 17.8-1.3 16.9 0.9-0.4 2.3-1.3 3.1-2 0.8-0.8 2.9-1.3 5-1.1 3.2 0.3 3.6 0.6 3.9 3.3 0.2 2-2.4 10.2-7.4 23-6.7 17.5-12.4 33.2-12.4 34.2 0 0.2 0.7 0.3 1.5 0.3 1.6 0 1.8 1.2 0.9 4.8-0.7 2.3-3.3 3.1-3.5 1-0.3-3.6-3 11-3.6 19.5-0.5 8.3-0.4 9.7 0.9 9.7 1.6 0 2.8 2.8 2.8 6.9 0 2-0.4 2.3-2.8 1.8-2.7-0.5-2.7-0.5-2.4 3.4 0.4 3.4 0.2 3.9-1.7 3.9-1.2 0-2.1 0.6-2.1 1.5 0 2.6 3.7 1.7 4.4-1 0.4-1.6 1.3-2.5 2.6-2.5 2.6 0 2.6 3-0.1 6.4-3.7 4.7-9.2 2.9-12.8-4.2-1.5-2.8-2.8-2-6.8 4.4-1.5 2.4-3.1 4.4-3.5 4.4-0.5 0-0.8-1.6-0.8-3.5z"/><path d="m419 457.8c0-2.1 0.5-3.8 1-3.8 0.6 0 1-0.7 1-1.5s0.6-1.5 1.4-1.5 1.6-1 1.8-2.2c0.2-1.9 1-2.4 4.1-2.6 2.1-0.2 3.7 0.1 3.7 0.7s0.7 0.8 1.5 0.5c0.8-0.4 1.5-1.2 1.5-2s0.5-1.4 1-1.4c0.6 0 1-0.7 1-1.5s0.6-1.5 1.4-1.5 1.6-1 1.8-2.2c0.2-1.5 1.1-2.4 2.6-2.6 1.4-0.2 2.2-1 2.2-2.3 0-1.5 0.7-1.9 3.5-1.9 3.2 0 3.5 0.2 3.5 3 0 1.7 0.5 3 1 3 0.6 0 1-0.4 1-1 0-0.5 0.7-1 1.5-1s1.5-0.4 1.5-1c0-0.5 0.7-1 1.5-1s1.5-0.4 1.5-0.8c0-1.4 17.3-9.2 20.2-9.2 4.5 0 5.8 1 5.8 4.4 0 1.8-0.6 3.8-1.2 4.5-1.1 1.1-0.9 1.3 1.2 0.7 1.4-0.3 5.5-0.9 9.3-1.2 5.7-0.6 6.7-0.5 6.7 0.9 0 1.1-1.2 1.8-3.7 2.2-2.1 0.3-7.5 1.4-12 2.4l-8.3 1.8v-2.1c0-1.2 1.1-4 2.5-6.4l2.5-4.3-2.3 0.7c-4.3 1.3-18.3 8.7-23.9 12.6-3.1 2.2-6.1 3.7-6.7 3.3-0.6-0.3-1.1-2.2-1.1-4.1s-0.4-3.4-0.8-3.4c-1 0-5.3 5.3-10.1 12.3-3.5 5.1-6.2 6-7.8 2.5-0.9-2.1-1-2-3.9 1.6-1.6 2.1-3.9 5-5.1 6.5l-2.2 2.6z"/><path d="m400 434.5c0-1.8-0.5-2.5-2-2.5-2.1 0-2.4-1-1.3-4.8 0.4-1.6 1.1-2.2 2.3-1.9 1.3 0.3 1.9-0.8 2.8-6.4 0.7-3.8 2.5-11 4.2-16.1 2.6-8.2 3.1-12.2 1.2-9.2-1.2 1.9-4.9 3.4-8.3 3.4h-3.2l0.6-5.2c0.4-2.9 1.1-5.4 1.7-5.6 0.5-0.2 1-1.1 1-2s1.2-4.5 2.6-7.9c2.2-5.2 3.1-6.3 5.1-6.3 1.2 0 2.3 0.1 2.3 0.3s-2.2 5.3-4.9 11.3-4.8 11.1-4.6 11.3 2.9-1.1 6-2.9c5.5-3.2 8.5-3.4 8.5-0.6 0 0.8-1.8 7.2-4 14.3-2.2 7-4.5 16-5.1 19.8-0.6 3.9-1.2 8.5-1.5 10.3-0.6 3.9-3.4 4.5-3.4 0.7z"/></g><g fill="#37301f"><path d="m575 725.1c-5.2-1.6-8.9-4.2-14-9.8-2.9-3.1-5.7-6.6-6.2-7.8-0.7-1.6-2.5-2.4-7.6-3.3-3.6-0.7-8.5-2.1-10.8-3.1l-4.2-1.9-4.8 4.9c-8.3 8.4-17.1 10-22.7 4.1-4.4-4.6-6.5-13.2-3.2-13.2 0.8 0 1.5-0.4 1.5-1 0-0.5-0.6-1-1.4-1s-1.6-1-1.8-2.2c-0.5-3.9-3.1-3.1-6.2 1.8-1.7 2.6-4.6 6.5-6.6 8.6-3.1 3.2-4.3 3.8-7.8 3.8-3.4 0-4.5-0.5-5.9-2.6-2.1-3.3-2.1-14.6 0.1-21.9 0.9-2.7 1.2-5.2 0.8-5.6-0.4-0.3-3-2.7-5.8-5.2l-5.1-4.7-4.9 6.1c-5.9 7.4-18 17.4-25 20.6-23.3 10.7-31.2-6.4-15.3-33.5 1.9-3.1 7.8-10.1 13.2-15.5l9.9-9.8-1.5-3.6c-1.3-3.3-1.9-3.7-9.6-5.9-26-7.6-44.6-23.2-49.6-41.8-1.8-6.4-1.5-13.6 0.5-13.6 0.6 0 1-1.1 1-2.5s-0.4-2.5-1-2.5c-0.5 0-1-0.7-1-1.5s-3.3-3.6-7.2-6.3c-13.9-9.4-25.7-22-33.2-35.5-4.3-7.6-9.2-22.2-10.1-29.9-0.7-5.5-0.6-5.8 1.4-5.8 1.1 0 2.1 0.6 2.1 1.4s0.4 1.6 0.9 1.8 1.8 4.1 3 8.8c3.6 14.3 9.7 25.7 20.4 37.9 4.9 5.7 15.6 14.9 19.8 17.1 1.8 1 1.9 0.8 1.3-3-0.5-3-0.3-4 0.7-4 1.2 0 1.2-0.2 0.1-0.9-0.8-0.4-1.6-2.7-1.9-5-0.5-3.7-0.4-4.1 1.6-4.1 1.6 0 2.1 0.6 2.1 2.4 0 1.3 0.5 2.6 1.1 2.8 1.4 0.5 3.9 21 3.9 32.4 0 8.1 0.3 9.7 3 15.1 3.1 6.1 11.5 15.3 18.4 19.9 10.4 7.1 27.5 12.9 41.9 14.4 4.5 0.4 8.3 1.3 8.5 1.9 0.5 1.4 2.9 1.4 3.4 0 0.2-0.6 4.4-1.5 9.3-2 28.4-2.8 55.1-13.7 74.4-30.2 3-2.5 5.9-4.4 6.4-4 0.6 0.3 0.7 0.2 0.4-0.3-0.3-0.6 1.9-4.1 4.9-7.8 6.5-8.1 11-16.6 12.5-23.6 0.9-4.4 1.4-5 3.6-5 2.7 0 2.7 0.4 0.7-13.2-0.5-3.6-0.4-3.8 2-3.8 3.2 0 3.2-0.5 0.1-7.2-2.9-6.1-3.1-7.8-1-7.8 0.8 0 1.5-0.5 1.5-1.2 0-1.3-7.2-13.9-10.2-17.7-2.5-3.3-2.3-3.8 1.8-5.1l3.6-1.2-2.9-3c-1.5-1.7-5.4-5-8.5-7.5-3.2-2.4-5.8-4.9-5.8-5.4s1.1-1.5 2.5-2.1c2.5-1.1 3.4-2.8 1.4-2.8-1.9 0-15.9-6.9-15.9-7.8 0-0.5 1.4-1.5 3-2.2 5.6-2.3 4.5-3-9-5.5-4.6-0.8-8.9-2-9.3-2.4-0.6-0.6 0.2-2 1.8-3.5l2.8-2.6h-3.1c-2.7 0-3.6 0.8-7.9 7.5-2.6 4.1-6.2 9.8-8 12.8-1.9 3.2-4.6 6.1-6.7 7.2-3.2 1.8-3.6 1.8-6 0.2-2-1.4-2.6-2.6-2.6-5.3 0-4.2 2.3-12.6 5.6-20.6 2.9-6.9 3-7.8 0.5-7.8-3.1 0-3.5-1.9-1-4.7l2.4-2.6-6.5 0.7c-3.5 0.3-9.3 1.3-12.8 2.2s-6.6 1.3-7 1c-0.3-0.4 0.5-2.8 1.8-5.4 1.4-2.6 2.6-5 2.8-5.4 1.4-2.9-15 4.6-24.9 11.2-3.3 2.3-6.7 3.9-7.5 3.6s-1.4-1.9-1.4-4.2c0-3.3-0.2-3.5-1.7-2.3-0.9 0.8-4 4.6-7 8.6-2.9 3.9-5.8 7.5-6.5 7.9-0.6 0.4-1.9-0.3-3-1.6s-2.2-1.9-2.7-1.4c-0.4 0.5-2.9 3.7-5.5 7.2l-4.7 6.3 0.7 7.4c0.8 8.6-0.6 13.2-4.3 14.6-3.4 1.3-6.6-0.4-8.8-4.5-1.1-2-2.4-3.6-3-3.6-1.5 0-7 8.6-10.9 17.1-3.3 7.1-6.7 19-8.1 28.2-0.3 2-1 3.7-1.5 3.7-0.6 0-1 0.7-1 1.5s-0.9 1.5-2 1.5c-1.2 0-2-0.7-2-1.7 0.1-2.8 1.9-14.8 2.5-16.5 0.4-0.9-1.1-3.5-3.4-6.3-2.2-2.7-3.7-5.3-3.4-5.8 0.3-0.6 0.2-0.7-0.4-0.4-1 0.6-11-8.9-10.5-10.1 0.1-0.4-0.2-0.7-0.8-0.7-0.5 0-3.4-1.9-6.4-4.3-7.1-5.5-15.1-9.6-17.2-8.8-0.9 0.3-1.8 1.5-2.1 2.6-0.4 1.4-1.4 2-3.4 2-2.4 0-2.9-0.4-2.9-2.6 0-3.5 5-8.4 8.7-8.4 7.3 0 24.6 11.9 37.2 25.7 6.8 7.4 7.2 7.7 7.8 5.3 1.4-5.2 10.4-21.8 14.1-26l3.8-4.3-2-7.1c-1.5-5.6-1.9-10.3-1.9-22.6 0-16-0.1-15.6 5.9-36.7l0.6-2.1-4.7 2.4c-3.6 1.8-5.2 2.1-6.6 1.3-2.4-1.2-2.4-2.6-0.1-3.2 1.6-0.4 1.6-0.5 0-0.6-2.5-0.1-2.3-2 1.7-12.2 8.7-22.6 33.3-65.5 39.1-68.1 1.9-0.9 2.8-0.8 4.4 0.7 1.1 1 2 2.5 2 3.3 0 0.9-2 10-4.5 20.3s-4.5 19.2-4.5 19.7 2.9-0.6 6.5-2.5c5.3-2.8 6.8-3.2 8.5-2.3 1.1 0.6 2 1.9 2 2.9 0 2.5-3.9 13.5-10.3 29.2-8.3 20.2-13.4 35.6-15.7 47.6-1.1 5.8-1.9 10.8-1.7 11 0.2 0.1 2.5-2.4 5-5.7 4.7-6.1 8.1-7.7 9.4-4.4 0.4 1.2 1.6 0.4 4.8-3.3 3.9-4.4 4.8-4.9 8.8-5.2 4.3-0.2 4.6 0 5 2.6 0.3 2.5 0.4 2.4 0.6-0.7l0.1-3.6-4.2 0.4-4.3 0.3 3.3-3c5.3-5 10.7-3.2 8.7 2.9-0.8 2.6-0.4 2.5 5.2-0.9 6.4-3.9 21-9.9 26.1-10.7 5.4-0.9 6.3 1.1 3.3 7.3l-2.2 4.5 2.3-0.5c1.3-0.3 5.1-0.9 8.6-1.3 5.3-0.6 6.2-0.4 6.2 1 0 0.9 0.5 1.6 1 1.6 0.6 0 1 1.9 1 4.3l0.1 4.2 1.9-3.5c2.4-4.5 2.4-5 0-5-1.1 0-2-0.7-2-1.5s0.7-1.5 1.5-1.5 2.4-1.8 3.5-4c2.4-4.7 2.4-5.1 0.5-4.4-2 0.8-4.5-1.3-4.5-3.8 0-3.6 9.1-33.3 11.5-37.4 2.4-4.2 17.3-18.8 28.8-28.4 3.6-3 6.6-5.8 6.6-6.2 0.1-0.4-2.1-1-4.9-1.4-5.9-0.8-8.5-3.2-7.6-6.9 0.7-2.9 6.4-6.8 33.6-23 25-14.9 48.6-26.7 53-26.3 3.1 0.3 3.5 0.7 3.8 3.4 0.2 2-0.4 3.6-1.8 4.9-2 1.8-2 1.8-2-1.5 0-2.2-0.4-3.1-1.2-2.7-9.8 3.9-9.4 3.5-9 7.2 0.3 2.8 0.9 3.4 3 3.7 2.3 0.3 1 1.8-12.8 14.3l-15.4 14 4.8 0.9c3.2 0.6 5.2 1.6 6.3 3.2 1.4 2.2 1.3 2.6-0.5 5.6-2.3 3.6-6.2 6.6-6.2 4.7 0-0.8-0.5-0.7-1.5 0.1-1.1 0.9-1.2 1.5-0.5 2 0.7 0.4-3.7 5.1-10.8 11.7-10.8 9.9-12.3 10.9-15.1 10.5-2.5-0.3-3.1-0.1-3.1 1.4 0 1-1.4 3.3-3.2 5.1l-3.2 3.3h9.2c8.5 0 9.3 0.2 10 2.1s0.9 1.9 2.1 0.5c0.9-1.1 1-1.6 0.2-1.6-0.6 0-1.1-0.9-1.1-2 0-1.3 0.7-2 1.9-2 2.4 0 5.1 2.6 5.1 4.8 0 2.3-19.2 21.1-19.8 19.3-0.3-0.8-3.4 1.7-8.8 7-4.9 4.8-7.9 8.6-7.3 9s-3.8 5.8-10.5 12.9c-6.4 6.7-11.6 12.6-11.6 13.1s1.3 0.9 2.9 0.9c8.9 0 12.3 2.8 7.8 6.5l-2.7 2.1 9.5 2.3c7.2 1.7 9.8 2.8 10.7 4.4 0.9 1.8 0.7 2.4-1.6 4.4l-2.7 2.3 7.4 3.4c8.5 3.9 9.7 5.7 6.3 9.1l-2.5 2.5 6.9 5.7c8 6.7 9.4 9.7 6 12.5-1.2 1-2.9 1.8-3.7 1.8s-1.3 0.3-1.1 0.8c0.9 2 7 12.2 7.4 12.2 0.2 0 1.6-2.4 3-5.2 6.9-13.7 22.8-36.3 33.8-48.3l5.5-6 0.1 3.2c0 1.7 0.5 3.3 1 3.5 0.6 0.2-1.6 3.5-5 7.3-8 9.2-18.2 23.6-26 36.5-6.8 11.3-8.3 12.9-11.7 13-1.5 0-2.3 0.6-2.3 1.8 0 1.3 0.2 1.4 0.9 0.4 0.4-0.8 1.8-1.2 3-1l2.1 0.3-2.1 4.2-2 4.2 2.1 2.9c3.1 4.1 2.4 8.4-1.5 9.6-1.6 0.6-3.1 1.1-3.2 1.1s0.4 2.6 1.1 5.7c1.4 6 0.8 8.2-2.6 10.6-1 0.7-1.8 2-1.8 2.7 0 1.6 10-1.6 23.6-7.4 6.3-2.7 6.9-2.8 7.2-1.2s0.7 1.7 5.5 0.4c2.8-0.7 5.9-1.3 6.9-1.3 1.1 0 1.8-0.7 1.8-2s-0.7-2-2-2c-1.1 0-2 0.6-2 1.4s-0.7 1.7-1.6 2c-2.3 0.9-7.4 0.7-7.4-0.2 0-0.4 4.6-3.4 10.3-6.6 13.8-7.9 21.7-13.9 31.3-23.8 17.2-17.7 28.7-40.1 32.9-64.2 0.8-4.9 1.7-9.1 1.9-9.3s1.5-0.1 3 0.3c3.3 0.8 3.3 1.9 0.2 15.4-2.9 12.8-6.3 21.8-12.2 32.9-6.8 12.8-20.4 30.8-22.4 29.6-0.9-0.6-4.2 2.9-3.4 3.7 0.7 0.8-9.6 9.3-17.9 14.7-3.7 2.4-6.7 4.4-6.7 4.6 0 0.1 2.3 0 5-0.3 4.6-0.4 5-0.3 5 1.7 0 1.6-0.6 2.1-2.4 2.1-1.3 0-2.6 0.4-2.8 1-0.1 0.5-3.9 1.6-8.3 2.4-8.3 1.5-12.7 2.8-30.3 9.1-5.7 2-12.2 3.9-14.5 4.3-2.2 0.4-4.2 1.2-4.4 1.7-0.3 0.9 27.1 11.5 29.7 11.5 0.6 0 1 0.4 1 0.8s3 0.6 6.6 0.4c4.9-0.3 6.9-0.1 7.5 0.9s1.1 1.1 1.7 0.3c0.4-0.6 4.5-2.1 9.1-3.3 4.6-1.1 10.8-3.2 13.7-4.5 6.3-2.9 16.4-12.5 16.4-15.5 0-2.6-4.7-5.6-10.1-6.5-2.1-0.3-3.9-1.1-3.9-1.6 0-0.6-1.1-1-2.5-1-1.9 0-2.5-0.5-2.5-2.1 0-2.1 0.3-2.1 5.8-1.6 12.8 1.4 19.2 5.4 19.2 11.9 0 7.3-9 16.7-21.2 22.3-6.5 3-19.8 6.5-24.5 6.5-1.8 0-3.3 0.2-3.3 0.5s2.5 3.8 5.6 7.8c3 3.9 7.3 10.8 9.4 15.2 3.8 7.7 8 22.2 8 27.5 0 1.4 0.7 3.6 1.6 4.8 1.5 2.1 1.4 2.2-2 2.2-2 0-3.6 0.5-3.6 1.1s1.7 0.9 4.3 0.8c6.4-0.4 14.7 5 14.7 9.4 0 2.6-5.6 9.8-7.3 9.4-0.7-0.1-1.1 0.3-1 1 0.3 1.6-7.3 8-11.3 9.5-1.8 0.6-3.7 2.1-4.2 3.2-2.1 4.7-10.5 13.6-16.9 17.9-6.8 4.7-14.5 7.9-21.9 9.1l-3.9 0.7 0.3 5.3c0.5 6.6-1.8 12.3-5.3 13.6-3 1.1-3 1.1-6.5 0.1zm-2.7-21.2c6.7-0.1 11.4-0.3 10.5-0.6-1.5-0.4-2.7-3.3-1.4-3.3 0.2 0 3.8-0.6 7.9-1.4 21.6-4.2 37.3-20.9 41.3-44.1 2.2-12.5 1.5-15.9-1.4-7-3.6 10.9-9.5 20-19.1 29.5-9.5 9.3-15.5 13.3-27.9 18.4-10 4.1-10.7 4.6-5.6 4.6h3.9l-2.9 1.5c-1.5 0.8-4.1 1.5-5.7 1.5-2.7 0-2.9-0.3-2.9-4 0-2.5 0.5-4 1.3-4 2.5-0.1 18.3-7.1 23.4-10.5 2.9-1.9 5.5-3.5 5.8-3.5s1.9-1.6 3.6-3.5 3.7-3.5 4.5-3.5 1.4-0.6 1.4-1.4 1.4-2.6 3-3.9c1.7-1.4 3-2.8 3-3 0-0.3 1.8-3.4 3.9-6.9 2.2-3.6 5.1-9.9 6.6-14.1 2.6-7.2 2.9-7.7 5.7-7.7 2.9 0 3-0.1 2.3-4.2-1.1-6.4-4.9-16.8-8.9-24.3-3.6-6.7-3.6-6.8-3.6-3.2 0 5.3-2.8 5-3.6-0.4-1.1-6.5-11.9-19.9-16.1-19.9-0.9 0-1.3 0.6-0.9 1.5 1.4 3.8 1.7 14.7 0.6 21.6-4.1 24.5-21.3 46.3-45.4 57.5-6.8 3.1-7.4 3.6-9.1 8.1-1 2.6-3.4 7.7-5.3 11.2l-3.5 6.4 3.9-0.7c6.7-1.2 17.6-4.7 24.3-7.7 15.7-7.1 33.1-22.1 41-35.3 4.1-6.9 10.1-23.8 10.1-28.6 0-5 1-8 2.6-8 3.8 0-0.2 22.3-6.2 34.3-8.2 16.2-22.8 30.4-40.9 39.4-12.9 6.5-34.8 11.9-37.9 9.4-1-0.9-1.5-0.8-2 0.4-0.3 0.9 0 1.5 1.1 1.5 0.8 0 4.7 1.1 8.5 2.5s8.2 2.5 9.9 2.5c1.6 0 2.9 0.5 2.9 1 0 0.6 0.6 1 1.4 1s1.7 0.8 2.1 1.8c0.5 1.1 0.9 1.3 1.2 0.5 0.3-0.9 3.9-1.3 12.6-1.4zm-70.1-26.5c1.7-10.3 13.3-36.2 19.2-43 4.5-5.3 13.6-8.3 19.5-6.6 5.6 1.7 9.9 7 10.7 13.2 0.8 6 1.3 5.8 10.3-3 10.2-10.1 16.4-21.5 18.6-34.2 0.9-5.6 3.5-5.1 3.5 0.6 0 6-3.2 15.9-7.5 23.1-4.9 8.2-7.3 10.5-10.7 10.5-2.4 0-2.8 0.4-2.8 2.7 0 2.9-2.5 6.3-4.7 6.3-0.7 0-1.3 0.5-1.3 1 0 1.5-6.8 1.2-7.3-0.2-0.2-0.7-0.6 2.5-1 7.2-0.3 4.7-0.4 8.6-0.3 8.7 0.4 0.4 15.1-7.1 15.4-7.9 0.2-0.5 1-0.8 1.7-0.8s1.5-0.7 1.9-1.5c0.3-0.8 0.9-1.5 1.4-1.5 1.2 0 14.3-13.3 16.5-16.7 4.5-6.9 9.7-19.1 11.3-25.9 1.3-6 1.4-9.4 0.8-17.5l-0.9-10.1-8-2.9c-4.4-1.5-8.1-2.7-8.2-2.5-0.2 0.1 0.6 2.8 1.7 5.9 2.4 6.8 2.7 14.7 0.5 14.7-0.9 0-1.6-1.4-2-3.7-1.1-6.5-4.7-15.3-6.9-16.8-4-2.9-6-1.9-12.1 6-12.8 16.3-33.4 29.8-57.7 38-16.6 5.5-25.4 6.9-42.5 7-8.4 0-15.3 0.4-15.3 0.9s2 4.7 4.6 9.2c10.2 18.8 24.8 33 42.6 41.4 3.5 1.7 6.7 2.9 7.3 2.7 0.5-0.2 1.3-2.1 1.7-4.3zm138.3-15.5c2.5-2.3 4.5-4.7 4.5-5.5 0-1.2-5.9-6.4-7.3-6.4-0.4 0-0.7 1.3-0.7 2.8s-0.6 5.1-1.4 8c-0.7 2.9-0.9 5.2-0.4 5.2s2.9-1.9 5.3-4.1zm-177.5-1.4c0-0.8-0.4-1.5-1-1.5-0.5 0-1 0.7-1 1.5s0.5 1.5 1 1.5c0.6 0 1-0.7 1-1.5zm-50-197.5c0.6 0 1-0.8 1-1.7s1.2-3 2.7-4.5c2.1-2.2 2.3-2.8 1-2.8-0.9 0-1.7 0.7-1.7 1.5s-0.9 1.5-2 1.5c-1.7 0-2-0.7-2-4.4 0-12.5 4.1-27.3 16.6-60 4.7-12 8.2-22.1 8-22.3-0.3-0.3-3.2 1.1-6.4 3.1-3.3 2-6.5 3.6-7.2 3.6-1.9 0-0.8-9.6 3-26.4 1.7-7.6 2.9-14 2.7-14.3-1.7-1.7-29.7 52.2-29.7 57.2 0 0.4 2.4-0.7 5.4-2.4 5.4-3.1 8.1-3.8 9-2.2 0.3 0.4-1.2 6.5-3.4 13.4-3 9.8-7 26.4-7 29.3 0 0.2-0.7 0.4-1.5 0.4s-1.5 0.5-1.5 1c0 0.6 0.6 1 1.3 1 1 0 1.6 2.6 2.1 9.8 0.6 10.3 3.3 23 6.3 30.3l1.8 4.4 0.3-7.7c0.2-4.3 0.7-7.8 1.2-7.8zm102.7-11.7c10.2-15.6 19.6-26.6 42-49.3l19.2-19.5-9.2-0.2c-10.9-0.3-13.7-0.9-13.7-2.7 0-0.7 9.5-10.2 21.1-21.1 14.9-13.9 20.7-20 19.8-20.5-0.8-0.4-3.8-1.1-6.6-1.5-8.9-1.2-8.4-3.5 3-13.5 4.5-4 12.5-11.4 17.7-16.3l9.4-9-10.9 5.8c-17.7 9.4-52.5 30.3-52.5 31.6 0 0.3 2.7 1.1 6.1 1.7 6.6 1.2 9.1 2.6 8.3 4.7-0.3 0.8-3.8 4-7.7 7.3-4 3.3-10.5 8.9-14.6 12.6-4.2 3.8-7.7 6.2-8.1 5.7-0.3-0.6-2.8 1.1-5.5 3.9s-4.4 5-3.7 5c0.8 0 0.1 1.7-1.7 4.3-1.6 2.3-4.1 8.3-5.6 13.2-1.4 5-2.8 9.6-3.1 10.3-0.4 1.5 4.5-1.7 6.6-4.3 0.8-0.9 2.6-2.3 4.2-3.1 2.7-1.4 2.8-1.4 2.8 1 0 1.4-2.4 7.1-5.4 12.8-8.6 16.4-16.5 34.2-20.2 45.6-3.9 12.1-4.3 15.2-1.2 10.2 1.2-1.9 5.4-8.6 9.5-14.7zm20.3-2.3c0-1.6-0.4-3-1-3-0.5 0-1 1.4-1 3 0 1.7 0.5 3 1 3 0.6 0 1-1.3 1-3zm-102.6-5c-1-0.4-2.3-0.5-2.8-0.2s-0.1 0.9 1 1.2c1 0.4 2.3 0.5 2.8 0.2s0.1-0.9-1-1.2zm89.4-35.5c-0.2-0.1-1.9-0.5-4-0.8-3.2-0.5-3.7-0.3-4.2 1.8-0.3 1.3-0.9 3-1.2 3.8-0.4 1.2 0.3 1.6 2.8 1.9 2.9 0.3 3.5-0.1 5.1-3 1-1.9 1.7-3.5 1.5-3.7zm-124.8-11c0-0.3-0.9-0.5-2-0.5s-2 0.7-2 1.5c0 1.3 0.4 1.4 2 0.5 1.1-0.6 2-1.3 2-1.5zm44.3-34.7c-0.7-1.4-2.3-0.9-2.3 0.7 0 0.8-0.6 1.5-1.2 1.6-0.7 0-0.4 0.4 0.7 0.8 1.4 0.6 2.2 0.4 2.6-0.8 0.4-0.9 0.5-1.9 0.2-2.3zm120.1-20.3c0.3-0.9 0-1.5-0.9-1.5-0.8 0-1.5 0.7-1.5 1.5s0.4 1.5 0.9 1.5 1.1-0.7 1.5-1.5zm-11.4-6.5c0-1.1-0.2-2-0.3-2-0.2 0-1.2 0.9-2.2 2-1.8 1.9-1.7 2 0.3 2 1.5 0 2.2-0.6 2.2-2zm51 0.6c0-0.8-0.6-1.6-1.4-1.9-1-0.4-1.2 0-0.9 1.4 0.6 2.2 2.3 2.6 2.3 0.5zm-11-5.2c0-1.4-0.3-1.4-1.5-0.4-0.8 0.7-1.5 1.4-1.5 1.6s0.7 0.4 1.5 0.4 1.5-0.7 1.5-1.6zm-157-2.3c0-1.1 0.3-2.7 0.6-3.6 1.1-2.7-2.9 0.2-4.3 3.1-1 2.2-0.9 2.4 1.3 2.4 1.7 0 2.4-0.6 2.4-1.9z"/><path d="m444.2 611c-3.2-2-9.7-11-12.1-16.8-0.8-1.9-2.3-3.3-4.3-3.8-3.4-1-7.4-5.6-6.4-7.3 0.5-0.8 1.6-0.5 3.3 0.9 3.3 2.5 6.3 2.5 10.6 0 3.2-1.9 3.9-2 11.3-0.7 9.3 1.6 13.5 0.9 17.5-2.9 2.5-2.4 2.9-2.5 3.5-1 0.4 1.1-0.2 2.9-1.5 4.6-1.6 2.2-2.1 4.4-2.1 8.7 0 8.1-1.7 13.2-5.5 17-4 4-9.1 4.4-14.3 1.3zm11.6-4.2c2.9-3.2 4.2-7.1 4.2-12.9 0-4.6-0.1-4.9-2.7-5.1-8.1-0.5-12.2 1.6-14.8 7.6-3.5 8.1 7.4 16.6 13.3 10.4z"/><path d="m403.2 578c-4.3-1-9.7-6.2-12.7-12-3.5-6.9-4.8-14.5-4.3-25.7 0.3-8.8 0.7-10.7 3.6-16.6 3.6-7.3 7.3-10.2 11.6-9.1 5.6 1.4 13.4 13.2 17.2 25.9 2.6 8.9 2.6 25.8-0.1 30.4-3.7 6.2-9 8.7-15.3 7.1zm1.2-7.5-2.6-3.5h2.7c3 0 5.5 2 5.5 4.6 0 1.6 0.2 1.5 2.1-0.2 3.3-2.9 4.9-7.7 4.9-14.3 0-8.6-0.2-8.8-6.5-8.3-4.1 0.3-6.1 0-8.1-1.3l-2.7-1.7 0.8 5.8c0.4 3.3 1.1 6.1 1.6 6.2 0.5 0.2 0.9 1.9 0.9 3.9 0 8-5.2-1.1-6.6-11.6-0.6-4.9-0.5-5.1 1.7-5.2l2.4-0.2-2.4-0.4c-2.1-0.4-2.3-0.9-1.7-4.1 0.3-2 1-3.8 1.6-4 0.5-0.2 0.7-1.4 0.4-2.8-0.4-1.5 0.3-3.9 2-7 2.5-4.5 2.5-4.6 0.6-5.1-1.1-0.3-2-1-2-1.5 0-2.2-2.3 0.8-4.5 5.8-1.8 4.2-4.5 14.3-4.5 17.1 0 0.2-0.7 0.3-1.5 0.3s-1.5 0.7-1.5 1.5 0.6 1.5 1.4 1.5c1.4 0 2.6 2.9 2.6 6.7 0 6.7 7.1 18.2 12.5 20.4 3.5 1.4 3.7 1 0.9-2.6zm6.7-25.5c2.4-1.4 2.4-5.2-0.1-10.7-3.1-7-8.5-5.1-8.5 2.9 0 3.1 0.7 4.5 2.8 6.4 3.2 2.8 3.2 2.7 5.8 1.4z"/><path d="m483.3 572.5c-15.2-7.6-19.5-29.3-9.8-49.2 4.9-10 12.9-16.5 22.1-18 2.7-0.4 3.4-0.2 3.4 1.1 0 0.9 0.7 1.6 1.5 1.6s1.5-0.7 1.5-1.6c0-2.5 6.5-1.1 11.5 2.4 9.4 6.6 14.8 17.8 14.8 31.2 0.1 15-6.6 26.4-18.8 32.1-9.2 4.4-13.5 3.8-13.5-1.7 0-2.8 0.4-3.4 2.1-3.4 3.7 0 5.9-1.9 5.9-5 0-2.5 0.4-3 2.5-3 3.6 0 3.1 1.7-2 6.8-2.5 2.4-4.5 4.6-4.5 4.8 0 1.2 9.7-3.6 12.3-6.1 3.6-3.4 7.9-8.5 7.3-8.5-1 0 2.8-9.6 4.1-10.3 1.7-1.1 1.8-8.7 0-8.7-0.7 0-2.1-2.5-3-5.6-3.2-10.5-10-17.9-17.4-19.1l-3.8-0.6 4.3 4.6c4.8 5.3 5.2 6.7 1.8 6.7-2.1 0-2.5-0.5-2.8-3.7-0.3-3.3-0.7-3.8-3-4.1-2.4-0.3-2.8-0.8-2.8-3.3 0-1.6-0.3-2.9-0.7-2.9-1.5 0-11.8 6.3-10.8 6.6 0.6 0.1 2.7 0.5 4.8 0.9 2.3 0.4 3.7 1.1 3.7 2 0 0.8 0.6 1.5 1.4 1.5 1 0 1.7 1.6 2.2 4.5 0.7 5.2-0.3 13.5-1.7 13.5-0.5 0-0.9 0.7-0.9 1.5s-1.1 2.2-2.5 3.1c-3.3 2.2-15.1 1-16.5-1.7-1.6-2.8-1.2-7.9 0.5-7.9 0.8 0 1.5 0.6 1.5 1.4 0 0.7 0.9 2.5 2.1 4 2.9 3.6 6.3 3.4 10.5-0.8 3-3 3.4-4 3.4-8.5 0-11.8-10.9-12.3-15.1-0.7-1 2.7-1.8 3.6-3 3.3-2.2-0.6-4.4 9.4-3.5 16 0.7 5.5 4.8 14.4 8 17.6 2.7 2.6 8.9 5.7 11.6 5.7 1.3 0 2 0.7 2 2 0 2.8-4.4 2.6-10.7-0.5z"/><path d="m427.2 572.8c-1.7-1.7-1.5-4.5 0.4-5.2 3.2-1.2 8.4-0.6 9.1 1.1 1.4 3.5-6.6 7-9.5 4.1z"/><path d="m508 555.6c0-5.4 1.2-8.6 3.2-8.6 1.8 0 1.9 0.4 1.3 3.7-1.2 6.6-4.5 10.2-4.5 4.9z"/><path d="m509 534c0-4.5 2.3-5.7 3.4-1.7 1.1 4.1 0.7 5.7-1.4 5.7-1.7 0-2-0.7-2-4z"/><path d="m633.6 447-4-0.5 5.5-4.9c13.1-11.8 31.1-22.1 40.4-23.2 9.2-1.1 12.8 2 14.6 12.5 1.3 7.1 0.5 13.1-1.6 13.1-1.1 0-1.5-1.4-1.5-5.5s-0.4-5.5-1.4-5.5c-0.8 0-1.7-1.4-2.1-3-0.4-1.7-1.7-3.7-2.9-4.6-2.1-1.3-2.9-1.2-8.5 0.5-3.3 1-6.1 1.5-6.1 1 0-0.4-0.7-0.6-1.5-0.3-0.8 0.4-1.5 1.1-1.5 1.8 0 1.9-5.4 4.6-8 3.9-1.9-0.5-2.2-0.3-1.7 1 0.4 1.1-1.3 3.1-6.1 6.9-9.4 7.5-9.3 7.4-13.6 6.8z"/></g><g fill="#010100"><path d="m571.5 723.3c-4.9-2.6-9.4-6.7-13.7-12.4-4.7-6.3-5.4-6.9-9-6.9-1.5 0-5.9-1.2-9.9-2.6l-7.2-2.6-3.6 4.1c-4.9 5.5-9.7 8.1-14.9 8.1-8.2 0-12.3-5.1-12.8-16-0.2-5.6-0.6-6.5-2.3-6.8-1.4-0.2-2.9 1.2-5.6 5.2-7.4 11.2-14.1 14.4-18.4 9-2.6-3.3-2.8-10.5-0.5-20.6 0.9-3.8 1.2-7.3 0.8-7.7-0.5-0.4-3.3-2.7-6.2-5.1l-5.3-4.3-1.7 2.4c-3.3 4.9-12.9 14.3-18.8 18.5-8.2 5.9-14.4 8.5-20.3 8.6-9 0.2-12.7-4.3-11.8-14.3 1-11.5 9.1-25.2 22.7-38.3l8.9-8.5-1.6-4c-1.4-3.6-2-4.1-6.7-5.2-22.9-5.4-42.1-19.1-50.3-35.7-2.4-5-2.9-7.2-3.3-17.4l-0.5-11.7-6.5-4.2c-8-5.1-24.2-21.3-29.5-29.4-5.7-8.7-10.4-20.2-12.6-30.8-2.2-11-2.4-16.6-0.5-21.1 1.7-4.2 2.8-4.8 7.6-4.8 7.8 0.1 21.1 9.3 35 23.9l9 9.5 1.2-3.3c2.4-7 10.9-22.5 14.2-26.2l3.5-3.7-2-9.3c-3-13.5-2.3-35.4 1.6-48.2 1.5-4.9 3-9.8 3.3-10.9 0.4-1.6 0-1.5-4.1 0.8-5.7 3.4-9.1 3.2-9.5-0.5-0.9-7.8 23.9-57.6 37.5-75.4 2.7-3.4 4.7-5.1 6.5-5.3 5.1-0.6 5 1.7-0.1 23.8-2.7 11.3-4.5 20.6-4.1 20.8 0.5 0.2 3-1.1 5.8-2.7 5.4-3.4 8.3-3.9 10.2-1.6 1.5 1.8 1 3.2-8 26-12.7 32-17.3 46.7-18.5 59l-0.6 6 2.3-3c4.2-5.5 9-10.5 10.1-10.5 0.5 0 1.6 0.8 2.3 1.7 0.7 1 1.4 1.6 1.6 1.3 4-5.4 11.7-13.4 14.4-15.1 4.5-2.7 6.2-2 6.6 3l0.3 4 5-3.1c11-6.9 29.2-12.7 30.9-9.9 0.4 0.6-0.4 3.2-1.8 5.8l-2.6 4.6 5.2-0.7c2.9-0.3 8.3-0.9 12.1-1.2l6.7-0.7 2-4.5c2.5-5.5 2.5-5.5 0.1-4.2-1.5 0.7-2.3 0.6-3.5-0.6-0.9-0.8-1.6-1.8-1.6-2.2 0-1.9 9.6-33.3 11.1-36.2 1.8-3.6 18.5-20.4 30.1-30.4 3.7-3.2 6.5-6.2 6.2-6.7s-2-0.9-3.9-0.9c-6.9 0-10.6-3.1-8.5-7 3.4-6.4 76.4-47.9 84.9-48.3 4.2-0.2 6 2 4.4 5.6-0.7 1.4-9.7 10.3-20.2 19.8-10.4 9.5-18.8 17.6-18.5 18.1 0.3 0.4 2.1 0.8 4 0.8 5 0 7.4 1.6 7.4 4.8 0 2.2-2.2 4.8-11.2 13.2-6.2 5.8-14.9 14-19.3 18.2l-8 7.8h8.3c9.2 0 12.2 1 12.2 4.2 0 1.5-8.6 10.8-26.8 29.2-14.7 14.9-27.8 28.5-29 30.3l-2.3 3.2 5.9 0.7c3.3 0.3 6.5 1 7.1 1.3 1.6 1 0.3 3.9-2 4.6-1 0.4-1.9 1-1.9 1.5 0 0.9 2.3 1.6 12.5 4.1 2.8 0.6 5.6 1.6 6.3 2.2 2.1 1.6 1.3 4.6-1.5 6.1l-2.7 1.4 7.9 3.8c6.1 3 8.1 4.4 8.3 6.1 0.3 1.7-0.4 2.6-2.5 3.4l-2.8 1 3 2.7c1.7 1.5 5.5 4.8 8.5 7.4 4.7 4 5.3 4.9 4.4 6.5-0.6 1-2.3 2.4-3.7 3.1-2.7 1.3-3.5 3.6-1.7 4.7 0.6 0.4 2.2 2.9 3.5 5.6 1.4 2.7 2.7 4.9 2.9 4.9s2.5-3.9 5.1-8.7c6.6-12.3 18.1-28.9 29.1-41.9 19.4-23.1 41.9-39.7 58.8-43.5 6.2-1.4 9.6-0.2 13 4.4 1.9 2.6 2.1 4.2 2 16-0.1 11.5-0.5 14.8-3.3 25.2-8 29.9-27.7 58.2-51.6 73.9-5 3.3-9.3 6.2-9.8 6.6-0.4 0.4 4.8 0.6 11.5 0.6 14.4 0 21.3 1.8 25.3 6.5 3 3.6 3.1 5.8 0.6 10.7-5.4 10.6-21.5 19.5-40.1 22.3-7.4 1-8 1.3-6.8 2.9 0.7 1 3.2 4.2 5.4 7.1 8.8 11.5 14 23.7 16.4 38 1.3 8.1 3.8 11.8 11.2 16.5 5.1 3.3 5.6 5.6 2.1 10.6-3.4 5-13.4 13.5-16.9 14.4-1.5 0.4-3.8 2.7-6 6-7.7 11.6-21.6 21.1-34.7 23.8l-6.2 1.3-0.5 7.5c-0.6 9.1-2.4 11.8-7.9 11.8-2-0.1-4.9-0.8-6.6-1.7zm8.3-10.5 0.3-5.8h-8.6c-4.7 0-8.5 0.4-8.5 0.8 0 1 6.6 7.3 10 9.6 1.4 0.9 3.4 1.5 4.5 1.4 1.7-0.3 2-1.2 2.3-6zm-59.9-10.8c5.7-4.2 12.5-13.6 18.2-25.5 7.6-15.6 9.7-27.6 6.8-39.1-0.8-3.1-0.8-4.9-0.2-5.5 1.6-1.6 5.2 2.8 5.9 7 0.9 5.5 1.5 7.1 2.5 7.1 0.5 0 4.4-3.3 8.7-7.4 13.7-13.1 19.8-26.7 19-42.4-0.7-13.5-5.5-22.2-12.3-22.2-0.8 0-2.9 2.1-4.7 4.8-5.1 7.4-16.5 18.2-25.8 24.3-11.6 7.7-21.1 12.3-34.9 16.9-16.5 5.5-27.6 7.3-44.3 6.8-13.4-0.3-13.8-0.2-13.2 1.7 2 6.4 10.8 20.4 18.4 29.4 10.7 12.5 38 28.8 38 22.7 0-7.8 15.6-42.3 21.4-47.4 2-1.8 4.1-3.2 4.6-3.2 2.1 0 0.9 4.2-2.8 9.9-5.9 9-14 27.7-16.8 38.7-5.5 21.5-0.4 32 11.5 23.4zm78.5-5.4c20.3-7.7 34.4-29.3 33.4-51l-0.3-6.1-2.8 7.9c-8.5 23.6-28.5 42.5-52.7 49.7-7 2.1-4.6 3.2 5.8 2.6 7-0.4 11.6-1.2 16.6-3.1zm-112.6-3.9c5.7-7.6 5.7-7.3 0.6-10.1-2.6-1.4-5-2.6-5.4-2.6-1.8 0-4 16.7-2.4 18.3 1.2 1.1 3.3-0.6 7.2-5.6zm69.7-5.3c24.7-8.2 44.5-24.5 54.9-45.1 6.4-12.7 9.6-32.9 6.5-41-2.3-6.2-12.7-17.3-16.1-17.3-0.4 0-0.4 4.6-0.1 10.3 0.7 13.3-1.2 22.6-7.4 34.9-7.6 15.1-23.6 30-39 36.3-3.2 1.3-6 2.9-6.4 3.7-0.3 0.7-2.8 5.9-5.6 11.6-2.7 5.6-4.8 10.4-4.6 10.6 0.7 0.6 9.8-1.4 17.8-4zm-122.2-3.1c2.7-1.5 7.3-4.9 10.4-7.5 5.6-5 14.3-14.6 14.3-15.9 0-0.6-12.4-19.6-13.5-20.8-0.9-0.9-10.1 7.7-15.5 14.5-7.4 9.3-11.9 18.5-12.7 25.6-0.5 4.9-0.3 5.7 1.6 7 2.8 2 8.4 0.9 15.4-2.9zm207.6-22.2c2.8-2.7 5.1-5.4 5.1-6 0-1-7.9-7.6-8.4-7-0.2 0.2-0.9 3.3-1.5 6.9-0.7 3.6-1.5 7.5-1.8 8.8-0.8 3.4 1.1 2.7 6.6-2.7zm-153.9-43c12-2.7 20-5.5 31.6-11.1 12.8-6 20.6-11.3 30.1-20.3 11.4-10.9 18.5-21.7 20.8-32.1 1-4.4 1.5-5.1 3.6-5.1 1.7 0 2.4-0.5 2.2-1.9-0.1-1-0.4-5-0.8-8.7l-0.7-6.9h2.7c1.8 0 2.5-0.4 2.2-1.2-0.3-0.7-1.5-3.7-2.8-6.6-2.1-5-2.1-5.3-0.4-6.6 1.7-1.2 1.7-1.4 0-4.7-1-1.9-3.7-6.5-6.1-10.2s-4.4-7.2-4.4-7.6c0-1.1 2.5-2.1 5.1-2.1 1 0 1.9-0.4 1.9-0.9 0-0.9-5.6-6.1-13.5-12.6l-4.9-3.9 3.2-1.3c1.8-0.7 3.2-1.7 3.2-2.1s-3.7-2.3-8.2-4.2-8.3-4-8.5-4.6 1-1.7 2.7-2.4c1.6-0.7 3-1.6 3-2.1 0-1-5.2-2.5-13.6-4-8.2-1.4-9.6-2.4-6.6-4.8 3-2.6 2.8-3.1-1.2-3.1-3.2 0-3.8 0.5-7.8 7-10.5 17-11.9 19.1-14.2 20.1-3.6 1.7-7.4 0.4-8.2-2.7-0.7-2.9 1.5-11.7 5.7-22.3 3-7.5 2.8-9-0.8-9.1-1.9 0-1.6-1.1 0.9-3.7 1.2-1.3 1.9-2.6 1.5-2.9-0.7-0.7-19.3 2.1-23.1 3.5-2.2 0.9-2.6 0.8-2.6-0.7 0-0.9 1.1-3.5 2.5-5.7 2.8-4.6 3-5.5 1.3-5.5-2.3 0-21.2 9.7-26.3 13.4-2.7 2-5.3 3.6-5.7 3.6s-1-2.1-1.4-4.6l-0.6-4.5-2.3 2.1c-1.3 1.2-4.5 5.3-7.2 9.1-5.1 7.3-6.6 8.1-8.3 4.9-1.5-2.9-2.3-2.5-6 2.8-1.8 2.6-4.2 5.7-5.4 7-1.8 2-2 3.4-1.7 11.3 0.2 7-0.1 9.5-1.4 11.5-3.1 4.8-10.1 1.6-12.8-5.9-1.4-3.8-12.4 14.4-16.5 27.3-3.8 11.9-4.5 18.1-3.8 33.8 2.1 44.7 1.8 42.1 5.4 49.4 7.4 15.1 28 28.3 52.2 33.4 9.2 1.9 34.8 1.1 46-1.5zm131.9-39.1c11.2-1.5 21.6-4.9 28.6-9.5 6-4 11.8-11.6 10.8-14.1-1.2-3.1-6.6-4.7-17.6-5.2-13.6-0.6-23.1 0.9-37.7 6-18.2 6.3-23.2 7.9-27.3 8.6-2.1 0.4-3.9 1.1-4 1.7-0.3 1.6 32 13.1 37.8 13.4 0.6 0.1 4.8-0.4 9.4-0.9zm-33.2-23.1c10.7-3.7 27.9-12 39-18.7 22.4-13.6 39.7-33.5 49.9-57.6 6.4-15.1 8.5-24.1 9.1-38.6 0.5-12.3 0.5-12.7-1.9-15.5s-2.6-2.8-7.2-1.6c-25.4 6.4-65.5 47.3-86.6 88.4-2.4 4.5-4.9 8.9-5.7 9.8-1.2 1.5-1.1 2.1 1.2 5.5 3.5 5.2 3 8.5-1.3 9.8-2.8 0.8-3.2 1.3-2.7 3.3 0.3 1.2 0.8 4.2 1.1 6.6 0.5 3.8 0.3 4.5-2.5 7.1-3.1 3-3.9 4.6-2.2 4.6 0.5 0 4.9-1.4 9.8-3.1zm-207-9.1c-2-14.3-1.8-22.8 0.8-36.3 0.5-2.6-0.3-3.9-6.2-10.7-12.6-14.1-29.9-27.2-35.3-26.6-2.4 0.3-2.5 0.6-2.8 8.2-0.3 9.1 2.7 21.5 7.7 31.4 3.5 6.9 13.3 20.2 18.7 25.4 4.5 4.3 15.5 12.6 16.8 12.7 0.4 0.1 0.6-1.8 0.3-4.1zm34-85c-0.1-23.8 1.8-31.9 16.9-71 4.6-12.1 8.2-22.3 8-22.6-0.3-0.2-3.3 1.2-6.6 3.2-3.4 2-6.8 3.6-7.7 3.6-1.9 0-1.5-3.8 3.3-25.3 2-8.7 3.4-16.1 3.1-16.3-0.7-0.7-9.4 13-15.7 25-7.9 14.9-16.2 34-15 34.4 0.5 0.2 3.4-1 6.4-2.7 9-5.2 9.3-4.5 4.1 11.4-6.1 18.7-7.9 31-6.3 45.3 1.4 13.5 6.4 31.2 8.7 31.2 0.5 0 0.9-7.3 0.8-16.2zm93.7 4c5.1-9.1 19.3-29.3 26.1-37.3 4.2-4.9 16.2-17.6 26.6-28 10.4-10.5 18.7-19.4 18.3-19.8s-5.6-0.7-11.6-0.7c-8.7 0-10.8-0.3-10.8-1.4 0-0.8 9.5-10.3 21-21.1 11.6-10.8 20.8-20 20.5-20.5s-3-1.2-6-1.5c-3-0.4-6.2-1.3-7.2-2-2-1.5-1.6-1.9 22-23.9 7-6.5 12.6-12.1 12.3-12.3-1-1-38.1 20-61.3 34.8-3.2 2-2.9 2.7 1.5 3.4 7.6 1.3 11.2 2.6 11.2 3.9 0 0.8-4.4 5.1-9.7 9.7-16.1 13.6-32.3 30-34.3 34.5-2.4 5.4-6.3 19.4-5.6 20.1 0.2 0.3 3-1.6 6.1-4.1 5.8-4.7 7.5-5.5 7.5-3.5 0 0.7-4.7 10.7-10.4 22.3-11.8 23.8-21.8 50.6-18.9 50.6 0.5 0 1.7-1.5 2.7-3.2z"/><path d="m445.3 611.1c-3.6-2.3-8.3-8.3-11.9-15.3-1.4-2.7-3.3-4.9-4.6-5.3-2.9-0.9-6.8-4.4-6.8-6.2 0-1 1.1-0.7 4 0.9l3.9 2.3 4.5-2.5c4.3-2.3 4.9-2.3 10.4-1.2 3.2 0.7 7.6 1.2 9.8 1.2 3.9 0 10.4-3.1 10.4-5 0-0.5 0.5-1 1-1 1.5 0 1.2 3.6-0.4 4.9-0.8 0.7-1.5 4.1-1.9 8.9-0.8 11.8-4.9 18.8-11.8 19.8-2.4 0.3-4.4-0.1-6.6-1.5zm10.7-3.9c2.8-2.9 5.5-11.8 4.8-16.4-0.3-1.9-0.9-2.2-6.3-2.3-3.3-0.1-8.3-0.5-11-0.9-4.2-0.7-5.4-0.5-7.2 1l-2.3 1.9 5 7.7c7.9 12.1 11.8 14.2 17 9z"/><path d="m402 577.3c-9.8-3.8-16.7-20.1-15.7-36.8 0.8-13.5 6.9-25.5 13-25.5 9.8 0 20.7 22.2 20.7 42.4 0 10-1.3 14-5.9 17.9-3.2 2.6-8.2 3.5-12.1 2zm5-3.8c0-0.3-1-1.6-2.1-2.8-3.3-3.4-6.8-12-7.9-19.5-1.4-8.5 0-17.8 3.5-24.5 1.4-2.7 2.5-5.1 2.5-5.3s-1.1-0.4-2.4-0.4c-3.5 0-7.2 5.3-9.2 13.1-3.5 13.7 0.6 31 8.9 37 3.7 2.7 6.7 3.7 6.7 2.4zm4.9-28.4c2.9-1.8 0.7-11.7-3.2-14.9-3.2-2.7-6.7 1.5-6.7 7.9 0 5.3 6 9.5 9.9 7z"/><path d="m488.3 574.1c-11.8-3-19.3-14.8-19.3-30 0-19.9 12.3-36.5 28.5-38.8 6.6-0.9 12.8 1.3 18.5 6.4 10.7 9.6 14.8 26.3 10.1 40.6-2.7 8.1-9.1 15.7-16.3 19.3-5.4 2.8-15.8 4-21.5 2.5zm18.2-5.5c6.3-3 9.7-6.6 13.1-13.9 2.4-5.3 2.6-6.7 2.2-15-0.3-6.9-1-10.3-2.6-13.4-2.6-5-7.6-10.9-10.6-12.5-2.5-1.3-8.6-2.8-8.6-2.1 0 0.3 1.6 2.4 3.6 4.6s4.8 6.5 6.3 9.6c2.3 4.9 2.6 6.9 2.6 16.1 0 9.5-0.3 11-2.8 16.2-1.6 3.2-4.7 7.3-6.9 9.3-4.8 4.1-3.4 4.5 3.7 1.1zm-15.5-30.6c6.3-6.7 4.1-18.2-3.5-18.2-4.9 0-9.5 6.3-9.5 13.2 0 7.9 7.5 10.8 13 5z"/><path d="m428.1 572.4c-3.8-2.7-2.6-4.4 2.8-4.4 5.1 0 6.5 0.7 5.3 2.7-1.5 2.4-5.8 3.2-8.1 1.7z"/></g><path transform="matrix(.90499998 0 0 .90499998 46.64001 -200.88203)" d="m396.32758 821.95858c-1.93798-2.30316-2.80955-5.25383-2.38606-8.07789 0.41239-2.75 2.20874-5.97711 3.32713-5.97711 2.33752 0 6.01147 5.68882 6.81277 10.54903 0.58497 3.54816-0.63672 5.17659-3.88365 5.17659-2.04414 0-2.70421-0.28493-3.87019-1.67062z" fill="#fff" stroke-width="0"/><path transform="matrix(.90499998 0 0 .90499998 46.64001 -200.88203)" d="m480.86476 817.73862c-5.12896-4.31573-4.39769-12.32291 1.64924-18.05877 4.12662-3.91433 6.07981-3.8818 9.16028 0.15257 2.8141 3.68551 3.18712 7.4177 1.14876 11.49388-3.48931 6.97769-8.25155 9.53132-11.95828 6.41232z" fill="#fff" stroke-width="0"/></g></g></svg>
